GE_SS_Two_Medium.svg
<glyph name="exclam" format="1">
  <advance width="230"/>
  <unicode hex="0021"/>
  <outline>
    <contour>
      <point x="157" y="402" type="curve" smooth="yes"/>
      <point x="157" y="651" type="line"/>
      <point x="36" y="651" type="line"/>
      <point x="36" y="402" type="line" smooth="yes"/>
      <point x="36" y="399"/>
      <point x="40" y="373"/>
      <point x="47" y="322" type="curve" smooth="yes"/>
      <point x="70" y="162" type="line"/>
      <point x="122" y="162" type="line"/>
      <point x="145" y="322" type="line" smooth="yes"/>
      <point x="146" y="325"/>
      <point x="148" y="339"/>
      <point x="152" y="362" type="curve" smooth="yes"/>
      <point x="155" y="377"/>
      <point x="157" y="390"/>
    </contour>
    <contour>
      <point x="157" y="0" type="line"/>
      <point x="157" y="127" type="line"/>
      <point x="36" y="127" type="line"/>
      <point x="36" y="0" type="line"/>
    </contour>
  </outline>
</glyph>
<glyph name="quotedbl" format="1">
  <advance width="251"/>
  <unicode hex="0022"/>
  <outline>
    <contour>
      <point x="103" y="686" type="line"/>
      <point x="21" y="686" type="line"/>
      <point x="48" y="414" type="line"/>
      <point x="78" y="414" type="line"/>
    </contour>
    <contour>
      <point x="228" y="686" type="line"/>
      <point x="146" y="686" type="line"/>
      <point x="173" y="414" type="line"/>
      <point x="203" y="414" type="line"/>
    </contour>
  </outline>
</glyph>
<glyph name="dollar" format="1">
  <advance width="575"/>
  <unicode hex="0024"/>
  <outline>
    <contour>
      <point x="542" y="160" type="curve" smooth="yes"/>
      <point x="542" y="219"/>
      <point x="517" y="263"/>
      <point x="467" y="293" type="curve" smooth="yes"/>
      <point x="440" y="309"/>
      <point x="390" y="326"/>
      <point x="316" y="343" type="curve"/>
      <point x="316" y="499" type="line"/>
      <point x="341" y="496"/>
      <point x="365" y="490"/>
      <point x="390" y="480" type="curve" smooth="yes"/>
      <point x="403" y="475"/>
      <point x="424" y="466"/>
      <point x="451" y="453" type="curve"/>
      <point x="513" y="527" type="line"/>
      <point x="451" y="564"/>
      <point x="385" y="587"/>
      <point x="316" y="594" type="curve"/>
      <point x="316" y="702" type="line"/>
      <point x="271" y="702" type="line"/>
      <point x="271" y="595" type="line"/>
      <point x="202" y="588"/>
      <point x="150" y="573"/>
      <point x="117" y="550" type="curve" smooth="yes"/>
      <point x="74" y="519"/>
      <point x="52" y="470"/>
      <point x="52" y="403" type="curve" smooth="yes"/>
      <point x="52" y="318"/>
      <point x="125" y="260"/>
      <point x="272" y="231" type="curve"/>
      <point x="272" y="58" type="line"/>
      <point x="213" y="63"/>
      <point x="155" y="81"/>
      <point x="98" y="112" type="curve"/>
      <point x="32" y="35" type="line"/>
      <point x="96" y="-6"/>
      <point x="176" y="-31"/>
      <point x="272" y="-41" type="curve"/>
      <point x="272" y="-154" type="line"/>
      <point x="316" y="-154" type="line"/>
      <point x="316" y="-41" type="line"/>
      <point x="467" y="-26"/>
      <point x="542" y="41"/>
    </contour>
    <contour>
      <point x="272" y="350" type="line"/>
      <point x="241" y="357"/>
      <point x="219" y="363"/>
      <point x="206" y="370" type="curve" smooth="yes"/>
      <point x="182" y="382"/>
      <point x="170" y="400"/>
      <point x="170" y="424" type="curve" smooth="yes"/>
      <point x="170" y="451"/>
      <point x="181" y="470"/>
      <point x="203" y="481" type="curve" smooth="yes"/>
      <point x="217" y="488"/>
      <point x="240" y="494"/>
      <point x="272" y="498" type="curve"/>
    </contour>
    <contour>
      <point x="425" y="148" type="curve" smooth="yes"/>
      <point x="425" y="118"/>
      <point x="413" y="96"/>
      <point x="390" y="81" type="curve" smooth="yes"/>
      <point x="376" y="72"/>
      <point x="351" y="65"/>
      <point x="316" y="58" type="curve"/>
      <point x="316" y="222" type="line"/>
      <point x="389" y="212"/>
      <point x="425" y="187"/>
    </contour>
  </outline>
</glyph>
<glyph name="quotesingle" format="1">
  <advance width="126"/>
  <unicode hex="0027"/>
  <outline>
    <contour>
      <point x="103" y="686" type="line"/>
      <point x="21" y="686" type="line"/>
      <point x="48" y="414" type="line"/>
      <point x="78" y="414" type="line"/>
    </contour>
  </outline>
</glyph>
<glyph name="at" format="1">
  <advance width="342"/>
  <unicode hex="002A"/>
  <outline>
    <contour>
      <point x="310" y="136" type="line"/>
      <point x="310" y="185" type="line"/>
      <point x="199" y="174" type="line"/>
      <point x="262" y="269" type="line"/>
      <point x="219" y="298" type="line"/>
      <point x="171" y="188" type="line"/>
      <point x="125" y="298" type="line"/>
      <point x="78" y="268" type="line"/>
      <point x="142" y="173" type="line"/>
      <point x="32" y="185" type="line"/>
      <point x="32" y="134" type="line"/>
      <point x="143" y="141" type="line"/>
      <point x="80" y="45" type="line"/>
      <point x="125" y="16" type="line"/>
      <point x="171" y="124" type="line"/>
      <point x="220" y="21" type="line"/>
      <point x="267" y="45" type="line"/>
      <point x="201" y="142" type="line"/>
    </contour>
  </outline>
</glyph>
<glyph name="plus" format="1">
  <advance width="636"/>
  <unicode hex="002B"/>
  <outline>
    <contour>
      <point x="566" y="240" type="line"/>
      <point x="566" y="335" type="line"/>
      <point x="373" y="335" type="line"/>
      <point x="373" y="535" type="line"/>
      <point x="261" y="535" type="line"/>
      <point x="261" y="335" type="line"/>
      <point x="70" y="335" type="line"/>
      <point x="70" y="240" type="line"/>
      <point x="261" y="240" type="line"/>
      <point x="261" y="41" type="line"/>
      <point x="373" y="41" type="line"/>
      <point x="373" y="240" type="line"/>
    </contour>
  </outline>
</glyph>
<glyph name="hyphen" format="1">
  <advance width="443"/>
  <unicode hex="002D"/>
  <outline>
    <contour>
      <point x="373" y="230" type="line"/>
      <point x="373" y="330" type="line"/>
      <point x="70" y="330" type="line"/>
      <point x="70" y="230" type="line"/>
    </contour>
  </outline>
</glyph>
<glyph name="period" format="1">
  <advance width="207"/>
  <unicode hex="002E"/>
  <outline>
    <contour>
      <point x="147" y="0" type="line"/>
      <point x="147" y="126" type="line"/>
      <point x="25" y="126" type="line"/>
      <point x="25" y="0" type="line"/>
    </contour>
  </outline>
</glyph>
<glyph name="slash" format="1">
  <advance width="419"/>
  <unicode hex="002F"/>
  <outline>
    <contour>
      <point x="419" y="651" type="line"/>
      <point x="309" y="651" type="line"/>
      <point x="0" y="0" type="line"/>
      <point x="110" y="0" type="line"/>
    </contour>
  </outline>
</glyph>
<glyph name="zero" format="1">
  <advance width="280"/>
  <unicode hex="0030"/>
  <outline>
    <contour>
      <point x="210" y="103" type="line"/>
      <point x="210" y="258" type="line"/>
      <point x="70" y="327" type="line"/>
      <point x="70" y="173" type="line"/>
    </contour>
  </outline>
</glyph>
<glyph name="one" format="1">
  <advance width="251"/>
  <unicode hex="0031"/>
  <outline>
    <contour>
      <point x="181" y="0" type="line"/>
      <point x="181" y="632" type="line"/>
      <point x="70" y="551" type="line"/>
      <point x="70" y="0" type="line"/>
    </contour>
  </outline>
</glyph>
<glyph name="two" format="1">
  <advance width="526"/>
  <unicode hex="0032"/>
  <outline>
    <contour>
      <point x="456" y="548" type="line"/>
      <point x="456" y="646" type="line"/>
      <point x="406" y="645"/>
      <point x="370" y="645"/>
      <point x="348" y="645" type="curve" smooth="yes"/>
      <point x="148" y="645"/>
      <point x="70" y="497"/>
      <point x="70" y="276" type="curve" smooth="yes"/>
      <point x="70" y="0" type="line"/>
      <point x="181" y="0" type="line"/>
      <point x="181" y="336" type="line" smooth="yes"/>
      <point x="181" y="391"/>
      <point x="195" y="438"/>
      <point x="222" y="479" type="curve" smooth="yes"/>
      <point x="253" y="525"/>
      <point x="295" y="548"/>
      <point x="348" y="548" type="curve" smooth="yes"/>
    </contour>
  </outline>
</glyph>
<glyph name="six" format="1">
  <advance width="526"/>
  <unicode hex="0036"/>
  <outline>
    <contour>
      <point x="70" y="548" type="line"/>
      <point x="70" y="646" type="line"/>
      <point x="120" y="645"/>
      <point x="156" y="645"/>
      <point x="178" y="645" type="curve" smooth="yes"/>
      <point x="378" y="645"/>
      <point x="456" y="497"/>
      <point x="456" y="276" type="curve" smooth="yes"/>
      <point x="456" y="0" type="line"/>
      <point x="345" y="0" type="line"/>
      <point x="345" y="336" type="line" smooth="yes"/>
      <point x="345" y="391"/>
      <point x="331" y="438"/>
      <point x="304" y="479" type="curve" smooth="yes"/>
      <point x="273" y="525"/>
      <point x="231" y="548"/>
      <point x="178" y="548" type="curve" smooth="yes"/>
    </contour>
  </outline>
</glyph>
<glyph name="colon" format="1">
  <advance width="217"/>
  <unicode hex="003A"/>
  <outline>
    <contour>
      <point x="147" y="0" type="line"/>
      <point x="147" y="126" type="line"/>
      <point x="25" y="126" type="line"/>
      <point x="25" y="0" type="line"/>
    </contour>
    <contour>
      <point x="147" y="219" type="line"/>
      <point x="147" y="346" type="line"/>
      <point x="25" y="346" type="line"/>
      <point x="25" y="219" type="line"/>
    </contour>
  </outline>
</glyph>
<glyph name="less" format="1">
  <advance width="542"/>
  <unicode hex="003C"/>
  <outline>
    <contour>
      <point x="477" y="0" type="line"/>
      <point x="243" y="233" type="line"/>
      <point x="477" y="467" type="line"/>
      <point x="358" y="467" type="line"/>
      <point x="124" y="233" type="line"/>
      <point x="358" y="0" type="line"/>
    </contour>
  </outline>
</glyph>
<glyph name="equal" format="1">
  <advance width="596"/>
  <unicode hex="003D"/>
  <outline>
    <contour>
      <point x="540" y="326" type="line"/>
      <point x="540" y="422" type="line"/>
      <point x="55" y="422" type="line"/>
      <point x="55" y="326" type="line"/>
    </contour>
    <contour>
      <point x="540" y="136" type="line"/>
      <point x="540" y="233" type="line"/>
      <point x="55" y="233" type="line"/>
      <point x="55" y="136" type="line"/>
    </contour>
  </outline>
</glyph>
<glyph name="greater" format="1">
  <advance width="542"/>
  <unicode hex="003E"/>
  <outline>
    <contour>
      <point x="418" y="223" type="line"/>
      <point x="184" y="457" type="line"/>
      <point x="75" y="457" type="line"/>
      <point x="309" y="223" type="line"/>
      <point x="75" y="-10" type="line"/>
      <point x="184" y="-10" type="line"/>
    </contour>
  </outline>
</glyph>
<glyph name="bracketleft" format="1">
  <advance width="254"/>
  <unicode hex="005B"/>
  <outline>
    <contour>
      <point x="221" y="-133" type="line"/>
      <point x="221" y="-66" type="line"/>
      <point x="132" y="-66" type="line"/>
      <point x="132" y="651" type="line"/>
      <point x="221" y="651" type="line"/>
      <point x="221" y="718" type="line"/>
      <point x="32" y="718" type="line"/>
      <point x="32" y="-133" type="line"/>
    </contour>
  </outline>
</glyph>
<glyph name="backslash" format="1">
  <advance width="479"/>
  <unicode hex="005C"/>
  <outline>
    <contour>
      <point x="446" y="0" type="line"/>
      <point x="137" y="651" type="line"/>
      <point x="28" y="651" type="line"/>
      <point x="337" y="0" type="line"/>
    </contour>
  </outline>
</glyph>
<glyph name="bracketright" format="1">
  <advance width="254"/>
  <unicode hex="005D"/>
  <outline>
    <contour>
      <point x="221" y="-133" type="line"/>
      <point x="221" y="718" type="line"/>
      <point x="32" y="718" type="line"/>
      <point x="32" y="652" type="line"/>
      <point x="122" y="652" type="line"/>
      <point x="122" y="-65" type="line"/>
      <point x="32" y="-65" type="line"/>
      <point x="32" y="-133" type="line"/>
    </contour>
  </outline>
</glyph>
<glyph name="underscore" format="1">
  <advance width="382"/>
  <unicode hex="005F"/>
  <outline>
    <contour>
      <point x="365" y="-100" type="line"/>
      <point x="365" y="-16" type="line"/>
      <point x="16" y="-16" type="line"/>
      <point x="16" y="-100" type="line"/>
    </contour>
  </outline>
</glyph>
<glyph name="braceleft" format="1">
  <advance width="375"/>
  <unicode hex="007B"/>
  <outline>
    <contour>
      <point x="335" y="-124" type="curve" smooth="yes"/>
      <point x="335" y="-118"/>
      <point x="335" y="-112"/>
      <point x="334" y="-108" type="curve" smooth="yes"/>
      <point x="227" y="-107"/>
      <point x="182" y="-88"/>
      <point x="190" y="-13" type="curve"/>
      <point x="190" y="189" type="line" smooth="yes"/>
      <point x="190" y="225"/>
      <point x="166" y="258"/>
      <point x="118" y="289" type="curve"/>
      <point x="166" y="326"/>
      <point x="190" y="362"/>
      <point x="190" y="388" type="curve" smooth="yes"/>
      <point x="190" y="590" type="line" smooth="yes"/>
      <point x="190" y="631"/>
      <point x="201" y="657"/>
      <point x="220" y="668" type="curve" smooth="yes"/>
      <point x="238" y="682"/>
      <point x="275" y="689"/>
      <point x="333" y="689" type="curve"/>
      <point x="333" y="698" type="line" smooth="yes"/>
      <point x="333" y="707"/>
      <point x="333" y="717"/>
      <point x="331" y="727" type="curve"/>
      <point x="179" y="727"/>
      <point x="120" y="687"/>
      <point x="120" y="590" type="curve" smooth="yes"/>
      <point x="120" y="388" type="line" smooth="yes"/>
      <point x="120" y="369"/>
      <point x="114" y="351"/>
      <point x="99" y="332" type="curve" smooth="yes"/>
      <point x="83" y="311"/>
      <point x="62" y="299"/>
      <point x="38" y="289" type="curve"/>
      <point x="36" y="289" type="line"/>
      <point x="93" y="252"/>
      <point x="120" y="217"/>
      <point x="120" y="189" type="curve" smooth="yes"/>
      <point x="120" y="-13" type="line" smooth="yes"/>
      <point x="120" y="-59"/>
      <point x="134" y="-90"/>
      <point x="163" y="-110" type="curve" smooth="yes"/>
      <point x="190" y="-133"/>
      <point x="238" y="-143"/>
      <point x="305" y="-143" type="curve"/>
      <point x="334" y="-141" type="line"/>
      <point x="335" y="-136"/>
      <point x="335" y="-133"/>
    </contour>
  </outline>
</glyph>
<glyph name="bar" format="1">
  <advance width="132"/>
  <unicode hex="007C"/>
  <outline>
    <contour>
      <point x="34" y="-141" type="line"/>
      <point x="97" y="-141" type="line"/>
      <point x="97" y="725" type="line"/>
      <point x="34" y="725" type="line"/>
    </contour>
  </outline>
</glyph>
<glyph name="braceright" format="1">
  <advance width="375"/>
  <unicode hex="007D"/>
  <outline>
    <contour>
      <point x="35" y="-124" type="curve" smooth="yes"/>
      <point x="35" y="-118"/>
      <point x="35" y="-112"/>
      <point x="36" y="-108" type="curve" smooth="yes"/>
      <point x="143" y="-107"/>
      <point x="188" y="-88"/>
      <point x="180" y="-13" type="curve"/>
      <point x="180" y="189" type="line" smooth="yes"/>
      <point x="180" y="225"/>
      <point x="204" y="258"/>
      <point x="252" y="289" type="curve"/>
      <point x="204" y="326"/>
      <point x="180" y="362"/>
      <point x="180" y="388" type="curve" smooth="yes"/>
      <point x="180" y="590" type="line" smooth="yes"/>
      <point x="180" y="631"/>
      <point x="169" y="657"/>
      <point x="150" y="668" type="curve" smooth="yes"/>
      <point x="132" y="682"/>
      <point x="95" y="689"/>
      <point x="37" y="689" type="curve"/>
      <point x="37" y="698" type="line" smooth="yes"/>
      <point x="37" y="707"/>
      <point x="37" y="717"/>
      <point x="39" y="727" type="curve"/>
      <point x="191" y="727"/>
      <point x="250" y="687"/>
      <point x="250" y="590" type="curve" smooth="yes"/>
      <point x="250" y="388" type="line" smooth="yes"/>
      <point x="250" y="369"/>
      <point x="256" y="351"/>
      <point x="271" y="332" type="curve" smooth="yes"/>
      <point x="287" y="311"/>
      <point x="308" y="299"/>
      <point x="332" y="289" type="curve"/>
      <point x="334" y="289" type="line"/>
      <point x="277" y="252"/>
      <point x="250" y="217"/>
      <point x="250" y="189" type="curve" smooth="yes"/>
      <point x="250" y="-13" type="line" smooth="yes"/>
      <point x="250" y="-59"/>
      <point x="236" y="-90"/>
      <point x="207" y="-110" type="curve" smooth="yes"/>
      <point x="180" y="-133"/>
      <point x="132" y="-143"/>
      <point x="65" y="-143" type="curve"/>
      <point x="36" y="-141" type="line"/>
      <point x="35" y="-136"/>
      <point x="35" y="-133"/>
    </contour>
  </outline>
</glyph>
<glyph name="guillemotleft" format="1">
  <advance width="363"/>
  <unicode hex="00AB"/>
  <outline>
    <contour>
      <point x="313" y="33" type="line"/>
      <point x="290" y="60"/>
      <point x="274" y="82"/>
      <point x="266" y="100" type="curve" smooth="yes"/>
      <point x="255" y="122"/>
      <point x="250" y="149"/>
      <point x="250" y="182" type="curve" smooth="yes"/>
      <point x="250" y="244"/>
      <point x="271" y="294"/>
      <point x="313" y="332" type="curve"/>
      <point x="276" y="370" type="line"/>
      <point x="209" y="321"/>
      <point x="175" y="260"/>
      <point x="175" y="187" type="curve" smooth="yes"/>
      <point x="175" y="114"/>
      <point x="208" y="51"/>
      <point x="274" y="-2" type="curve"/>
    </contour>
    <contour>
      <point x="167" y="33" type="line"/>
      <point x="143" y="60"/>
      <point x="127" y="82"/>
      <point x="119" y="100" type="curve" smooth="yes"/>
      <point x="108" y="122"/>
      <point x="103" y="149"/>
      <point x="103" y="182" type="curve" smooth="yes"/>
      <point x="103" y="244"/>
      <point x="124" y="294"/>
      <point x="167" y="332" type="curve"/>
      <point x="129" y="370" type="line"/>
      <point x="62" y="321"/>
      <point x="29" y="260"/>
      <point x="29" y="187" type="curve" smooth="yes"/>
      <point x="29" y="114"/>
      <point x="62" y="51"/>
      <point x="127" y="-2" type="curve"/>
    </contour>
  </outline>
</glyph>
<glyph name="guillemotright" format="1">
  <advance width="407"/>
  <unicode hex="00BB"/>
  <outline>
    <contour>
      <point x="374" y="187" type="curve" smooth="yes"/>
      <point x="374" y="260"/>
      <point x="341" y="321"/>
      <point x="275" y="370" type="curve"/>
      <point x="237" y="332" type="line"/>
      <point x="279" y="294"/>
      <point x="300" y="244"/>
      <point x="300" y="182" type="curve" smooth="yes"/>
      <point x="300" y="149"/>
      <point x="295" y="122"/>
      <point x="285" y="100" type="curve" smooth="yes"/>
      <point x="276" y="82"/>
      <point x="260" y="60"/>
      <point x="237" y="33" type="curve"/>
      <point x="277" y="-2" type="line"/>
      <point x="342" y="51"/>
      <point x="374" y="114"/>
    </contour>
    <contour>
      <point x="229" y="187" type="curve" smooth="yes"/>
      <point x="229" y="260"/>
      <point x="195" y="321"/>
      <point x="128" y="370" type="curve"/>
      <point x="90" y="332" type="line"/>
      <point x="133" y="294"/>
      <point x="154" y="244"/>
      <point x="154" y="182" type="curve" smooth="yes"/>
      <point x="154" y="149"/>
      <point x="149" y="122"/>
      <point x="138" y="100" type="curve" smooth="yes"/>
      <point x="130" y="82"/>
      <point x="114" y="60"/>
      <point x="90" y="33" type="curve"/>
      <point x="130" y="-2" type="line"/>
      <point x="196" y="51"/>
      <point x="229" y="114"/>
    </contour>
  </outline>
</glyph>
<glyph name="multiply" format="1">
  <advance width="534"/>
  <unicode hex="00D7"/>
  <outline>
    <contour>
      <point x="464" y="141" type="line"/>
      <point x="331" y="283" type="line"/>
      <point x="464" y="425" type="line"/>
      <point x="400" y="493" type="line"/>
      <point x="267" y="351" type="line"/>
      <point x="135" y="493" type="line"/>
      <point x="70" y="425" type="line"/>
      <point x="203" y="283" type="line"/>
      <point x="70" y="141" type="line"/>
      <point x="135" y="73" type="line"/>
      <point x="267" y="215" type="line"/>
      <point x="400" y="73" type="line"/>
    </contour>
  </outline>
</glyph>
<glyph name="divide" format="1">
  <advance width="662"/>
  <unicode hex="00F7"/>
  <outline>
    <contour>
      <point x="387" y="396" type="line"/>
      <point x="387" y="520" type="line"/>
      <point x="275" y="520" type="line"/>
      <point x="275" y="396" type="line"/>
    </contour>
    <contour>
      <point x="592" y="237" type="line"/>
      <point x="592" y="340" type="line"/>
      <point x="70" y="340" type="line"/>
      <point x="70" y="237" type="line"/>
    </contour>
    <contour>
      <point x="386" y="57" type="line"/>
      <point x="386" y="181" type="line"/>
      <point x="275" y="181" type="line"/>
      <point x="275" y="57" type="line"/>
    </contour>
  </outline>
</glyph>
<glyph name="commaarabic" format="1">
  <advance width="208"/>
  <unicode hex="060C"/>
  <outline>
    <contour>
      <point x="148" y="0" type="line"/>
      <point x="148" y="126" type="line"/>
      <point x="90" y="126" type="line"/>
      <point x="90" y="172"/>
      <point x="107" y="197"/>
      <point x="140" y="201" type="curve"/>
      <point x="140" y="254" type="line"/>
      <point x="103" y="246"/>
      <point x="77" y="236"/>
      <point x="61" y="224" type="curve" smooth="yes"/>
      <point x="37" y="205"/>
      <point x="25" y="177"/>
      <point x="25" y="139" type="curve" smooth="yes"/>
      <point x="25" y="0" type="line"/>
    </contour>
  </outline>
</glyph>
<glyph name="semicolonarabic" format="1">
  <advance width="208"/>
  <unicode hex="061B"/>
  <outline>
    <contour>
      <point x="147" y="0" type="line"/>
      <point x="147" y="126" type="line"/>
      <point x="25" y="126" type="line"/>
      <point x="25" y="0" type="line"/>
    </contour>
    <contour>
      <point x="148" y="221" type="line"/>
      <point x="148" y="348" type="line"/>
      <point x="90" y="348" type="line"/>
      <point x="90" y="394"/>
      <point x="107" y="419"/>
      <point x="140" y="422" type="curve"/>
      <point x="140" y="476" type="line"/>
      <point x="103" y="468"/>
      <point x="77" y="458"/>
      <point x="61" y="445" type="curve" smooth="yes"/>
      <point x="37" y="427"/>
      <point x="25" y="399"/>
      <point x="25" y="361" type="curve" smooth="yes"/>
      <point x="25" y="221" type="line"/>
    </contour>
  </outline>
</glyph>
<glyph name="questionarabic" format="1">
  <advance width="509"/>
  <unicode hex="061F"/>
  <outline>
    <contour>
      <point x="483" y="449" type="line"/>
      <point x="480" y="485"/>
      <point x="475" y="514"/>
      <point x="466" y="535" type="curve" smooth="yes"/>
      <point x="433" y="620"/>
      <point x="363" y="662"/>
      <point x="256" y="662" type="curve" smooth="yes"/>
      <point x="196" y="662"/>
      <point x="146" y="645"/>
      <point x="105" y="612" type="curve" smooth="yes"/>
      <point x="61" y="577"/>
      <point x="39" y="529"/>
      <point x="39" y="469" type="curve" smooth="yes"/>
      <point x="39" y="412"/>
      <point x="62" y="365"/>
      <point x="107" y="328" type="curve" smooth="yes"/>
      <point x="122" y="317"/>
      <point x="134" y="309"/>
      <point x="142" y="303" type="curve" smooth="yes"/>
      <point x="169" y="286"/>
      <point x="185" y="270"/>
      <point x="192" y="257" type="curve" smooth="yes"/>
      <point x="199" y="244"/>
      <point x="203" y="223"/>
      <point x="203" y="194" type="curve" smooth="yes"/>
      <point x="203" y="182"/>
      <point x="203" y="173"/>
      <point x="202" y="168" type="curve"/>
      <point x="311" y="168" type="line"/>
      <point x="311" y="191" type="line" smooth="yes"/>
      <point x="311" y="257"/>
      <point x="302" y="302"/>
      <point x="285" y="327" type="curve" smooth="yes"/>
      <point x="276" y="340"/>
      <point x="260" y="355"/>
      <point x="238" y="371" type="curve" smooth="yes"/>
      <point x="213" y="388"/>
      <point x="196" y="400"/>
      <point x="189" y="409" type="curve" smooth="yes"/>
      <point x="174" y="426"/>
      <point x="166" y="446"/>
      <point x="166" y="469" type="curve" smooth="yes"/>
      <point x="166" y="520"/>
      <point x="212" y="557"/>
      <point x="263" y="557" type="curve" smooth="yes"/>
      <point x="331" y="557"/>
      <point x="372" y="507"/>
      <point x="372" y="436" type="curve"/>
    </contour>
    <contour>
      <point x="317" y="0" type="line"/>
      <point x="317" y="126" type="line"/>
      <point x="195" y="126" type="line"/>
      <point x="195" y="0" type="line"/>
    </contour>
  </outline>
</glyph>
<glyph name="hamzaarabic" format="1">
  <advance width="519"/>
  <unicode hex="0621"/>
  <unicode hex="FE80"/>
  <outline>
    <contour>
      <point x="486" y="0" type="line"/>
      <point x="486" y="114" type="line"/>
      <point x="272" y="114" type="line"/>
      <point x="255" y="133"/>
      <point x="247" y="158"/>
      <point x="247" y="190" type="curve" smooth="yes"/>
      <point x="247" y="217"/>
      <point x="253" y="239"/>
      <point x="265" y="256" type="curve" smooth="yes"/>
      <point x="279" y="277"/>
      <point x="299" y="287"/>
      <point x="324" y="287" type="curve" smooth="yes"/>
      <point x="360" y="287"/>
      <point x="384" y="269"/>
      <point x="395" y="233" type="curve"/>
      <point x="475" y="288" type="line"/>
      <point x="447" y="352"/>
      <point x="388" y="390"/>
      <point x="319" y="390" type="curve" smooth="yes"/>
      <point x="266" y="390"/>
      <point x="222" y="371"/>
      <point x="187" y="334" type="curve" smooth="yes"/>
      <point x="153" y="297"/>
      <point x="136" y="251"/>
      <point x="136" y="198" type="curve" smooth="yes"/>
      <point x="136" y="168"/>
      <point x="142" y="140"/>
      <point x="153" y="114" type="curve"/>
      <point x="62" y="114" type="line"/>
      <point x="62" y="0" type="line"/>
    </contour>
  </outline>
</glyph>
<glyph name="alefmaddaabovearabic" format="1">
  <advance width="214"/>
  <unicode hex="0622"/>
  <unicode hex="FE81"/>
  <outline>
    <contour>
      <point x="182" y="0" type="line"/>
      <point x="182" y="646" type="line"/>
      <point x="71" y="646" type="line"/>
      <point x="71" y="0" type="line"/>
    </contour>
    <contour>
      <point x="226" y="731" type="curve"/>
      <point x="217" y="766" type="line"/>
      <point x="202" y="747"/>
      <point x="186" y="738"/>
      <point x="171" y="738" type="curve" smooth="yes"/>
      <point x="160" y="738"/>
      <point x="143" y="746"/>
      <point x="118" y="763" type="curve" smooth="yes"/>
      <point x="93" y="780"/>
      <point x="75" y="788"/>
      <point x="64" y="788" type="curve" smooth="yes"/>
      <point x="46" y="788"/>
      <point x="29" y="774"/>
      <point x="13" y="746" type="curve"/>
      <point x="22" y="712" type="line"/>
      <point x="35" y="730"/>
      <point x="49" y="739"/>
      <point x="64" y="739" type="curve" smooth="yes"/>
      <point x="79" y="739"/>
      <point x="99" y="731"/>
      <point x="122" y="714" type="curve" smooth="yes"/>
      <point x="145" y="697"/>
      <point x="162" y="689"/>
      <point x="172" y="689" type="curve" smooth="yes"/>
      <point x="190" y="689"/>
      <point x="208" y="703"/>
    </contour>
  </outline>
</glyph>
<glyph name="alefhamzaabovearabic" format="1">
  <advance width="214"/>
  <unicode hex="0623"/>
  <unicode hex="FE83"/>
  <outline>
    <contour>
      <point x="182" y="0" type="line"/>
      <point x="182" y="646" type="line"/>
      <point x="71" y="646" type="line"/>
      <point x="71" y="0" type="line"/>
    </contour>
    <contour>
      <point x="210" y="697" type="line"/>
      <point x="210" y="743" type="line"/>
      <point x="129" y="743" type="line"/>
      <point x="117" y="750"/>
      <point x="111" y="763"/>
      <point x="111" y="780" type="curve" smooth="yes"/>
      <point x="111" y="799"/>
      <point x="124" y="818"/>
      <point x="145" y="818" type="curve" smooth="yes"/>
      <point x="160" y="818"/>
      <point x="170" y="811"/>
      <point x="173" y="796" type="curve"/>
      <point x="209" y="815" type="line"/>
      <point x="195" y="844"/>
      <point x="174" y="859"/>
      <point x="146" y="859" type="curve" smooth="yes"/>
      <point x="103" y="859"/>
      <point x="68" y="825"/>
      <point x="68" y="778" type="curve" smooth="yes"/>
      <point x="68" y="773"/>
      <point x="71" y="762"/>
      <point x="77" y="743" type="curve"/>
      <point x="37" y="743" type="line"/>
      <point x="37" y="697" type="line"/>
    </contour>
  </outline>
</glyph>
<glyph name="wawhamzaabovearabic" format="1">
  <advance width="525"/>
  <unicode hex="0624"/>
  <unicode hex="FE85"/>
  <outline>
    <contour>
      <point x="493" y="14" type="curve" smooth="yes"/>
      <point x="493" y="225" type="line" smooth="yes"/>
      <point x="493" y="357"/>
      <point x="409" y="455"/>
      <point x="277" y="455" type="curve" smooth="yes"/>
      <point x="151" y="455"/>
      <point x="62" y="363"/>
      <point x="62" y="228" type="curve" smooth="yes"/>
      <point x="62" y="95"/>
      <point x="148" y="0"/>
      <point x="277" y="0" type="curve" smooth="yes"/>
      <point x="328" y="0"/>
      <point x="364" y="17"/>
      <point x="383" y="51" type="curve"/>
      <point x="381" y="-27"/>
      <point x="346" y="-74"/>
      <point x="276" y="-76" type="curve"/>
      <point x="276" y="-165" type="line"/>
      <point x="421" y="-165"/>
      <point x="493" y="-105"/>
    </contour>
    <contour>
      <point x="378" y="223" type="curve" smooth="yes"/>
      <point x="378" y="157"/>
      <point x="337" y="101"/>
      <point x="277" y="101" type="curve" smooth="yes"/>
      <point x="216" y="101"/>
      <point x="174" y="158"/>
      <point x="174" y="228" type="curve" smooth="yes"/>
      <point x="174" y="296"/>
      <point x="213" y="353"/>
      <point x="272" y="353" type="curve" smooth="yes"/>
      <point x="336" y="353"/>
      <point x="378" y="301"/>
    </contour>
    <contour>
      <point x="376" y="511" type="line"/>
      <point x="376" y="574" type="line"/>
      <point x="280" y="574" type="line"/>
      <point x="268" y="579"/>
      <point x="262" y="591"/>
      <point x="262" y="609" type="curve" smooth="yes"/>
      <point x="262" y="634"/>
      <point x="272" y="647"/>
      <point x="291" y="647" type="curve" smooth="yes"/>
      <point x="304" y="647"/>
      <point x="313" y="638"/>
      <point x="319" y="621" type="curve"/>
      <point x="375" y="647" type="line"/>
      <point x="358" y="686"/>
      <point x="330" y="706"/>
      <point x="291" y="706" type="curve" smooth="yes"/>
      <point x="238" y="706"/>
      <point x="197" y="663"/>
      <point x="197" y="607" type="curve" smooth="yes"/>
      <point x="197" y="597"/>
      <point x="199" y="586"/>
      <point x="202" y="574" type="curve"/>
      <point x="154" y="574" type="line"/>
      <point x="154" y="511" type="line"/>
    </contour>
  </outline>
</glyph>
<glyph name="alefhamzabelowarabic" format="1">
  <advance width="214"/>
  <unicode hex="0625"/>
  <unicode hex="FE87"/>
  <outline>
    <contour>
      <point x="182" y="0" type="line"/>
      <point x="182" y="646" type="line"/>
      <point x="71" y="646" type="line"/>
      <point x="71" y="0" type="line"/>
    </contour>
    <contour>
      <point x="214" y="-205" type="line"/>
      <point x="214" y="-159" type="line"/>
      <point x="133" y="-159" type="line"/>
      <point x="121" y="-152"/>
      <point x="115" y="-139"/>
      <point x="115" y="-121" type="curve" smooth="yes"/>
      <point x="115" y="-101"/>
      <point x="129" y="-82"/>
      <point x="149" y="-82" type="curve" smooth="yes"/>
      <point x="164" y="-82"/>
      <point x="174" y="-89"/>
      <point x="177" y="-104" type="curve"/>
      <point x="213" y="-87" type="line"/>
      <point x="199" y="-56"/>
      <point x="178" y="-41"/>
      <point x="150" y="-41" type="curve" smooth="yes"/>
      <point x="107" y="-41"/>
      <point x="72" y="-77"/>
      <point x="72" y="-124" type="curve" smooth="yes"/>
      <point x="72" y="-128"/>
      <point x="75" y="-140"/>
      <point x="81" y="-159" type="curve"/>
      <point x="41" y="-159" type="line"/>
      <point x="41" y="-205" type="line"/>
    </contour>
  </outline>
</glyph>
<glyph name="yehhamzaabovearabic" format="1">
  <advance width="759"/>
  <unicode hex="0626"/>
  <unicode hex="FE89"/>
  <outline>
    <contour>
      <point x="727" y="176" type="curve" smooth="yes"/>
      <point x="727" y="283" type="line"/>
      <point x="480" y="283" type="line"/>
      <point x="499" y="328"/>
      <point x="527" y="360"/>
      <point x="562" y="377" type="curve" smooth="yes"/>
      <point x="591" y="391"/>
      <point x="633" y="398"/>
      <point x="688" y="398" type="curve"/>
      <point x="688" y="502" type="line"/>
      <point x="473" y="502"/>
      <point x="351" y="386"/>
      <point x="351" y="174" type="curve"/>
      <point x="615" y="174" type="line"/>
      <point x="603" y="19"/>
      <point x="525" y="-59"/>
      <point x="380" y="-59" type="curve" smooth="yes"/>
      <point x="304" y="-59"/>
      <point x="245" y="-36"/>
      <point x="204" y="11" type="curve" smooth="yes"/>
      <point x="164" y="55"/>
      <point x="144" y="114"/>
      <point x="144" y="188" type="curve" smooth="yes"/>
      <point x="144" y="287" type="line"/>
      <point x="32" y="287" type="line"/>
      <point x="32" y="176" type="line" smooth="yes"/>
      <point x="32" y="79"/>
      <point x="65" y="-3"/>
      <point x="131" y="-68" type="curve" smooth="yes"/>
      <point x="197" y="-133"/>
      <point x="279" y="-166"/>
      <point x="376" y="-166" type="curve" smooth="yes"/>
      <point x="383" y="-166" type="line" smooth="yes"/>
      <point x="480" y="-166"/>
      <point x="561" y="-133"/>
      <point x="627" y="-68" type="curve" smooth="yes"/>
      <point x="694" y="-3"/>
      <point x="727" y="79"/>
    </contour>
    <contour>
      <point x="282" y="357" type="line"/>
      <point x="282" y="424" type="line"/>
      <point x="156" y="424" type="line"/>
      <point x="147" y="435"/>
      <point x="142" y="449"/>
      <point x="142" y="468" type="curve" smooth="yes"/>
      <point x="142" y="507"/>
      <point x="157" y="526"/>
      <point x="187" y="526" type="curve" smooth="yes"/>
      <point x="208" y="526"/>
      <point x="222" y="515"/>
      <point x="229" y="494" type="curve"/>
      <point x="276" y="526" type="line"/>
      <point x="259" y="565"/>
      <point x="228" y="585"/>
      <point x="183" y="585" type="curve" smooth="yes"/>
      <point x="122" y="585"/>
      <point x="77" y="536"/>
      <point x="77" y="473" type="curve" smooth="yes"/>
      <point x="77" y="456"/>
      <point x="80" y="439"/>
      <point x="87" y="424" type="curve"/>
      <point x="33" y="424" type="line"/>
      <point x="33" y="357" type="line"/>
    </contour>
  </outline>
</glyph>
<glyph name="alefarabic" format="1">
  <advance width="214"/>
  <unicode hex="0627"/>
  <unicode hex="FE8D"/>
  <outline>
    <contour>
      <point x="182" y="0" type="line"/>
      <point x="182" y="646" type="line"/>
      <point x="71" y="646" type="line"/>
      <point x="71" y="0" type="line"/>
    </contour>
  </outline>
</glyph>
<glyph name="tehmarbutaarabic" format="1">
  <advance width="531"/>
  <unicode hex="0629"/>
  <unicode hex="FE93"/>
  <outline>
    <contour>
      <point x="506" y="242" type="curve" smooth="yes"/>
      <point x="506" y="386"/>
      <point x="407" y="489"/>
      <point x="270" y="489" type="curve" smooth="yes"/>
      <point x="133" y="489"/>
      <point x="32" y="389"/>
      <point x="32" y="246" type="curve" smooth="yes"/>
      <point x="32" y="106"/>
      <point x="130" y="0"/>
      <point x="270" y="0" type="curve" smooth="yes"/>
      <point x="412" y="0"/>
      <point x="506" y="105"/>
    </contour>
    <contour>
      <point x="391" y="242" type="curve" smooth="yes"/>
      <point x="391" y="161"/>
      <point x="345" y="101"/>
      <point x="273" y="101" type="curve" smooth="yes"/>
      <point x="201" y="101"/>
      <point x="148" y="164"/>
      <point x="148" y="247" type="curve" smooth="yes"/>
      <point x="148" y="328"/>
      <point x="192" y="389"/>
      <point x="266" y="389" type="curve" smooth="yes"/>
      <point x="342" y="389"/>
      <point x="391" y="326"/>
    </contour>
    <contour>
      <point x="228" y="581" type="line"/>
      <point x="228" y="692" type="line"/>
      <point x="118" y="692" type="line"/>
      <point x="118" y="581" type="line"/>
    </contour>
    <contour>
      <point x="418" y="581" type="line"/>
      <point x="418" y="692" type="line"/>
      <point x="308" y="692" type="line"/>
      <point x="308" y="581" type="line"/>
    </contour>
  </outline>
</glyph>
<glyph name="theharabic" format="1">
  <advance width="901"/>
  <unicode hex="062B"/>
  <unicode hex="FE99"/>
  <outline>
    <contour>
      <point x="868" y="454" type="line"/>
      <point x="758" y="454" type="line"/>
      <point x="758" y="237" type="line" smooth="yes"/>
      <point x="758" y="186"/>
      <point x="744" y="151"/>
      <point x="716" y="133" type="curve" smooth="yes"/>
      <point x="697" y="120"/>
      <point x="662" y="114"/>
      <point x="611" y="114" type="curve" smooth="yes"/>
      <point x="337" y="114" type="line" smooth="yes"/>
      <point x="276" y="114"/>
      <point x="230" y="125"/>
      <point x="200" y="146" type="curve" smooth="yes"/>
      <point x="162" y="172"/>
      <point x="143" y="218"/>
      <point x="143" y="283" type="curve" smooth="yes"/>
      <point x="143" y="454" type="line"/>
      <point x="32" y="454" type="line"/>
      <point x="32" y="283" type="line" smooth="yes"/>
      <point x="32" y="94"/>
      <point x="138" y="0"/>
      <point x="350" y="0" type="curve" smooth="yes"/>
      <point x="713" y="0" type="line" smooth="yes"/>
      <point x="812" y="0"/>
      <point x="868" y="60"/>
      <point x="868" y="160" type="curve" smooth="yes"/>
    </contour>
    <contour>
      <point x="505" y="612" type="line"/>
      <point x="505" y="724" type="line"/>
      <point x="396" y="724" type="line"/>
      <point x="396" y="612" type="line"/>
    </contour>
    <contour>
      <point x="598" y="455" type="line"/>
      <point x="598" y="566" type="line"/>
      <point x="489" y="566" type="line"/>
      <point x="489" y="455" type="line"/>
    </contour>
    <contour>
      <point x="408" y="455" type="line"/>
      <point x="408" y="566" type="line"/>
      <point x="299" y="566" type="line"/>
      <point x="299" y="455" type="line"/>
    </contour>
  </outline>
</glyph>
<glyph name="dalarabic" format="1">
  <advance width="569"/>
  <unicode hex="062F"/>
  <unicode hex="FEA9"/>
  <outline>
    <contour>
      <point x="537" y="0" type="line"/>
      <point x="537" y="114" type="line" smooth="yes"/>
      <point x="536" y="285"/>
      <point x="469" y="393"/>
      <point x="335" y="438" type="curve" smooth="yes"/>
      <point x="309" y="447"/>
      <point x="289" y="451"/>
      <point x="275" y="452" type="curve" smooth="yes"/>
      <point x="261" y="453"/>
      <point x="226" y="454"/>
      <point x="171" y="454" type="curve"/>
      <point x="171" y="352" type="line"/>
      <point x="207" y="352"/>
      <point x="241" y="350"/>
      <point x="272" y="343" type="curve" smooth="yes"/>
      <point x="373" y="321"/>
      <point x="424" y="245"/>
      <point x="424" y="114" type="curve"/>
      <point x="62" y="114" type="line"/>
      <point x="62" y="0" type="line"/>
    </contour>
  </outline>
</glyph>
<glyph name="zainarabic" format="1">
  <advance width="325"/>
  <unicode hex="0632"/>
  <unicode hex="FEAF"/>
  <outline>
    <contour>
      <point x="292" y="546" type="line"/>
      <point x="292" y="657" type="line"/>
      <point x="182" y="657" type="line"/>
      <point x="182" y="546" type="line"/>
    </contour>
    <contour>
      <point x="293" y="454" type="line"/>
      <point x="181" y="454" type="line"/>
      <point x="181" y="72" type="line" smooth="yes"/>
      <point x="181" y="-24"/>
      <point x="135" y="-70"/>
      <point x="42" y="-70" type="curve"/>
      <point x="42" y="-166" type="line"/>
      <point x="214" y="-166"/>
      <point x="293" y="-91"/>
      <point x="293" y="89" type="curve" smooth="yes"/>
    </contour>
  </outline>
</glyph>
<glyph name="sheenarabic" format="1">
  <advance width="1273"/>
  <unicode hex="0634"/>
  <unicode hex="FEB5"/>
  <outline>
    <contour>
      <point x="1231" y="238" type="curve" smooth="yes"/>
      <point x="1231" y="454" type="line"/>
      <point x="1118" y="454" type="line"/>
      <point x="1118" y="224" type="line" smooth="yes"/>
      <point x="1118" y="151"/>
      <point x="1090" y="114"/>
      <point x="1033" y="114" type="curve" smooth="yes"/>
      <point x="924" y="114" type="line"/>
      <point x="939" y="130"/>
      <point x="947" y="171"/>
      <point x="947" y="236" type="curve" smooth="yes"/>
      <point x="947" y="454" type="line"/>
      <point x="834" y="454" type="line"/>
      <point x="834" y="225" type="line" smooth="yes"/>
      <point x="834" y="151"/>
      <point x="806" y="114"/>
      <point x="749" y="114" type="curve" smooth="yes"/>
      <point x="659" y="114" type="line"/>
      <point x="662" y="134"/>
      <point x="664" y="155"/>
      <point x="664" y="176" type="curve" smooth="yes"/>
      <point x="664" y="454" type="line"/>
      <point x="551" y="454" type="line"/>
      <point x="551" y="189" type="line" smooth="yes"/>
      <point x="551" y="124"/>
      <point x="535" y="68"/>
      <point x="502" y="21" type="curve" smooth="yes"/>
      <point x="463" y="-32"/>
      <point x="412" y="-59"/>
      <point x="349" y="-59" type="curve" smooth="yes"/>
      <point x="285" y="-59"/>
      <point x="234" y="-32"/>
      <point x="195" y="21" type="curve" smooth="yes"/>
      <point x="162" y="68"/>
      <point x="145" y="124"/>
      <point x="145" y="189" type="curve" smooth="yes"/>
      <point x="145" y="454" type="line"/>
      <point x="32" y="454" type="line"/>
      <point x="32" y="176" type="line" smooth="yes"/>
      <point x="32" y="79"/>
      <point x="64" y="-2"/>
      <point x="127" y="-68" type="curve" smooth="yes"/>
      <point x="188" y="-133"/>
      <point x="262" y="-166"/>
      <point x="349" y="-166" type="curve" smooth="yes"/>
      <point x="437" y="-166"/>
      <point x="511" y="-132"/>
      <point x="572" y="-64" type="curve" smooth="yes"/>
      <point x="591" y="-44"/>
      <point x="606" y="-23"/>
      <point x="619" y="0" type="curve"/>
      <point x="1037" y="0" type="line" smooth="yes"/>
      <point x="1088" y="0"/>
      <point x="1131" y="18"/>
      <point x="1166" y="53" type="curve" smooth="yes"/>
      <point x="1209" y="96"/>
      <point x="1231" y="157"/>
    </contour>
    <contour>
      <point x="945" y="703" type="line"/>
      <point x="945" y="815" type="line"/>
      <point x="835" y="815" type="line"/>
      <point x="835" y="703" type="line"/>
    </contour>
    <contour>
      <point x="1038" y="546" type="line"/>
      <point x="1038" y="657" type="line"/>
      <point x="929" y="657" type="line"/>
      <point x="929" y="546" type="line"/>
    </contour>
    <contour>
      <point x="849" y="546" type="line"/>
      <point x="849" y="657" type="line"/>
      <point x="740" y="657" type="line"/>
      <point x="740" y="546" type="line"/>
    </contour>
  </outline>
</glyph>
<glyph name="dadarabic" format="1">
  <advance width="1269"/>
  <unicode hex="0636"/>
  <unicode hex="FEBD"/>
  <outline>
    <contour>
      <point x="1224" y="0" type="line"/>
      <point x="1227" y="37"/>
      <point x="1229" y="71"/>
      <point x="1229" y="104" type="curve" smooth="yes"/>
      <point x="1229" y="338"/>
      <point x="1143" y="456"/>
      <point x="971" y="456" type="curve" smooth="yes"/>
      <point x="863" y="456"/>
      <point x="753" y="388"/>
      <point x="664" y="267" type="curve"/>
      <point x="664" y="454" type="line"/>
      <point x="551" y="454" type="line"/>
      <point x="551" y="189" type="line" smooth="yes"/>
      <point x="551" y="48"/>
      <point x="467" y="-59"/>
      <point x="349" y="-59" type="curve" smooth="yes"/>
      <point x="230" y="-59"/>
      <point x="145" y="49"/>
      <point x="145" y="189" type="curve" smooth="yes"/>
      <point x="145" y="454" type="line"/>
      <point x="32" y="454" type="line"/>
      <point x="32" y="176" type="line" smooth="yes"/>
      <point x="32" y="-12"/>
      <point x="175" y="-166"/>
      <point x="349" y="-166" type="curve" smooth="yes"/>
      <point x="459" y="-166"/>
      <point x="558" y="-109"/>
      <point x="619" y="0" type="curve"/>
    </contour>
    <contour>
      <point x="1113" y="114" type="line"/>
      <point x="667" y="114" type="line"/>
      <point x="729" y="252"/>
      <point x="848" y="356"/>
      <point x="960" y="356" type="curve" smooth="yes"/>
      <point x="1055" y="356"/>
      <point x="1115" y="275"/>
      <point x="1115" y="146" type="curve"/>
    </contour>
    <contour>
      <point x="1012" y="546" type="line"/>
      <point x="1012" y="657" type="line"/>
      <point x="902" y="657" type="line"/>
      <point x="902" y="546" type="line"/>
    </contour>
  </outline>
</glyph>
<glyph name="taharabic" format="1">
  <advance width="811"/>
  <unicode hex="0637"/>
  <unicode hex="FEC1"/>
  <outline>
    <contour>
      <point x="32" y="114" type="line"/>
      <point x="32" y="0" type="line"/>
      <point x="774" y="0" type="line"/>
      <point x="777" y="37"/>
      <point x="779" y="71"/>
      <point x="779" y="104" type="curve" smooth="yes"/>
      <point x="779" y="338"/>
      <point x="693" y="456"/>
      <point x="520" y="456" type="curve" smooth="yes"/>
      <point x="414" y="456"/>
      <point x="318" y="402"/>
      <point x="226" y="283" type="curve"/>
      <point x="239" y="645" type="line"/>
      <point x="128" y="645" type="line"/>
      <point x="128" y="114" type="line"/>
    </contour>
    <contour>
      <point x="217" y="114" type="line"/>
      <point x="279" y="252"/>
      <point x="398" y="356"/>
      <point x="510" y="356" type="curve" smooth="yes"/>
      <point x="606" y="356"/>
      <point x="665" y="273"/>
      <point x="665" y="146" type="curve"/>
      <point x="663" y="114" type="line"/>
    </contour>
  </outline>
</glyph>
<glyph name="ainarabic" format="1">
  <advance width="591"/>
  <unicode hex="0639"/>
  <unicode hex="FEC9"/>
  <outline>
    <contour>
      <point x="559" y="201" type="line"/>
      <point x="559" y="312" type="line"/>
      <point x="355" y="312" type="line"/>
      <point x="318" y="325"/>
      <point x="286" y="382"/>
      <point x="286" y="435" type="curve" smooth="yes"/>
      <point x="286" y="504"/>
      <point x="325" y="553"/>
      <point x="387" y="553" type="curve" smooth="yes"/>
      <point x="425" y="553"/>
      <point x="452" y="535"/>
      <point x="469" y="499" type="curve"/>
      <point x="553" y="539" type="line"/>
      <point x="519" y="610"/>
      <point x="464" y="645"/>
      <point x="389" y="645" type="curve" smooth="yes"/>
      <point x="272" y="645"/>
      <point x="183" y="558"/>
      <point x="183" y="433" type="curve" smooth="yes"/>
      <point x="183" y="394"/>
      <point x="195" y="352"/>
      <point x="220" y="308" type="curve"/>
      <point x="106" y="289"/>
      <point x="32" y="197"/>
      <point x="32" y="73" type="curve" smooth="yes"/>
      <point x="32" y="-72"/>
      <point x="145" y="-166"/>
      <point x="303" y="-166" type="curve" smooth="yes"/>
      <point x="474" y="-166" type="line"/>
      <point x="474" y="-55" type="line"/>
      <point x="295" y="-55" type="line" smooth="yes"/>
      <point x="199" y="-55"/>
      <point x="139" y="-8"/>
      <point x="139" y="70" type="curve" smooth="yes"/>
      <point x="139" y="157"/>
      <point x="191" y="201"/>
      <point x="295" y="201" type="curve" smooth="yes"/>
    </contour>
  </outline>
</glyph>
<glyph name="tatweelarabic" format="1">
  <advance width="198"/>
  <unicode hex="0640"/>
  <outline>
    <contour>
      <point x="206" y="0" type="line"/>
      <point x="206" y="114" type="line"/>
      <point x="-15" y="114" type="line"/>
      <point x="-15" y="0" type="line"/>
    </contour>
  </outline>
</glyph>
<glyph name="feharabic" format="1">
  <advance width="951"/>
  <unicode hex="0641"/>
  <unicode hex="FED1"/>
  <outline>
    <contour>
      <point x="750" y="546" type="line"/>
      <point x="750" y="657" type="line"/>
      <point x="640" y="657" type="line"/>
      <point x="640" y="546" type="line"/>
    </contour>
    <contour>
      <point x="918" y="230" type="curve" smooth="yes"/>
      <point x="918" y="361"/>
      <point x="827" y="464"/>
      <point x="694" y="464" type="curve" smooth="yes"/>
      <point x="561" y="464"/>
      <point x="468" y="367"/>
      <point x="468" y="233" type="curve" smooth="yes"/>
      <point x="468" y="190"/>
      <point x="479" y="151"/>
      <point x="496" y="113" type="curve"/>
      <point x="496" y="114" type="line"/>
      <point x="337" y="114" type="line" smooth="yes"/>
      <point x="202" y="114"/>
      <point x="143" y="163"/>
      <point x="143" y="283" type="curve" smooth="yes"/>
      <point x="143" y="434" type="line"/>
      <point x="32" y="434" type="line"/>
      <point x="32" y="283" type="line" smooth="yes"/>
      <point x="32" y="98"/>
      <point x="134" y="0"/>
      <point x="339" y="0" type="curve" smooth="yes"/>
      <point x="694" y="0" type="line" smooth="yes"/>
      <point x="828" y="0"/>
      <point x="918" y="98"/>
    </contour>
    <contour>
      <point x="803" y="230" type="curve" smooth="yes"/>
      <point x="803" y="158"/>
      <point x="764" y="103"/>
      <point x="696" y="103" type="curve" smooth="yes"/>
      <point x="629" y="103"/>
      <point x="584" y="161"/>
      <point x="584" y="234" type="curve" smooth="yes"/>
      <point x="584" y="312"/>
      <point x="626" y="362"/>
      <point x="691" y="362" type="curve" smooth="yes"/>
      <point x="757" y="362"/>
      <point x="803" y="306"/>
    </contour>
  </outline>
</glyph>
<glyph name="qafarabic" format="1">
  <advance width="731"/>
  <unicode hex="0642"/>
  <unicode hex="FED5"/>
  <outline>
    <contour>
      <point x="699" y="162" type="curve" smooth="yes"/>
      <point x="699" y="232"/>
      <point x="699" y="270"/>
      <point x="698" y="275" type="curve" smooth="yes"/>
      <point x="698" y="408"/>
      <point x="615" y="486"/>
      <point x="488" y="486" type="curve" smooth="yes"/>
      <point x="361" y="486"/>
      <point x="283" y="404"/>
      <point x="283" y="272" type="curve" smooth="yes"/>
      <point x="283" y="140"/>
      <point x="364" y="58"/>
      <point x="491" y="58" type="curve" smooth="yes"/>
      <point x="527" y="58"/>
      <point x="559" y="67"/>
      <point x="587" y="86" type="curve"/>
      <point x="557" y="-4"/>
      <point x="466" y="-65"/>
      <point x="365" y="-65" type="curve" smooth="yes"/>
      <point x="227" y="-65"/>
      <point x="138" y="29"/>
      <point x="138" y="174" type="curve" smooth="yes"/>
      <point x="138" y="348" type="line"/>
      <point x="32" y="348" type="line"/>
      <point x="32" y="162" type="line" smooth="yes"/>
      <point x="32" y="-23"/>
      <point x="175" y="-166"/>
      <point x="368" y="-166" type="curve" smooth="yes"/>
      <point x="554" y="-166"/>
      <point x="699" y="-22"/>
    </contour>
    <contour>
      <point x="594" y="268" type="curve" smooth="yes"/>
      <point x="594" y="196"/>
      <point x="554" y="143"/>
      <point x="491" y="143" type="curve" smooth="yes"/>
      <point x="427" y="143"/>
      <point x="387" y="198"/>
      <point x="387" y="274" type="curve" smooth="yes"/>
      <point x="387" y="348"/>
      <point x="432" y="405"/>
      <point x="490" y="405" type="curve" smooth="yes"/>
      <point x="549" y="405"/>
      <point x="594" y="350"/>
    </contour>
    <contour>
      <point x="449" y="546" type="line"/>
      <point x="449" y="657" type="line"/>
      <point x="339" y="657" type="line"/>
      <point x="339" y="546" type="line"/>
    </contour>
    <contour>
      <point x="639" y="546" type="line"/>
      <point x="639" y="657" type="line"/>
      <point x="529" y="657" type="line"/>
      <point x="529" y="546" type="line"/>
    </contour>
  </outline>
</glyph>
<glyph name="kafarabic" format="1">
  <advance width="901"/>
  <unicode hex="0643"/>
  <unicode hex="FED9"/>
  <outline>
    <contour>
      <point x="868" y="645" type="line"/>
      <point x="758" y="645" type="line"/>
      <point x="758" y="237" type="line" smooth="yes"/>
      <point x="758" y="186"/>
      <point x="744" y="151"/>
      <point x="716" y="133" type="curve" smooth="yes"/>
      <point x="697" y="120"/>
      <point x="662" y="114"/>
      <point x="611" y="114" type="curve" smooth="yes"/>
      <point x="337" y="114" type="line" smooth="yes"/>
      <point x="276" y="114"/>
      <point x="230" y="125"/>
      <point x="200" y="146" type="curve" smooth="yes"/>
      <point x="162" y="172"/>
      <point x="143" y="218"/>
      <point x="143" y="283" type="curve" smooth="yes"/>
      <point x="143" y="454" type="line"/>
      <point x="32" y="454" type="line"/>
      <point x="32" y="283" type="line" smooth="yes"/>
      <point x="32" y="94"/>
      <point x="138" y="0"/>
      <point x="350" y="0" type="curve" smooth="yes"/>
      <point x="713" y="0" type="line" smooth="yes"/>
      <point x="812" y="0"/>
      <point x="868" y="60"/>
      <point x="868" y="160" type="curve" smooth="yes"/>
    </contour>
    <contour>
      <point x="579" y="389" type="line"/>
      <point x="579" y="456" type="line"/>
      <point x="453" y="456" type="line"/>
      <point x="444" y="467"/>
      <point x="439" y="482"/>
      <point x="439" y="501" type="curve" smooth="yes"/>
      <point x="439" y="539"/>
      <point x="454" y="558"/>
      <point x="484" y="558" type="curve" smooth="yes"/>
      <point x="505" y="558"/>
      <point x="519" y="547"/>
      <point x="526" y="526" type="curve"/>
      <point x="573" y="558" type="line"/>
      <point x="556" y="598"/>
      <point x="525" y="618"/>
      <point x="481" y="618" type="curve" smooth="yes"/>
      <point x="418" y="618"/>
      <point x="373" y="568"/>
      <point x="373" y="505" type="curve" smooth="yes"/>
      <point x="373" y="488"/>
      <point x="377" y="471"/>
      <point x="384" y="456" type="curve"/>
      <point x="330" y="456" type="line"/>
      <point x="330" y="389" type="line"/>
    </contour>
  </outline>
</glyph>
<glyph name="lamarabic" format="1">
  <advance width="696"/>
  <unicode hex="0644"/>
  <unicode hex="FEDD"/>
  <outline>
    <contour>
      <point x="664" y="176" type="curve" smooth="yes"/>
      <point x="664" y="645" type="line"/>
      <point x="551" y="645" type="line"/>
      <point x="551" y="189" type="line" smooth="yes"/>
      <point x="551" y="50"/>
      <point x="467" y="-59"/>
      <point x="349" y="-59" type="curve" smooth="yes"/>
      <point x="227" y="-59"/>
      <point x="145" y="52"/>
      <point x="145" y="189" type="curve" smooth="yes"/>
      <point x="145" y="274" type="line"/>
      <point x="32" y="274" type="line"/>
      <point x="32" y="176" type="line" smooth="yes"/>
      <point x="32" y="-12"/>
      <point x="175" y="-166"/>
      <point x="349" y="-166" type="curve" smooth="yes"/>
      <point x="523" y="-166"/>
      <point x="664" y="-8"/>
    </contour>
  </outline>
</glyph>
<glyph name="meemarabic" format="1">
  <advance width="805"/>
  <unicode hex="0645"/>
  <unicode hex="FEE1"/>
  <outline>
    <contour>
      <point x="771" y="220" type="curve" smooth="yes"/>
      <point x="771" y="352"/>
      <point x="680" y="455"/>
      <point x="547" y="455" type="curve" smooth="yes"/>
      <point x="265" y="455" type="line" smooth="yes"/>
      <point x="117" y="455"/>
      <point x="32" y="349"/>
      <point x="32" y="189" type="curve" smooth="yes"/>
      <point x="32" y="-166" type="line"/>
      <point x="144" y="-166" type="line"/>
      <point x="144" y="166" type="line" smooth="yes"/>
      <point x="144" y="275"/>
      <point x="192" y="341"/>
      <point x="267" y="341" type="curve" smooth="yes"/>
      <point x="349" y="341" type="line"/>
      <point x="330" y="307"/>
      <point x="321" y="268"/>
      <point x="321" y="223" type="curve" smooth="yes"/>
      <point x="321" y="93"/>
      <point x="414" y="-10"/>
      <point x="547" y="-10" type="curve" smooth="yes"/>
      <point x="679" y="-10"/>
      <point x="771" y="89"/>
    </contour>
    <contour>
      <point x="656" y="220" type="curve" smooth="yes"/>
      <point x="656" y="146"/>
      <point x="613" y="93"/>
      <point x="550" y="93" type="curve" smooth="yes"/>
      <point x="483" y="93"/>
      <point x="436" y="151"/>
      <point x="436" y="224" type="curve" smooth="yes"/>
      <point x="436" y="296"/>
      <point x="475" y="352"/>
      <point x="543" y="352" type="curve" smooth="yes"/>
      <point x="612" y="352"/>
      <point x="656" y="295"/>
    </contour>
  </outline>
</glyph>
<glyph name="noonarabic" format="1">
  <advance width="696"/>
  <unicode hex="0646"/>
  <unicode hex="FEE5"/>
  <outline>
    <contour>
      <point x="664" y="176" type="curve" smooth="yes"/>
      <point x="664" y="454" type="line"/>
      <point x="551" y="454" type="line"/>
      <point x="551" y="189" type="line" smooth="yes"/>
      <point x="551" y="124"/>
      <point x="535" y="68"/>
      <point x="502" y="21" type="curve" smooth="yes"/>
      <point x="463" y="-32"/>
      <point x="412" y="-59"/>
      <point x="349" y="-59" type="curve" smooth="yes"/>
      <point x="285" y="-59"/>
      <point x="234" y="-32"/>
      <point x="195" y="21" type="curve" smooth="yes"/>
      <point x="162" y="68"/>
      <point x="145" y="124"/>
      <point x="145" y="189" type="curve" smooth="yes"/>
      <point x="145" y="454" type="line"/>
      <point x="32" y="454" type="line"/>
      <point x="32" y="176" type="line" smooth="yes"/>
      <point x="32" y="79"/>
      <point x="64" y="-2"/>
      <point x="127" y="-68" type="curve" smooth="yes"/>
      <point x="188" y="-133"/>
      <point x="262" y="-166"/>
      <point x="349" y="-166" type="curve" smooth="yes"/>
      <point x="437" y="-166"/>
      <point x="511" y="-132"/>
      <point x="572" y="-64" type="curve" smooth="yes"/>
      <point x="633" y="3"/>
      <point x="664" y="83"/>
    </contour>
    <contour>
      <point x="406" y="546" type="line"/>
      <point x="406" y="657" type="line"/>
      <point x="296" y="657" type="line"/>
      <point x="296" y="546" type="line"/>
    </contour>
  </outline>
</glyph>
<glyph name="wawarabic" format="1">
  <advance width="525"/>
  <unicode hex="0648"/>
  <unicode hex="FEED"/>
  <outline>
    <contour>
      <point x="493" y="14" type="curve" smooth="yes"/>
      <point x="493" y="225" type="line" smooth="yes"/>
      <point x="493" y="357"/>
      <point x="409" y="455"/>
      <point x="277" y="455" type="curve" smooth="yes"/>
      <point x="151" y="455"/>
      <point x="62" y="363"/>
      <point x="62" y="228" type="curve" smooth="yes"/>
      <point x="62" y="95"/>
      <point x="148" y="0"/>
      <point x="277" y="0" type="curve" smooth="yes"/>
      <point x="328" y="0"/>
      <point x="364" y="17"/>
      <point x="383" y="51" type="curve"/>
      <point x="381" y="-27"/>
      <point x="346" y="-74"/>
      <point x="276" y="-76" type="curve"/>
      <point x="276" y="-165" type="line"/>
      <point x="421" y="-165"/>
      <point x="493" y="-105"/>
    </contour>
    <contour>
      <point x="378" y="223" type="curve" smooth="yes"/>
      <point x="378" y="157"/>
      <point x="337" y="101"/>
      <point x="277" y="101" type="curve" smooth="yes"/>
      <point x="216" y="101"/>
      <point x="174" y="158"/>
      <point x="174" y="228" type="curve" smooth="yes"/>
      <point x="174" y="296"/>
      <point x="213" y="353"/>
      <point x="272" y="353" type="curve" smooth="yes"/>
      <point x="336" y="353"/>
      <point x="378" y="301"/>
    </contour>
  </outline>
</glyph>
<glyph name="alefmaksuraarabic" format="1">
  <advance width="759"/>
  <unicode hex="0649"/>
  <unicode hex="FEEF"/>
  <outline>
    <contour>
      <point x="727" y="283" type="line"/>
      <point x="480" y="283" type="line"/>
      <point x="516" y="368"/>
      <point x="568" y="398"/>
      <point x="688" y="398" type="curve"/>
      <point x="688" y="502" type="line"/>
      <point x="473" y="502"/>
      <point x="351" y="386"/>
      <point x="351" y="174" type="curve"/>
      <point x="615" y="174" type="line"/>
      <point x="603" y="19"/>
      <point x="524" y="-59"/>
      <point x="379" y="-59" type="curve" smooth="yes"/>
      <point x="233" y="-59"/>
      <point x="144" y="38"/>
      <point x="144" y="188" type="curve" smooth="yes"/>
      <point x="144" y="287" type="line"/>
      <point x="32" y="287" type="line"/>
      <point x="32" y="176" type="line" smooth="yes"/>
      <point x="32" y="-18"/>
      <point x="183" y="-166"/>
      <point x="376" y="-166" type="curve" smooth="yes"/>
      <point x="383" y="-166" type="line" smooth="yes"/>
      <point x="574" y="-166"/>
      <point x="727" y="-17"/>
      <point x="727" y="176" type="curve" smooth="yes"/>
    </contour>
  </outline>
</glyph>
<glyph name="yeharabic" format="1">
  <advance width="759"/>
  <unicode hex="064A"/>
  <unicode hex="FEF1"/>
  <outline>
    <contour>
      <point x="727" y="176" type="curve" smooth="yes"/>
      <point x="727" y="283" type="line"/>
      <point x="480" y="283" type="line"/>
      <point x="499" y="328"/>
      <point x="527" y="360"/>
      <point x="562" y="377" type="curve" smooth="yes"/>
      <point x="591" y="391"/>
      <point x="633" y="398"/>
      <point x="688" y="398" type="curve"/>
      <point x="688" y="502" type="line"/>
      <point x="473" y="502"/>
      <point x="351" y="386"/>
      <point x="351" y="174" type="curve"/>
      <point x="615" y="174" type="line"/>
      <point x="603" y="19"/>
      <point x="524" y="-59"/>
      <point x="379" y="-59" type="curve" smooth="yes"/>
      <point x="304" y="-59"/>
      <point x="245" y="-36"/>
      <point x="204" y="11" type="curve" smooth="yes"/>
      <point x="164" y="55"/>
      <point x="144" y="114"/>
      <point x="144" y="188" type="curve" smooth="yes"/>
      <point x="144" y="287" type="line"/>
      <point x="32" y="287" type="line"/>
      <point x="32" y="176" type="line" smooth="yes"/>
      <point x="32" y="79"/>
      <point x="65" y="-3"/>
      <point x="131" y="-68" type="curve" smooth="yes"/>
      <point x="197" y="-133"/>
      <point x="279" y="-166"/>
      <point x="376" y="-166" type="curve" smooth="yes"/>
      <point x="383" y="-166" type="line" smooth="yes"/>
      <point x="480" y="-166"/>
      <point x="561" y="-133"/>
      <point x="627" y="-68" type="curve" smooth="yes"/>
      <point x="694" y="-3"/>
      <point x="727" y="79"/>
    </contour>
    <contour>
      <point x="526" y="-387" type="line"/>
      <point x="526" y="-276" type="line"/>
      <point x="416" y="-276" type="line"/>
      <point x="416" y="-387" type="line"/>
    </contour>
    <contour>
      <point x="337" y="-387" type="line"/>
      <point x="337" y="-276" type="line"/>
      <point x="227" y="-276" type="line"/>
      <point x="227" y="-387" type="line"/>
    </contour>
  </outline>
</glyph>
<glyph name="fathatanarabic" format="1">
  <advance width="0"/>
  <unicode hex="064B"/>
  <unicode hex="FE70"/>
  <outline>
    <contour>
      <point x="218" y="804" type="curve"/>
      <point x="63" y="768" type="line" smooth="yes"/>
      <point x="43" y="761"/>
      <point x="30" y="748"/>
      <point x="24" y="730" type="curve"/>
      <point x="34" y="732" type="line" smooth="yes"/>
      <point x="118" y="750"/>
      <point x="163" y="759"/>
      <point x="170" y="761" type="curve" smooth="yes"/>
      <point x="199" y="768"/>
      <point x="215" y="783"/>
    </contour>
    <contour>
      <point x="206" y="742" type="curve"/>
      <point x="51" y="706" type="line" smooth="yes"/>
      <point x="31" y="699"/>
      <point x="18" y="686"/>
      <point x="12" y="668" type="curve"/>
      <point x="103" y="687"/>
      <point x="151" y="697"/>
      <point x="158" y="698" type="curve" smooth="yes"/>
      <point x="187" y="705"/>
      <point x="203" y="720"/>
    </contour>
  </outline>
</glyph>
<glyph name="dammatanarabic" format="1">
  <advance width="0"/>
  <unicode hex="064C"/>
  <unicode hex="FE72"/>
  <outline>
    <contour>
      <point x="214" y="767" type="curve" smooth="yes"/>
      <point x="214" y="794"/>
      <point x="197" y="824"/>
      <point x="161" y="824" type="curve" smooth="yes"/>
      <point x="132" y="824"/>
      <point x="115" y="798"/>
      <point x="115" y="774" type="curve" smooth="yes"/>
      <point x="115" y="753"/>
      <point x="124" y="735"/>
      <point x="143" y="720" type="curve"/>
      <point x="130" y="708"/>
      <point x="94" y="695"/>
      <point x="73" y="695" type="curve"/>
      <point x="84" y="708"/>
      <point x="90" y="724"/>
      <point x="90" y="741" type="curve" smooth="yes"/>
      <point x="90" y="769"/>
      <point x="78" y="785"/>
      <point x="53" y="785" type="curve" smooth="yes"/>
      <point x="32" y="785"/>
      <point x="19" y="775"/>
      <point x="12" y="754" type="curve"/>
      <point x="21" y="761"/>
      <point x="31" y="765"/>
      <point x="40" y="765" type="curve" smooth="yes"/>
      <point x="58" y="765"/>
      <point x="66" y="753"/>
      <point x="66" y="736" type="curve" smooth="yes"/>
      <point x="66" y="715"/>
      <point x="59" y="699"/>
      <point x="45" y="690" type="curve"/>
      <point x="50" y="681"/>
      <point x="55" y="673"/>
      <point x="58" y="668" type="curve"/>
      <point x="166" y="668"/>
      <point x="214" y="730"/>
    </contour>
    <contour>
      <point x="164" y="800" type="curve" smooth="yes"/>
      <point x="177" y="800"/>
      <point x="191" y="788"/>
      <point x="191" y="773" type="curve" smooth="yes"/>
      <point x="191" y="759"/>
      <point x="181" y="746"/>
      <point x="160" y="733" type="curve"/>
      <point x="146" y="742"/>
      <point x="139" y="755"/>
      <point x="139" y="774" type="curve" smooth="yes"/>
      <point x="139" y="791"/>
      <point x="147" y="800"/>
    </contour>
  </outline>
</glyph>
<glyph name="kasratanarabic" format="1">
  <advance width="0"/>
  <unicode hex="064D"/>
  <unicode hex="FE74"/>
  <outline>
    <contour>
      <point x="214" y="-275" type="curve"/>
      <point x="59" y="-311" type="line" smooth="yes"/>
      <point x="40" y="-318"/>
      <point x="27" y="-331"/>
      <point x="20" y="-349" type="curve"/>
      <point x="30" y="-347" type="line" smooth="yes"/>
      <point x="114" y="-329"/>
      <point x="159" y="-320"/>
      <point x="166" y="-318" type="curve" smooth="yes"/>
      <point x="195" y="-311"/>
      <point x="211" y="-296"/>
    </contour>
    <contour>
      <point x="202" y="-337" type="curve"/>
      <point x="47" y="-373" type="line" smooth="yes"/>
      <point x="28" y="-380"/>
      <point x="15" y="-393"/>
      <point x="8" y="-411" type="curve"/>
      <point x="99" y="-392"/>
      <point x="147" y="-382"/>
      <point x="154" y="-381" type="curve" smooth="yes"/>
      <point x="183" y="-374"/>
      <point x="199" y="-359"/>
    </contour>
  </outline>
</glyph>
<glyph name="fathaarabic" format="1">
  <advance width="0"/>
  <unicode hex="064E"/>
  <unicode hex="FE76"/>
  <outline>
    <contour>
      <point x="214" y="739" type="curve"/>
      <point x="59" y="703" type="line" smooth="yes"/>
      <point x="40" y="696"/>
      <point x="27" y="684"/>
      <point x="20" y="666" type="curve"/>
      <point x="111" y="685"/>
      <point x="159" y="695"/>
      <point x="166" y="696" type="curve" smooth="yes"/>
      <point x="195" y="703"/>
      <point x="211" y="718"/>
    </contour>
  </outline>
</glyph>
<glyph name="dammaarabic" format="1">
  <advance width="0"/>
  <unicode hex="064F"/>
  <unicode hex="FE78"/>
  <outline>
    <contour>
      <point x="192" y="768" type="curve" smooth="yes"/>
      <point x="192" y="793"/>
      <point x="175" y="824"/>
      <point x="139" y="824" type="curve" smooth="yes"/>
      <point x="126" y="824"/>
      <point x="115" y="820"/>
      <point x="108" y="812" type="curve" smooth="yes"/>
      <point x="97" y="801"/>
      <point x="92" y="789"/>
      <point x="92" y="775" type="curve" smooth="yes"/>
      <point x="92" y="754"/>
      <point x="101" y="736"/>
      <point x="120" y="721" type="curve"/>
      <point x="113" y="715"/>
      <point x="100" y="709"/>
      <point x="79" y="702" type="curve" smooth="yes"/>
      <point x="59" y="695"/>
      <point x="40" y="692"/>
      <point x="22" y="692" type="curve"/>
      <point x="28" y="682"/>
      <point x="33" y="674"/>
      <point x="36" y="668" type="curve"/>
      <point x="55" y="668"/>
      <point x="76" y="672"/>
      <point x="100" y="679" type="curve" smooth="yes"/>
      <point x="164" y="698"/>
      <point x="192" y="736"/>
    </contour>
    <contour>
      <point x="142" y="800" type="curve" smooth="yes"/>
      <point x="155" y="800"/>
      <point x="169" y="788"/>
      <point x="169" y="775" type="curve" smooth="yes"/>
      <point x="169" y="760"/>
      <point x="159" y="746"/>
      <point x="138" y="735" type="curve"/>
      <point x="124" y="744"/>
      <point x="117" y="757"/>
      <point x="117" y="775" type="curve" smooth="yes"/>
      <point x="117" y="792"/>
      <point x="125" y="800"/>
    </contour>
  </outline>
</glyph>
<glyph name="kasraarabic" format="1">
  <advance width="0"/>
  <unicode hex="0650"/>
  <unicode hex="FE7A"/>
  <outline>
    <contour>
      <point x="203" y="-273" type="curve"/>
      <point x="49" y="-309" type="line" smooth="yes"/>
      <point x="29" y="-316"/>
      <point x="16" y="-328"/>
      <point x="10" y="-347" type="curve"/>
      <point x="101" y="-328"/>
      <point x="149" y="-317"/>
      <point x="156" y="-316" type="curve" smooth="yes"/>
      <point x="185" y="-309"/>
      <point x="200" y="-294"/>
    </contour>
  </outline>
</glyph>
<glyph name="shaddaarabic" format="1">
  <advance width="0"/>
  <unicode hex="0651"/>
  <unicode hex="FE7C"/>
  <outline>
    <contour>
      <point x="219" y="741" type="curve" smooth="yes"/>
      <point x="204" y="818" type="line"/>
      <point x="171" y="812" type="line"/>
      <point x="185" y="743" type="line" smooth="yes"/>
      <point x="186" y="740"/>
      <point x="186" y="738"/>
      <point x="186" y="735" type="curve" smooth="yes"/>
      <point x="186" y="725"/>
      <point x="182" y="720"/>
      <point x="173" y="720" type="curve" smooth="yes"/>
      <point x="156" y="720"/>
      <point x="146" y="731"/>
      <point x="142" y="751" type="curve" smooth="yes"/>
      <point x="131" y="803" type="line"/>
      <point x="98" y="796" type="line"/>
      <point x="109" y="743" type="line" smooth="yes"/>
      <point x="110" y="739"/>
      <point x="111" y="735"/>
      <point x="111" y="731" type="curve" smooth="yes"/>
      <point x="111" y="718"/>
      <point x="100" y="702"/>
      <point x="87" y="702" type="curve" smooth="yes"/>
      <point x="80" y="702"/>
      <point x="75" y="708"/>
      <point x="72" y="719" type="curve" smooth="yes"/>
      <point x="57" y="788" type="line"/>
      <point x="25" y="780" type="line"/>
      <point x="41" y="704" type="line" smooth="yes"/>
      <point x="46" y="679"/>
      <point x="62" y="666"/>
      <point x="84" y="666" type="curve" smooth="yes"/>
      <point x="114" y="666"/>
      <point x="130" y="687"/>
      <point x="132" y="719" type="curve"/>
      <point x="145" y="697"/>
      <point x="159" y="686"/>
      <point x="176" y="686" type="curve" smooth="yes"/>
      <point x="207" y="686"/>
      <point x="222" y="703"/>
      <point x="222" y="722" type="curve" smooth="yes"/>
      <point x="222" y="727"/>
      <point x="221" y="733"/>
    </contour>
  </outline>
</glyph>
<glyph name="sukunarabic" format="1">
  <advance width="0"/>
  <unicode hex="0652"/>
  <unicode hex="FE7E"/>
  <outline>
    <contour>
      <point x="157" y="752" type="curve" smooth="yes"/>
      <point x="149" y="789"/>
      <point x="127" y="808"/>
      <point x="92" y="808" type="curve" smooth="yes"/>
      <point x="46" y="808"/>
      <point x="22" y="781"/>
      <point x="22" y="743" type="curve" smooth="yes"/>
      <point x="22" y="692"/>
      <point x="52" y="666"/>
      <point x="88" y="666" type="curve" smooth="yes"/>
      <point x="135" y="666"/>
      <point x="159" y="694"/>
      <point x="159" y="733" type="curve" smooth="yes"/>
      <point x="159" y="739"/>
      <point x="158" y="745"/>
    </contour>
    <contour>
      <point x="89" y="783" type="curve" smooth="yes"/>
      <point x="113" y="783"/>
      <point x="127" y="755"/>
      <point x="127" y="730" type="curve" smooth="yes"/>
      <point x="127" y="708"/>
      <point x="116" y="692"/>
      <point x="93" y="692" type="curve" smooth="yes"/>
      <point x="67" y="692"/>
      <point x="53" y="718"/>
      <point x="53" y="746" type="curve" smooth="yes"/>
      <point x="53" y="771"/>
      <point x="65" y="783"/>
    </contour>
  </outline>
</glyph>
<glyph name="maddaabove" format="1">
  <advance width="0"/>
  <unicode hex="0653"/>
  <outline>
    <contour>
      <point x="196" y="731" type="curve"/>
      <point x="187" y="766" type="line"/>
      <point x="172" y="747"/>
      <point x="156" y="738"/>
      <point x="141" y="738" type="curve" smooth="yes"/>
      <point x="130" y="738"/>
      <point x="113" y="746"/>
      <point x="88" y="763" type="curve" smooth="yes"/>
      <point x="63" y="780"/>
      <point x="45" y="788"/>
      <point x="34" y="788" type="curve" smooth="yes"/>
      <point x="16" y="788"/>
      <point x="-1" y="774"/>
      <point x="-17" y="746" type="curve"/>
      <point x="-8" y="712" type="line"/>
      <point x="5" y="730"/>
      <point x="19" y="739"/>
      <point x="34" y="739" type="curve" smooth="yes"/>
      <point x="49" y="739"/>
      <point x="69" y="731"/>
      <point x="92" y="714" type="curve" smooth="yes"/>
      <point x="115" y="697"/>
      <point x="132" y="689"/>
      <point x="142" y="689" type="curve" smooth="yes"/>
      <point x="160" y="689"/>
      <point x="178" y="703"/>
    </contour>
  </outline>
</glyph>
<glyph name="hamzaabove" format="1">
  <advance width="0"/>
  <unicode hex="0654"/>
  <outline>
    <contour>
      <point x="180" y="697" type="line"/>
      <point x="180" y="743" type="line"/>
      <point x="99" y="743" type="line"/>
      <point x="87" y="750"/>
      <point x="81" y="763"/>
      <point x="81" y="780" type="curve" smooth="yes"/>
      <point x="81" y="799"/>
      <point x="94" y="818"/>
      <point x="115" y="818" type="curve" smooth="yes"/>
      <point x="130" y="818"/>
      <point x="140" y="811"/>
      <point x="143" y="796" type="curve"/>
      <point x="179" y="815" type="line"/>
      <point x="165" y="844"/>
      <point x="144" y="859"/>
      <point x="116" y="859" type="curve" smooth="yes"/>
      <point x="73" y="859"/>
      <point x="38" y="825"/>
      <point x="38" y="778" type="curve" smooth="yes"/>
      <point x="38" y="773"/>
      <point x="41" y="762"/>
      <point x="47" y="743" type="curve"/>
      <point x="7" y="743" type="line"/>
      <point x="7" y="697" type="line"/>
    </contour>
  </outline>
</glyph>
<glyph name="hamzabelow" format="1">
  <advance width="0"/>
  <unicode hex="0655"/>
  <outline>
    <contour>
      <point x="184" y="-205" type="line"/>
      <point x="184" y="-159" type="line"/>
      <point x="103" y="-159" type="line"/>
      <point x="91" y="-152"/>
      <point x="85" y="-139"/>
      <point x="85" y="-121" type="curve" smooth="yes"/>
      <point x="85" y="-101"/>
      <point x="99" y="-82"/>
      <point x="119" y="-82" type="curve" smooth="yes"/>
      <point x="134" y="-82"/>
      <point x="144" y="-89"/>
      <point x="147" y="-104" type="curve"/>
      <point x="183" y="-87" type="line"/>
      <point x="169" y="-56"/>
      <point x="148" y="-41"/>
      <point x="120" y="-41" type="curve" smooth="yes"/>
      <point x="77" y="-41"/>
      <point x="42" y="-77"/>
      <point x="42" y="-124" type="curve" smooth="yes"/>
      <point x="42" y="-128"/>
      <point x="45" y="-140"/>
      <point x="51" y="-159" type="curve"/>
      <point x="11" y="-159" type="line"/>
      <point x="11" y="-205" type="line"/>
    </contour>
  </outline>
</glyph>
<glyph name="zeroarabic" format="1">
  <advance width="280"/>
  <unicode hex="0660"/>
  <outline>
    <contour>
      <point x="210" y="103" type="line"/>
      <point x="210" y="258" type="line"/>
      <point x="70" y="327" type="line"/>
      <point x="70" y="173" type="line"/>
    </contour>
  </outline>
</glyph>
<glyph name="threearabic" format="1">
  <advance width="568"/>
  <unicode hex="0663"/>
  <outline>
    <contour>
      <point x="531" y="540" type="curve" smooth="yes"/>
      <point x="531" y="641" type="line"/>
      <point x="423" y="641" type="line"/>
      <point x="423" y="566" type="line" smooth="yes"/>
      <point x="423" y="497"/>
      <point x="420" y="459"/>
      <point x="337" y="459" type="curve"/>
      <point x="360" y="474"/>
      <point x="360" y="511"/>
      <point x="360" y="540" type="curve" smooth="yes"/>
      <point x="360" y="641" type="line"/>
      <point x="262" y="641" type="line"/>
      <point x="262" y="566" type="line" smooth="yes"/>
      <point x="262" y="497"/>
      <point x="252" y="463"/>
      <point x="181" y="463" type="curve"/>
      <point x="181" y="641" type="line"/>
      <point x="70" y="641" type="line"/>
      <point x="70" y="0" type="line"/>
      <point x="181" y="0" type="line"/>
      <point x="181" y="361" type="line"/>
      <point x="320" y="361" type="line" smooth="yes"/>
      <point x="381" y="361"/>
      <point x="430" y="375"/>
      <point x="467" y="403" type="curve" smooth="yes"/>
      <point x="510" y="435"/>
      <point x="531" y="481"/>
    </contour>
  </outline>
</glyph>
<glyph name="fourarabic" format="1">
  <advance width="496"/>
  <unicode hex="0664"/>
  <outline>
    <contour>
      <point x="447" y="0" type="line"/>
      <point x="447" y="93" type="line"/>
      <point x="266" y="93" type="line" smooth="yes"/>
      <point x="204" y="93"/>
      <point x="162" y="133"/>
      <point x="162" y="193" type="curve" smooth="yes"/>
      <point x="162" y="261"/>
      <point x="204" y="300"/>
      <point x="266" y="300" type="curve" smooth="yes"/>
      <point x="324" y="300" type="line"/>
      <point x="324" y="375" type="line"/>
      <point x="270" y="375" type="line" smooth="yes"/>
      <point x="219" y="375"/>
      <point x="177" y="412"/>
      <point x="177" y="461" type="curve" smooth="yes"/>
      <point x="177" y="517"/>
      <point x="207" y="555"/>
      <point x="270" y="555" type="curve" smooth="yes"/>
      <point x="425" y="555" type="line"/>
      <point x="425" y="645" type="line"/>
      <point x="251" y="645" type="line" smooth="yes"/>
      <point x="142" y="645"/>
      <point x="64" y="583"/>
      <point x="64" y="489" type="curve" smooth="yes"/>
      <point x="64" y="409"/>
      <point x="105" y="357"/>
      <point x="186" y="333" type="curve"/>
      <point x="95" y="316"/>
      <point x="49" y="266"/>
      <point x="49" y="183" type="curve" smooth="yes"/>
      <point x="49" y="75"/>
      <point x="141" y="0"/>
      <point x="266" y="0" type="curve" smooth="yes"/>
    </contour>
  </outline>
</glyph>
<glyph name="sevenarabic" format="1">
  <advance width="549"/>
  <unicode hex="0667"/>
  <outline>
    <contour>
      <point x="349" y="0" type="line"/>
      <point x="499" y="645" type="line"/>
      <point x="377" y="645" type="line"/>
      <point x="279" y="124" type="line"/>
      <point x="164" y="645" type="line"/>
      <point x="50" y="645" type="line"/>
      <point x="203" y="0" type="line"/>
    </contour>
  </outline>
</glyph>
<glyph name="eightarabic" format="1">
  <advance width="549"/>
  <unicode hex="0668"/>
  <outline>
    <contour>
      <point x="499" y="0" type="line"/>
      <point x="349" y="645" type="line"/>
      <point x="203" y="645" type="line"/>
      <point x="50" y="0" type="line"/>
      <point x="164" y="0" type="line"/>
      <point x="279" y="522" type="line"/>
      <point x="377" y="0" type="line"/>
    </contour>
  </outline>
</glyph>
<glyph name="ninearabic" format="1">
  <advance width="558"/>
  <unicode hex="0669"/>
  <outline>
    <contour>
      <point x="488" y="419" type="line" smooth="yes"/>
      <point x="488" y="484"/>
      <point x="466" y="537"/>
      <point x="423" y="580" type="curve" smooth="yes"/>
      <point x="380" y="623"/>
      <point x="326" y="645"/>
      <point x="260" y="645" type="curve" smooth="yes"/>
      <point x="195" y="645"/>
      <point x="142" y="624"/>
      <point x="101" y="582" type="curve" smooth="yes"/>
      <point x="60" y="541"/>
      <point x="40" y="487"/>
      <point x="40" y="422" type="curve" smooth="yes"/>
      <point x="40" y="353"/>
      <point x="57" y="297"/>
      <point x="92" y="254" type="curve" smooth="yes"/>
      <point x="131" y="207"/>
      <point x="187" y="183"/>
      <point x="260" y="183" type="curve" smooth="yes"/>
      <point x="309" y="183"/>
      <point x="348" y="201"/>
      <point x="378" y="236" type="curve"/>
      <point x="378" y="0" type="line"/>
      <point x="488" y="0" type="line"/>
    </contour>
    <contour>
      <point x="374" y="411" type="curve" smooth="yes"/>
      <point x="374" y="378"/>
      <point x="366" y="349"/>
      <point x="349" y="325" type="curve" smooth="yes"/>
      <point x="330" y="298"/>
      <point x="303" y="284"/>
      <point x="270" y="284" type="curve" smooth="yes"/>
      <point x="236" y="284"/>
      <point x="209" y="298"/>
      <point x="188" y="325" type="curve" smooth="yes"/>
      <point x="170" y="350"/>
      <point x="161" y="380"/>
      <point x="161" y="415" type="curve" smooth="yes"/>
      <point x="161" y="450"/>
      <point x="169" y="479"/>
      <point x="186" y="502" type="curve" smooth="yes"/>
      <point x="205" y="529"/>
      <point x="232" y="543"/>
      <point x="265" y="543" type="curve" smooth="yes"/>
      <point x="299" y="543"/>
      <point x="326" y="529"/>
      <point x="347" y="501" type="curve" smooth="yes"/>
      <point x="365" y="476"/>
      <point x="374" y="446"/>
    </contour>
  </outline>
</glyph>
<glyph name="percentarabic" format="1">
  <advance width="430"/>
  <unicode hex="066A"/>
  <outline>
    <contour>
      <point x="187" y="526" type="line"/>
      <point x="187" y="618" type="line"/>
      <point x="91" y="618" type="line"/>
      <point x="91" y="526" type="line"/>
    </contour>
    <contour>
      <point x="397" y="646" type="line"/>
      <point x="298" y="646" type="line"/>
      <point x="32" y="0" type="line"/>
      <point x="131" y="0" type="line"/>
    </contour>
    <contour>
      <point x="346" y="32" type="line"/>
      <point x="346" y="124" type="line"/>
      <point x="249" y="124" type="line"/>
      <point x="249" y="32" type="line"/>
    </contour>
  </outline>
</glyph>
<glyph name="decimalseparatorarabic" format="1">
  <advance width="189"/>
  <unicode hex="066B"/>
  <outline>
    <contour>
      <point x="24" y="149" type="line"/>
      <point x="24" y="23" type="line"/>
      <point x="82" y="23" type="line"/>
      <point x="82" y="-23"/>
      <point x="65" y="-48"/>
      <point x="32" y="-52" type="curve"/>
      <point x="32" y="-105" type="line"/>
      <point x="69" y="-97"/>
      <point x="95" y="-87"/>
      <point x="111" y="-75" type="curve" smooth="yes"/>
      <point x="135" y="-56"/>
      <point x="147" y="-28"/>
      <point x="147" y="10" type="curve" smooth="yes"/>
      <point x="147" y="149" type="line"/>
    </contour>
  </outline>
</glyph>
<glyph name="asteriskarabic" format="1">
  <advance width="500"/>
  <unicode hex="066D"/>
  <outline>
    <contour>
      <point x="447" y="245" type="line"/>
      <point x="438" y="265" type="line"/>
      <point x="300" y="245" type="line"/>
      <point x="262" y="388" type="line"/>
      <point x="242" y="388" type="line"/>
      <point x="203" y="245" type="line"/>
      <point x="65" y="266" type="line"/>
      <point x="56" y="245" type="line"/>
      <point x="173" y="152" type="line"/>
      <point x="121" y="13" type="line"/>
      <point x="138" y="0" type="line"/>
      <point x="252" y="94" type="line"/>
      <point x="365" y="0" type="line"/>
      <point x="382" y="15" type="line"/>
      <point x="331" y="153" type="line"/>
    </contour>
  </outline>
</glyph>
<glyph name="superscriptalef" format="1">
  <advance width="0"/>
  <unicode hex="0670"/>
  <outline>
    <contour>
      <point x="23" y="744" type="line"/>
      <point x="57" y="744" type="line"/>
      <point x="57" y="918" type="line"/>
      <point x="23" y="918" type="line"/>
    </contour>
  </outline>
</glyph>
<glyph name="alefwaslaisolated" format="1">
  <advance width="214"/>
  <unicode hex="0671"/>
  <unicode hex="FB50"/>
  <outline>
    <contour>
      <point x="182" y="0" type="line"/>
      <point x="182" y="646" type="line"/>
      <point x="71" y="646" type="line"/>
      <point x="71" y="0" type="line"/>
    </contour>
    <contour>
      <point x="234" y="701" type="line"/>
      <point x="234" y="782"/>
      <point x="209" y="825"/>
      <point x="162" y="831" type="curve"/>
      <point x="155" y="831" type="line" smooth="yes"/>
      <point x="142" y="831"/>
      <point x="128" y="826"/>
      <point x="113" y="817" type="curve" smooth="yes"/>
      <point x="88" y="801"/>
      <point x="68" y="774"/>
      <point x="51" y="736" type="curve"/>
      <point x="51" y="795" type="line"/>
      <point x="27" y="796" type="line"/>
      <point x="27" y="732" type="line"/>
      <point x="-1" y="732" type="line"/>
      <point x="-1" y="701" type="line"/>
    </contour>
    <contour>
      <point x="199" y="730" type="line"/>
      <point x="70" y="731" type="line"/>
      <point x="99" y="776"/>
      <point x="128" y="798"/>
      <point x="156" y="798" type="curve" smooth="yes"/>
      <point x="185" y="797"/>
      <point x="199" y="775"/>
      <point x="199" y="734" type="curve" smooth="yes"/>
    </contour>
  </outline>
</glyph>
<glyph name="peharabic" format="1">
  <advance width="901"/>
  <unicode hex="067E"/>
  <unicode hex="FB56"/>
  <outline>
    <contour>
      <point x="868" y="454" type="line"/>
      <point x="758" y="454" type="line"/>
      <point x="758" y="237" type="line" smooth="yes"/>
      <point x="758" y="186"/>
      <point x="744" y="151"/>
      <point x="716" y="133" type="curve" smooth="yes"/>
      <point x="697" y="120"/>
      <point x="662" y="114"/>
      <point x="611" y="114" type="curve" smooth="yes"/>
      <point x="337" y="114" type="line" smooth="yes"/>
      <point x="276" y="114"/>
      <point x="230" y="125"/>
      <point x="200" y="146" type="curve" smooth="yes"/>
      <point x="162" y="172"/>
      <point x="143" y="218"/>
      <point x="143" y="283" type="curve" smooth="yes"/>
      <point x="143" y="454" type="line"/>
      <point x="32" y="454" type="line"/>
      <point x="32" y="283" type="line" smooth="yes"/>
      <point x="32" y="94"/>
      <point x="138" y="0"/>
      <point x="350" y="0" type="curve" smooth="yes"/>
      <point x="713" y="0" type="line" smooth="yes"/>
      <point x="812" y="0"/>
      <point x="868" y="60"/>
      <point x="868" y="160" type="curve" smooth="yes"/>
    </contour>
    <contour>
      <point x="620" y="-178" type="line"/>
      <point x="620" y="-66" type="line"/>
      <point x="510" y="-66" type="line"/>
      <point x="510" y="-178" type="line"/>
    </contour>
    <contour>
      <point x="431" y="-178" type="line"/>
      <point x="431" y="-66" type="line"/>
      <point x="321" y="-66" type="line"/>
      <point x="321" y="-178" type="line"/>
    </contour>
    <contour>
      <point x="527" y="-336" type="line"/>
      <point x="527" y="-224" type="line"/>
      <point x="418" y="-224" type="line"/>
      <point x="418" y="-336" type="line"/>
    </contour>
  </outline>
</glyph>
<glyph name="tcheharabic" format="1">
  <advance width="543"/>
  <unicode hex="0686"/>
  <unicode hex="FB7A"/>
  <outline>
    <contour>
      <point x="407" y="91" type="line"/>
      <point x="407" y="171" type="line"/>
      <point x="328" y="171" type="line"/>
      <point x="328" y="91" type="line"/>
    </contour>
    <contour>
      <point x="272" y="91" type="line"/>
      <point x="272" y="171" type="line"/>
      <point x="194" y="171" type="line"/>
      <point x="194" y="91" type="line"/>
    </contour>
    <contour>
      <point x="340" y="-21" type="line"/>
      <point x="340" y="58" type="line"/>
      <point x="262" y="58" type="line"/>
      <point x="262" y="-21" type="line"/>
    </contour>
    <contour>
      <point x="511" y="305" type="line" smooth="yes"/>
      <point x="511" y="370"/>
      <point x="491" y="430"/>
      <point x="450" y="484" type="curve" smooth="yes"/>
      <point x="397" y="554"/>
      <point x="321" y="583"/>
      <point x="223" y="583" type="curve" smooth="yes"/>
      <point x="187" y="583"/>
      <point x="158" y="575"/>
      <point x="137" y="566" type="curve"/>
      <point x="137" y="470" type="line"/>
      <point x="151" y="478"/>
      <point x="177" y="486"/>
      <point x="215" y="486" type="curve" smooth="yes"/>
      <point x="313" y="486"/>
      <point x="371" y="440"/>
      <point x="390" y="329" type="curve"/>
      <point x="267" y="329" type="line" smooth="yes"/>
      <point x="198" y="329"/>
      <point x="142" y="310"/>
      <point x="101" y="271" type="curve" smooth="yes"/>
      <point x="55" y="228"/>
      <point x="32" y="165"/>
      <point x="32" y="82" type="curve" smooth="yes"/>
      <point x="32" y="-1"/>
      <point x="60" y="-64"/>
      <point x="115" y="-108" type="curve" smooth="yes"/>
      <point x="164" y="-146"/>
      <point x="230" y="-165"/>
      <point x="313" y="-165" type="curve" smooth="yes"/>
      <point x="393" y="-165" type="line"/>
      <point x="393" y="-48" type="line"/>
      <point x="272" y="-48" type="line" smooth="yes"/>
      <point x="237" y="-48"/>
      <point x="206" y="-36"/>
      <point x="181" y="-13" type="curve" smooth="yes"/>
      <point x="156" y="10"/>
      <point x="144" y="40"/>
      <point x="144" y="77" type="curve" smooth="yes"/>
      <point x="144" y="161"/>
      <point x="196" y="214"/>
      <point x="272" y="214" type="curve" smooth="yes"/>
      <point x="511" y="214" type="line"/>
    </contour>
  </outline>
</glyph>
<glyph name="jeharabic" format="1">
  <advance width="325"/>
  <unicode hex="0698"/>
  <unicode hex="FB8A"/>
  <outline>
    <contour>
      <point x="293" y="454" type="line"/>
      <point x="181" y="454" type="line"/>
      <point x="181" y="72" type="line" smooth="yes"/>
      <point x="181" y="-24"/>
      <point x="135" y="-70"/>
      <point x="42" y="-70" type="curve"/>
      <point x="42" y="-166" type="line"/>
      <point x="214" y="-166"/>
      <point x="293" y="-91"/>
      <point x="293" y="89" type="curve" smooth="yes"/>
    </contour>
    <contour>
      <point x="103" y="546" type="line"/>
      <point x="103" y="658" type="line"/>
      <point x="-7" y="658" type="line"/>
      <point x="-7" y="546" type="line"/>
    </contour>
    <contour>
      <point x="292" y="546" type="line"/>
      <point x="292" y="658" type="line"/>
      <point x="182" y="658" type="line"/>
      <point x="182" y="546" type="line"/>
    </contour>
    <contour>
      <point x="199" y="705" type="line"/>
      <point x="199" y="816" type="line"/>
      <point x="89" y="816" type="line"/>
      <point x="89" y="705" type="line"/>
    </contour>
  </outline>
</glyph>
<glyph name="veharabic" format="1">
  <advance width="951"/>
  <unicode hex="06A4"/>
  <unicode hex="FB6A"/>
  <outline>
    <contour>
      <point x="751" y="703" type="line"/>
      <point x="751" y="815" type="line"/>
      <point x="642" y="815" type="line"/>
      <point x="642" y="703" type="line"/>
    </contour>
    <contour>
      <point x="845" y="546" type="line"/>
      <point x="845" y="657" type="line"/>
      <point x="735" y="657" type="line"/>
      <point x="735" y="546" type="line"/>
    </contour>
    <contour>
      <point x="656" y="546" type="line"/>
      <point x="656" y="657" type="line"/>
      <point x="546" y="657" type="line"/>
      <point x="546" y="546" type="line"/>
    </contour>
    <contour>
      <point x="918" y="230" type="curve" smooth="yes"/>
      <point x="918" y="361"/>
      <point x="827" y="464"/>
      <point x="694" y="464" type="curve" smooth="yes"/>
      <point x="561" y="464"/>
      <point x="468" y="367"/>
      <point x="468" y="233" type="curve" smooth="yes"/>
      <point x="468" y="190"/>
      <point x="479" y="151"/>
      <point x="496" y="113" type="curve"/>
      <point x="496" y="114" type="line"/>
      <point x="337" y="114" type="line" smooth="yes"/>
      <point x="202" y="114"/>
      <point x="143" y="163"/>
      <point x="143" y="283" type="curve" smooth="yes"/>
      <point x="143" y="434" type="line"/>
      <point x="32" y="434" type="line"/>
      <point x="32" y="283" type="line" smooth="yes"/>
      <point x="32" y="98"/>
      <point x="134" y="0"/>
      <point x="339" y="0" type="curve" smooth="yes"/>
      <point x="694" y="0" type="line" smooth="yes"/>
      <point x="828" y="0"/>
      <point x="918" y="98"/>
    </contour>
    <contour>
      <point x="803" y="230" type="curve" smooth="yes"/>
      <point x="803" y="158"/>
      <point x="764" y="103"/>
      <point x="696" y="103" type="curve" smooth="yes"/>
      <point x="629" y="103"/>
      <point x="584" y="161"/>
      <point x="584" y="234" type="curve" smooth="yes"/>
      <point x="584" y="312"/>
      <point x="626" y="362"/>
      <point x="691" y="362" type="curve" smooth="yes"/>
      <point x="757" y="362"/>
      <point x="803" y="306"/>
    </contour>
  </outline>
</glyph>
<glyph name="extendedarabicindicdigitzero" format="1">
  <advance width="280"/>
  <unicode hex="06F0"/>
  <outline>
    <contour>
      <point x="210" y="103" type="line"/>
      <point x="210" y="258" type="line"/>
      <point x="70" y="327" type="line"/>
      <point x="70" y="173" type="line"/>
    </contour>
  </outline>
</glyph>
<glyph name="extendedarabicindicdigitone" format="1">
  <advance width="251"/>
  <unicode hex="06F1"/>
  <outline>
    <contour>
      <point x="181" y="0" type="line"/>
      <point x="181" y="632" type="line"/>
      <point x="70" y="551" type="line"/>
      <point x="70" y="0" type="line"/>
    </contour>
  </outline>
</glyph>
<glyph name="extendedarabicindicdigitfive" format="1">
  <advance width="556"/>
  <unicode hex="06F5"/>
  <outline>
    <contour>
      <point x="505" y="283" type="curve" smooth="yes"/>
      <point x="505" y="350"/>
      <point x="473" y="420"/>
      <point x="407" y="491" type="curve" smooth="yes"/>
      <point x="354" y="548"/>
      <point x="309" y="583"/>
      <point x="272" y="596" type="curve"/>
      <point x="237" y="583"/>
      <point x="194" y="547"/>
      <point x="141" y="487" type="curve" smooth="yes"/>
      <point x="77" y="414"/>
      <point x="45" y="345"/>
      <point x="45" y="282" type="curve" smooth="yes"/>
      <point x="45" y="131"/>
      <point x="133" y="39"/>
      <point x="276" y="39" type="curve" smooth="yes"/>
      <point x="419" y="39"/>
      <point x="505" y="138"/>
    </contour>
    <contour>
      <point x="391" y="279" type="curve" smooth="yes"/>
      <point x="391" y="193"/>
      <point x="344" y="140"/>
      <point x="273" y="140" type="curve" smooth="yes"/>
      <point x="200" y="140"/>
      <point x="154" y="193"/>
      <point x="154" y="279" type="curve" smooth="yes"/>
      <point x="154" y="348"/>
      <point x="222" y="460"/>
      <point x="273" y="487" type="curve"/>
      <point x="328" y="457"/>
      <point x="391" y="350"/>
    </contour>
  </outline>
</glyph>
<glyph name="zeronojoin" format="1">
  <advance width="20"/>
  <unicode hex="200C"/>
  <outline>
    <contour>
      <point x="20" y="0" type="line"/>
      <point x="20" y="722" type="line"/>
      <point x="0" y="722" type="line"/>
      <point x="0" y="0" type="line"/>
    </contour>
  </outline>
</glyph>
<glyph name="zerojoin" format="1">
  <advance width="20"/>
  <unicode hex="200D"/>
  <outline>
    <contour>
      <point x="71" y="663" type="line"/>
      <point x="24" y="711" type="line"/>
      <point x="71" y="758" type="line"/>
      <point x="57" y="772" type="line"/>
      <point x="10" y="724" type="line"/>
      <point x="-37" y="772" type="line"/>
      <point x="-51" y="758" type="line"/>
      <point x="-3" y="711" type="line"/>
      <point x="-51" y="663" type="line"/>
      <point x="-37" y="650" type="line"/>
      <point x="0" y="687" type="line"/>
      <point x="0" y="0" type="line"/>
      <point x="20" y="0" type="line"/>
      <point x="20" y="687" type="line"/>
      <point x="57" y="650" type="line"/>
    </contour>
  </outline>
</glyph>
<glyph name="lefttoright" format="1">
  <advance width="20"/>
  <unicode hex="200E"/>
  <outline>
    <contour>
      <point x="134" y="711" type="line"/>
      <point x="74" y="772" type="line"/>
      <point x="60" y="758" type="line"/>
      <point x="96" y="722" type="line"/>
      <point x="0" y="722" type="line"/>
      <point x="0" y="0" type="line"/>
      <point x="20" y="0" type="line"/>
      <point x="20" y="702" type="line"/>
      <point x="98" y="702" type="line"/>
      <point x="60" y="664" type="line"/>
      <point x="74" y="650" type="line"/>
    </contour>
  </outline>
</glyph>
<glyph name="righttoleft" format="1">
  <advance width="20"/>
  <unicode hex="200F"/>
  <outline>
    <contour>
      <point x="20" y="0" type="line"/>
      <point x="20" y="722" type="line"/>
      <point x="-76" y="722" type="line"/>
      <point x="-40" y="758" type="line"/>
      <point x="-54" y="772" type="line"/>
      <point x="-114" y="711" type="line"/>
      <point x="-54" y="650" type="line"/>
      <point x="-40" y="664" type="line"/>
      <point x="-78" y="702" type="line"/>
      <point x="0" y="702" type="line"/>
      <point x="0" y="0" type="line"/>
    </contour>
  </outline>
</glyph>
<glyph name="hyphenminus" format="1">
  <advance width="454"/>
  <unicode hex="2010"/>
  <outline>
    <contour>
      <point x="24" y="192" type="line"/>
      <point x="445" y="192" type="line"/>
      <point x="445" y="231" type="line"/>
      <point x="24" y="231" type="line"/>
    </contour>
  </outline>
</glyph>
<glyph name="quotedblleft" format="1">
  <advance width="267"/>
  <unicode hex="201C"/>
  <outline>
    <contour>
      <point x="237" y="647" type="curve"/>
      <point x="211" y="647" type="line"/>
      <point x="164" y="604"/>
      <point x="141" y="568"/>
      <point x="141" y="539" type="curve" smooth="yes"/>
      <point x="141" y="458" type="line"/>
      <point x="221" y="458" type="line"/>
      <point x="221" y="530" type="line"/>
      <point x="201" y="529"/>
      <point x="191" y="537"/>
      <point x="190" y="555" type="curve" smooth="yes"/>
      <point x="189" y="587"/>
      <point x="205" y="618"/>
    </contour>
    <contour>
      <point x="130" y="647" type="curve"/>
      <point x="105" y="647" type="line"/>
      <point x="58" y="604"/>
      <point x="34" y="568"/>
      <point x="34" y="539" type="curve" smooth="yes"/>
      <point x="34" y="458" type="line"/>
      <point x="114" y="458" type="line"/>
      <point x="114" y="530" type="line"/>
      <point x="94" y="529"/>
      <point x="84" y="537"/>
      <point x="83" y="555" type="curve" smooth="yes"/>
      <point x="82" y="587"/>
      <point x="98" y="618"/>
    </contour>
  </outline>
</glyph>
<glyph name="quotedblright" format="1">
  <advance width="267"/>
  <unicode hex="201D"/>
  <outline>
    <contour>
      <point x="237" y="565" type="curve" smooth="yes"/>
      <point x="237" y="647" type="line"/>
      <point x="158" y="647" type="line"/>
      <point x="158" y="574" type="line"/>
      <point x="178" y="575"/>
      <point x="188" y="567"/>
      <point x="188" y="549" type="curve" smooth="yes"/>
      <point x="189" y="518"/>
      <point x="173" y="487"/>
      <point x="141" y="458" type="curve"/>
      <point x="166" y="458" type="line"/>
      <point x="213" y="501"/>
      <point x="237" y="536"/>
    </contour>
    <contour>
      <point x="130" y="565" type="curve" smooth="yes"/>
      <point x="130" y="647" type="line"/>
      <point x="51" y="647" type="line"/>
      <point x="51" y="574" type="line"/>
      <point x="71" y="575"/>
      <point x="81" y="567"/>
      <point x="82" y="549" type="curve" smooth="yes"/>
      <point x="83" y="518"/>
      <point x="67" y="487"/>
      <point x="34" y="458" type="curve"/>
      <point x="59" y="458" type="line"/>
      <point x="106" y="501"/>
      <point x="130" y="536"/>
    </contour>
  </outline>
</glyph>
<glyph name="delete" format="1">
  <advance width="709"/>
  <unicode hex="2421"/>
  <outline>
    <contour>
      <point x="674" y="57" type="line"/>
      <point x="674" y="88" type="line"/>
      <point x="547" y="88" type="line"/>
      <point x="547" y="317" type="line"/>
      <point x="511" y="317" type="line"/>
      <point x="511" y="57" type="line"/>
    </contour>
    <contour>
      <point x="479" y="57" type="line"/>
      <point x="479" y="88" type="line"/>
      <point x="320" y="88" type="line"/>
      <point x="320" y="176" type="line"/>
      <point x="463" y="176" type="line"/>
      <point x="463" y="207" type="line"/>
      <point x="320" y="207" type="line"/>
      <point x="320" y="286" type="line"/>
      <point x="473" y="286" type="line"/>
      <point x="473" y="317" type="line"/>
      <point x="284" y="317" type="line"/>
      <point x="284" y="57" type="line"/>
    </contour>
    <contour>
      <point x="253" y="189" type="curve" smooth="yes"/>
      <point x="253" y="260"/>
      <point x="227" y="301"/>
      <point x="174" y="313" type="curve" smooth="yes"/>
      <point x="164" y="316"/>
      <point x="149" y="317"/>
      <point x="128" y="317" type="curve" smooth="yes"/>
      <point x="38" y="317" type="line"/>
      <point x="38" y="57" type="line"/>
      <point x="133" y="57" type="line" smooth="yes"/>
      <point x="148" y="57"/>
      <point x="162" y="59"/>
      <point x="174" y="62" type="curve" smooth="yes"/>
      <point x="227" y="75"/>
      <point x="253" y="117"/>
    </contour>
    <contour>
      <point x="218" y="189" type="curve" smooth="yes"/>
      <point x="218" y="152"/>
      <point x="209" y="124"/>
      <point x="192" y="106" type="curve" smooth="yes"/>
      <point x="179" y="94"/>
      <point x="158" y="88"/>
      <point x="129" y="88" type="curve" smooth="yes"/>
      <point x="73" y="88" type="line"/>
      <point x="73" y="286" type="line"/>
      <point x="128" y="286" type="line" smooth="yes"/>
      <point x="148" y="286"/>
      <point x="163" y="284"/>
      <point x="172" y="281" type="curve" smooth="yes"/>
      <point x="203" y="269"/>
      <point x="218" y="238"/>
    </contour>
  </outline>
</glyph>
<glyph name="alefwaslafinal" format="1">
  <advance width="346"/>
  <unicode hex="FB51"/>
  <outline>
    <contour>
      <point x="366" y="0" type="line"/>
      <point x="366" y="114" type="line"/>
      <point x="300" y="114" type="line" smooth="yes"/>
      <point x="258" y="114"/>
      <point x="229" y="120"/>
      <point x="214" y="131" type="curve" smooth="yes"/>
      <point x="193" y="146"/>
      <point x="182" y="178"/>
      <point x="182" y="227" type="curve" smooth="yes"/>
      <point x="182" y="645" type="line"/>
      <point x="71" y="645" type="line"/>
      <point x="71" y="182" type="line" smooth="yes"/>
      <point x="71" y="127"/>
      <point x="84" y="84"/>
      <point x="111" y="52" type="curve" smooth="yes"/>
      <point x="140" y="17"/>
      <point x="181" y="0"/>
      <point x="235" y="0" type="curve" smooth="yes"/>
    </contour>
    <contour>
      <point x="234" y="701" type="line"/>
      <point x="234" y="782"/>
      <point x="209" y="825"/>
      <point x="162" y="831" type="curve"/>
      <point x="155" y="831" type="line" smooth="yes"/>
      <point x="142" y="831"/>
      <point x="128" y="826"/>
      <point x="113" y="817" type="curve" smooth="yes"/>
      <point x="88" y="801"/>
      <point x="68" y="774"/>
      <point x="51" y="736" type="curve"/>
      <point x="51" y="795" type="line"/>
      <point x="27" y="796" type="line"/>
      <point x="27" y="732" type="line"/>
      <point x="-1" y="732" type="line"/>
      <point x="-1" y="701" type="line"/>
    </contour>
    <contour>
      <point x="199" y="730" type="line"/>
      <point x="70" y="731" type="line"/>
      <point x="99" y="776"/>
      <point x="128" y="798"/>
      <point x="156" y="798" type="curve" smooth="yes"/>
      <point x="185" y="797"/>
      <point x="199" y="775"/>
      <point x="199" y="734" type="curve" smooth="yes"/>
    </contour>
  </outline>
</glyph>
<glyph name="pehfinalarabic" format="1">
  <advance width="1020"/>
  <unicode hex="FB57"/>
  <outline>
    <contour>
      <point x="1032" y="0" type="line"/>
      <point x="1032" y="114" type="line"/>
      <point x="843" y="114" type="line"/>
      <point x="860" y="133"/>
      <point x="868" y="171"/>
      <point x="868" y="230" type="curve" smooth="yes"/>
      <point x="868" y="454" type="line"/>
      <point x="756" y="454" type="line"/>
      <point x="756" y="224" type="line" smooth="yes"/>
      <point x="756" y="189"/>
      <point x="752" y="163"/>
      <point x="744" y="148" type="curve" smooth="yes"/>
      <point x="733" y="125"/>
      <point x="710" y="114"/>
      <point x="677" y="114" type="curve" smooth="yes"/>
      <point x="337" y="114" type="line" smooth="yes"/>
      <point x="276" y="114"/>
      <point x="230" y="125"/>
      <point x="200" y="146" type="curve" smooth="yes"/>
      <point x="162" y="172"/>
      <point x="143" y="218"/>
      <point x="143" y="283" type="curve" smooth="yes"/>
      <point x="143" y="454" type="line"/>
      <point x="32" y="454" type="line"/>
      <point x="32" y="283" type="line" smooth="yes"/>
      <point x="32" y="94"/>
      <point x="138" y="0"/>
      <point x="350" y="0" type="curve" smooth="yes"/>
    </contour>
    <contour>
      <point x="636" y="-178" type="line"/>
      <point x="636" y="-66" type="line"/>
      <point x="526" y="-66" type="line"/>
      <point x="526" y="-178" type="line"/>
    </contour>
    <contour>
      <point x="446" y="-178" type="line"/>
      <point x="446" y="-66" type="line"/>
      <point x="337" y="-66" type="line"/>
      <point x="337" y="-178" type="line"/>
    </contour>
    <contour>
      <point x="543" y="-336" type="line"/>
      <point x="543" y="-224" type="line"/>
      <point x="433" y="-224" type="line"/>
      <point x="433" y="-336" type="line"/>
    </contour>
  </outline>
</glyph>
<glyph name="pehinitialarabic" format="1">
  <advance width="301"/>
  <unicode hex="FB58"/>
  <outline>
    <contour>
      <point x="268" y="181" type="curve" smooth="yes"/>
      <point x="268" y="454" type="line"/>
      <point x="156" y="454" type="line"/>
      <point x="156" y="219" type="line" smooth="yes"/>
      <point x="156" y="182"/>
      <point x="153" y="158"/>
      <point x="148" y="147" type="curve" smooth="yes"/>
      <point x="137" y="125"/>
      <point x="114" y="114"/>
      <point x="77" y="114" type="curve" smooth="yes"/>
      <point x="-8" y="114" type="line"/>
      <point x="-8" y="0" type="line"/>
      <point x="100" y="0" type="line" smooth="yes"/>
      <point x="212" y="0"/>
      <point x="268" y="60"/>
    </contour>
    <contour>
      <point x="264" y="-178" type="line"/>
      <point x="264" y="-66" type="line"/>
      <point x="154" y="-66" type="line"/>
      <point x="154" y="-178" type="line"/>
    </contour>
    <contour>
      <point x="74" y="-178" type="line"/>
      <point x="74" y="-66" type="line"/>
      <point x="-36" y="-66" type="line"/>
      <point x="-36" y="-178" type="line"/>
    </contour>
    <contour>
      <point x="171" y="-336" type="line"/>
      <point x="171" y="-224" type="line"/>
      <point x="61" y="-224" type="line"/>
      <point x="61" y="-336" type="line"/>
    </contour>
  </outline>
</glyph>
<glyph name="pehmedialarabic" format="1">
  <advance width="431"/>
  <unicode hex="FB59"/>
  <outline>
    <contour>
      <point x="278" y="-178" type="line"/>
      <point x="278" y="-66" type="line"/>
      <point x="169" y="-66" type="line"/>
      <point x="169" y="-178" type="line"/>
    </contour>
    <contour>
      <point x="89" y="-178" type="line"/>
      <point x="89" y="-66" type="line"/>
      <point x="-21" y="-66" type="line"/>
      <point x="-21" y="-178" type="line"/>
    </contour>
    <contour>
      <point x="185" y="-336" type="line"/>
      <point x="185" y="-224" type="line"/>
      <point x="76" y="-224" type="line"/>
      <point x="76" y="-336" type="line"/>
    </contour>
    <contour>
      <point x="446" y="0" type="line"/>
      <point x="446" y="114" type="line"/>
      <point x="254" y="114" type="line"/>
      <point x="270" y="133"/>
      <point x="278" y="171"/>
      <point x="278" y="230" type="curve" smooth="yes"/>
      <point x="278" y="454" type="line"/>
      <point x="167" y="454" type="line"/>
      <point x="167" y="224" type="line" smooth="yes"/>
      <point x="167" y="189"/>
      <point x="163" y="163"/>
      <point x="155" y="148" type="curve" smooth="yes"/>
      <point x="143" y="125"/>
      <point x="121" y="114"/>
      <point x="88" y="114" type="curve" smooth="yes"/>
      <point x="-16" y="114" type="line"/>
      <point x="-16" y="0" type="line"/>
    </contour>
  </outline>
</glyph>
<glyph name="vehfinalarabic" format="1">
  <advance width="1072"/>
  <unicode hex="FB6B"/>
  <outline>
    <contour>
      <point x="810" y="781" type="line"/>
      <point x="810" y="892" type="line"/>
      <point x="701" y="892" type="line"/>
      <point x="701" y="781" type="line"/>
    </contour>
    <contour>
      <point x="904" y="622" type="line"/>
      <point x="904" y="734" type="line"/>
      <point x="794" y="734" type="line"/>
      <point x="794" y="622" type="line"/>
    </contour>
    <contour>
      <point x="714" y="622" type="line"/>
      <point x="714" y="734" type="line"/>
      <point x="604" y="734" type="line"/>
      <point x="604" y="622" type="line"/>
    </contour>
    <contour>
      <point x="1093" y="0" type="line"/>
      <point x="1093" y="114" type="line"/>
      <point x="987" y="114" type="line" smooth="yes"/>
      <point x="936" y="114"/>
      <point x="905" y="118"/>
      <point x="894" y="125" type="curve"/>
      <point x="925" y="149"/>
      <point x="949" y="180"/>
      <point x="967" y="219" type="curve" smooth="yes"/>
      <point x="983" y="253"/>
      <point x="991" y="288"/>
      <point x="991" y="325" type="curve" smooth="yes"/>
      <point x="991" y="350"/>
      <point x="987" y="371"/>
      <point x="978" y="390" type="curve" smooth="yes"/>
      <point x="957" y="437"/>
      <point x="929" y="474"/>
      <point x="892" y="501" type="curve" smooth="yes"/>
      <point x="853" y="530"/>
      <point x="808" y="544"/>
      <point x="758" y="544" type="curve" smooth="yes"/>
      <point x="657" y="544"/>
      <point x="575" y="485"/>
      <point x="538" y="390" type="curve" smooth="yes"/>
      <point x="530" y="370"/>
      <point x="526" y="347"/>
      <point x="526" y="321" type="curve" smooth="yes"/>
      <point x="526" y="285"/>
      <point x="534" y="250"/>
      <point x="550" y="217" type="curve" smooth="yes"/>
      <point x="567" y="180"/>
      <point x="591" y="149"/>
      <point x="622" y="125" type="curve"/>
      <point x="611" y="118"/>
      <point x="580" y="114"/>
      <point x="529" y="114" type="curve" smooth="yes"/>
      <point x="337" y="114" type="line" smooth="yes"/>
      <point x="276" y="114"/>
      <point x="230" y="125"/>
      <point x="200" y="146" type="curve" smooth="yes"/>
      <point x="162" y="172"/>
      <point x="143" y="218"/>
      <point x="143" y="283" type="curve" smooth="yes"/>
      <point x="143" y="434" type="line"/>
      <point x="32" y="434" type="line"/>
      <point x="32" y="283" type="line" smooth="yes"/>
      <point x="32" y="94"/>
      <point x="138" y="0"/>
      <point x="350" y="0" type="curve" smooth="yes"/>
      <point x="536" y="0" type="line" smooth="yes"/>
      <point x="631" y="0"/>
      <point x="705" y="18"/>
      <point x="758" y="55" type="curve"/>
      <point x="809" y="18"/>
      <point x="884" y="0"/>
      <point x="981" y="0" type="curve" smooth="yes"/>
    </contour>
    <contour>
      <point x="820" y="203" type="curve" smooth="yes"/>
      <point x="803" y="190"/>
      <point x="782" y="178"/>
      <point x="758" y="166" type="curve"/>
      <point x="735" y="177"/>
      <point x="715" y="190"/>
      <point x="697" y="203" type="curve" smooth="yes"/>
      <point x="653" y="235"/>
      <point x="631" y="278"/>
      <point x="631" y="331" type="curve" smooth="yes"/>
      <point x="631" y="366"/>
      <point x="641" y="395"/>
      <point x="662" y="418" type="curve" smooth="yes"/>
      <point x="685" y="443"/>
      <point x="717" y="456"/>
      <point x="758" y="456" type="curve" smooth="yes"/>
      <point x="799" y="456"/>
      <point x="831" y="443"/>
      <point x="854" y="418" type="curve" smooth="yes"/>
      <point x="875" y="395"/>
      <point x="886" y="366"/>
      <point x="886" y="331" type="curve" smooth="yes"/>
      <point x="886" y="277"/>
      <point x="864" y="234"/>
    </contour>
  </outline>
</glyph>
<glyph name="vehinitialarabic" format="1">
  <advance width="599"/>
  <unicode hex="FB6C"/>
  <outline>
    <contour>
      <point x="400" y="703" type="line"/>
      <point x="400" y="815" type="line"/>
      <point x="290" y="815" type="line"/>
      <point x="290" y="703" type="line"/>
    </contour>
    <contour>
      <point x="493" y="546" type="line"/>
      <point x="493" y="657" type="line"/>
      <point x="384" y="657" type="line"/>
      <point x="384" y="546" type="line"/>
    </contour>
    <contour>
      <point x="304" y="546" type="line"/>
      <point x="304" y="657" type="line"/>
      <point x="195" y="657" type="line"/>
      <point x="195" y="546" type="line"/>
    </contour>
    <contour>
      <point x="567" y="230" type="curve" smooth="yes"/>
      <point x="567" y="361"/>
      <point x="476" y="464"/>
      <point x="343" y="464" type="curve" smooth="yes"/>
      <point x="210" y="464"/>
      <point x="117" y="369"/>
      <point x="117" y="233" type="curve" smooth="yes"/>
      <point x="117" y="190"/>
      <point x="127" y="150"/>
      <point x="146" y="114" type="curve"/>
      <point x="-13" y="114" type="line"/>
      <point x="-13" y="0" type="line"/>
      <point x="343" y="0" type="line" smooth="yes"/>
      <point x="477" y="0"/>
      <point x="567" y="98"/>
    </contour>
    <contour>
      <point x="452" y="230" type="curve" smooth="yes"/>
      <point x="452" y="156"/>
      <point x="410" y="103"/>
      <point x="345" y="103" type="curve" smooth="yes"/>
      <point x="278" y="103"/>
      <point x="232" y="162"/>
      <point x="232" y="234" type="curve" smooth="yes"/>
      <point x="232" y="312"/>
      <point x="275" y="362"/>
      <point x="339" y="362" type="curve" smooth="yes"/>
      <point x="406" y="362"/>
      <point x="452" y="306"/>
    </contour>
  </outline>
</glyph>
<glyph name="vehmedialarabic" format="1">
  <advance width="642"/>
  <unicode hex="FB6D"/>
  <outline>
    <contour>
      <point x="286" y="622" type="line"/>
      <point x="286" y="734" type="line"/>
      <point x="176" y="734" type="line"/>
      <point x="176" y="622" type="line"/>
    </contour>
    <contour>
      <point x="475" y="622" type="line"/>
      <point x="475" y="734" type="line"/>
      <point x="365" y="734" type="line"/>
      <point x="365" y="622" type="line"/>
    </contour>
    <contour>
      <point x="382" y="781" type="line"/>
      <point x="382" y="892" type="line"/>
      <point x="272" y="892" type="line"/>
      <point x="272" y="781" type="line"/>
    </contour>
    <contour>
      <point x="661" y="0" type="line"/>
      <point x="661" y="114" type="line"/>
      <point x="557" y="114" type="line" smooth="yes"/>
      <point x="506" y="114"/>
      <point x="475" y="118"/>
      <point x="464" y="125" type="curve"/>
      <point x="495" y="149"/>
      <point x="520" y="180"/>
      <point x="537" y="219" type="curve" smooth="yes"/>
      <point x="553" y="253"/>
      <point x="561" y="288"/>
      <point x="561" y="325" type="curve" smooth="yes"/>
      <point x="561" y="467"/>
      <point x="441" y="544"/>
      <point x="328" y="544" type="curve" smooth="yes"/>
      <point x="227" y="544"/>
      <point x="145" y="485"/>
      <point x="108" y="390" type="curve" smooth="yes"/>
      <point x="100" y="370"/>
      <point x="96" y="347"/>
      <point x="96" y="321" type="curve" smooth="yes"/>
      <point x="96" y="285"/>
      <point x="104" y="250"/>
      <point x="119" y="217" type="curve" smooth="yes"/>
      <point x="136" y="180"/>
      <point x="161" y="149"/>
      <point x="193" y="125" type="curve"/>
      <point x="181" y="118"/>
      <point x="150" y="114"/>
      <point x="100" y="114" type="curve" smooth="yes"/>
      <point x="-17" y="114" type="line"/>
      <point x="-17" y="0" type="line"/>
      <point x="106" y="0" type="line" smooth="yes"/>
      <point x="201" y="0"/>
      <point x="275" y="18"/>
      <point x="327" y="55" type="curve"/>
      <point x="380" y="18"/>
      <point x="454" y="0"/>
      <point x="550" y="0" type="curve" smooth="yes"/>
    </contour>
    <contour>
      <point x="389" y="203" type="curve" smooth="yes"/>
      <point x="372" y="190"/>
      <point x="351" y="178"/>
      <point x="328" y="166" type="curve"/>
      <point x="305" y="177"/>
      <point x="284" y="190"/>
      <point x="266" y="203" type="curve" smooth="yes"/>
      <point x="222" y="235"/>
      <point x="200" y="278"/>
      <point x="200" y="331" type="curve" smooth="yes"/>
      <point x="200" y="366"/>
      <point x="211" y="395"/>
      <point x="232" y="418" type="curve" smooth="yes"/>
      <point x="255" y="443"/>
      <point x="287" y="456"/>
      <point x="328" y="456" type="curve" smooth="yes"/>
      <point x="369" y="456"/>
      <point x="401" y="443"/>
      <point x="424" y="418" type="curve" smooth="yes"/>
      <point x="445" y="395"/>
      <point x="455" y="366"/>
      <point x="455" y="331" type="curve" smooth="yes"/>
      <point x="455" y="277"/>
      <point x="433" y="234"/>
    </contour>
  </outline>
</glyph>
<glyph name="tchehinitialarabic" format="1">
  <advance width="715"/>
  <unicode hex="FB7C"/>
  <outline>
    <contour>
      <point x="498" y="-178" type="line"/>
      <point x="498" y="-66" type="line"/>
      <point x="388" y="-66" type="line"/>
      <point x="388" y="-178" type="line"/>
    </contour>
    <contour>
      <point x="309" y="-178" type="line"/>
      <point x="309" y="-66" type="line"/>
      <point x="199" y="-66" type="line"/>
      <point x="199" y="-178" type="line"/>
    </contour>
    <contour>
      <point x="405" y="-336" type="line"/>
      <point x="405" y="-224" type="line"/>
      <point x="295" y="-224" type="line"/>
      <point x="295" y="-336" type="line"/>
    </contour>
    <contour>
      <point x="683" y="70" type="line" smooth="yes"/>
      <point x="683" y="227"/>
      <point x="636" y="336"/>
      <point x="541" y="399" type="curve" smooth="yes"/>
      <point x="487" y="436"/>
      <point x="423" y="454"/>
      <point x="349" y="454" type="curve" smooth="yes"/>
      <point x="305" y="454"/>
      <point x="261" y="445"/>
      <point x="217" y="426" type="curve" smooth="yes"/>
      <point x="176" y="408"/>
      <point x="141" y="384"/>
      <point x="110" y="355" type="curve"/>
      <point x="135" y="317"/>
      <point x="153" y="288"/>
      <point x="164" y="267" type="curve"/>
      <point x="188" y="294"/>
      <point x="218" y="315"/>
      <point x="254" y="330" type="curve" smooth="yes"/>
      <point x="285" y="343"/>
      <point x="313" y="349"/>
      <point x="338" y="349" type="curve" smooth="yes"/>
      <point x="411" y="349"/>
      <point x="469" y="324"/>
      <point x="510" y="273" type="curve" smooth="yes"/>
      <point x="545" y="229"/>
      <point x="562" y="176"/>
      <point x="562" y="114" type="curve"/>
      <point x="-21" y="114" type="line"/>
      <point x="-21" y="0" type="line"/>
      <point x="683" y="0" type="line"/>
    </contour>
  </outline>
</glyph>
<glyph name="jehfinalarabic" format="1">
  <advance width="443"/>
  <unicode hex="FB8B"/>
  <outline>
    <contour>
      <point x="465" y="0" type="line"/>
      <point x="465" y="114" type="line"/>
      <point x="293" y="114" type="line"/>
      <point x="293" y="454" type="line"/>
      <point x="181" y="454" type="line"/>
      <point x="181" y="72" type="line" smooth="yes"/>
      <point x="181" y="-24"/>
      <point x="135" y="-70"/>
      <point x="42" y="-70" type="curve"/>
      <point x="42" y="-166" type="line"/>
      <point x="178" y="-166"/>
      <point x="269" y="-107"/>
      <point x="286" y="0" type="curve"/>
    </contour>
    <contour>
      <point x="103" y="546" type="line"/>
      <point x="103" y="658" type="line"/>
      <point x="-7" y="658" type="line"/>
      <point x="-7" y="546" type="line"/>
    </contour>
    <contour>
      <point x="292" y="546" type="line"/>
      <point x="292" y="658" type="line"/>
      <point x="182" y="658" type="line"/>
      <point x="182" y="546" type="line"/>
    </contour>
    <contour>
      <point x="199" y="705" type="line"/>
      <point x="199" y="816" type="line"/>
      <point x="89" y="816" type="line"/>
      <point x="89" y="705" type="line"/>
    </contour>
  </outline>
</glyph>
<glyph name="alefmaksuramedialarabic" format="1">
  <advance width="432"/>
  <unicode hex="FBFF"/>
  <outline>
    <contour>
      <point x="276" y="-219" type="line"/>
      <point x="276" y="-107" type="line"/>
      <point x="166" y="-107" type="line"/>
      <point x="166" y="-219" type="line"/>
    </contour>
    <contour>
      <point x="87" y="-219" type="line"/>
      <point x="87" y="-107" type="line"/>
      <point x="-23" y="-107" type="line"/>
      <point x="-23" y="-219" type="line"/>
    </contour>
    <contour>
      <point x="446" y="0" type="line"/>
      <point x="446" y="114" type="line"/>
      <point x="254" y="114" type="line"/>
      <point x="270" y="133"/>
      <point x="278" y="171"/>
      <point x="278" y="230" type="curve" smooth="yes"/>
      <point x="278" y="454" type="line"/>
      <point x="167" y="454" type="line"/>
      <point x="167" y="224" type="line" smooth="yes"/>
      <point x="167" y="189"/>
      <point x="163" y="163"/>
      <point x="155" y="148" type="curve" smooth="yes"/>
      <point x="143" y="125"/>
      <point x="121" y="114"/>
      <point x="88" y="114" type="curve" smooth="yes"/>
      <point x="-16" y="114" type="line"/>
      <point x="-16" y="0" type="line"/>
    </contour>
  </outline>
</glyph>
<glyph name="shaddadammatanarabic" format="1">
  <advance width="0"/>
  <unicode hex="FC5E"/>
  <outline>
    <contour>
      <point x="173" y="925" type="curve" smooth="yes"/>
      <point x="173" y="950"/>
      <point x="157" y="981"/>
      <point x="121" y="981" type="curve" smooth="yes"/>
      <point x="92" y="981"/>
      <point x="75" y="956"/>
      <point x="75" y="931" type="curve" smooth="yes"/>
      <point x="75" y="911"/>
      <point x="84" y="893"/>
      <point x="102" y="877" type="curve"/>
      <point x="89" y="865"/>
      <point x="53" y="853"/>
      <point x="32" y="853" type="curve"/>
      <point x="44" y="866"/>
      <point x="50" y="881"/>
      <point x="50" y="898" type="curve" smooth="yes"/>
      <point x="50" y="927"/>
      <point x="37" y="942"/>
      <point x="12" y="942" type="curve" smooth="yes"/>
      <point x="-8" y="942"/>
      <point x="-22" y="933"/>
      <point x="-29" y="911" type="curve"/>
      <point x="-20" y="918"/>
      <point x="-10" y="922"/>
      <point x="-2" y="922" type="curve" smooth="yes"/>
      <point x="16" y="922"/>
      <point x="26" y="910"/>
      <point x="26" y="893" type="curve" smooth="yes"/>
      <point x="26" y="872"/>
      <point x="19" y="857"/>
      <point x="5" y="848" type="curve"/>
      <point x="10" y="838"/>
      <point x="15" y="830"/>
      <point x="18" y="825" type="curve"/>
      <point x="125" y="825"/>
      <point x="173" y="888"/>
    </contour>
    <contour>
      <point x="207" y="752" type="curve" smooth="yes"/>
      <point x="190" y="830" type="line"/>
      <point x="158" y="822" type="line"/>
      <point x="172" y="755" type="line" smooth="yes"/>
      <point x="173" y="751"/>
      <point x="173" y="748"/>
      <point x="173" y="746" type="curve" smooth="yes"/>
      <point x="173" y="736"/>
      <point x="169" y="731"/>
      <point x="160" y="731" type="curve" smooth="yes"/>
      <point x="144" y="731"/>
      <point x="132" y="741"/>
      <point x="128" y="761" type="curve" smooth="yes"/>
      <point x="117" y="814" type="line"/>
      <point x="85" y="806" type="line"/>
      <point x="96" y="754" type="line" smooth="yes"/>
      <point x="97" y="750"/>
      <point x="97" y="746"/>
      <point x="97" y="742" type="curve" smooth="yes"/>
      <point x="97" y="722"/>
      <point x="82" y="712"/>
      <point x="73" y="712" type="curve" smooth="yes"/>
      <point x="66" y="712"/>
      <point x="61" y="718"/>
      <point x="58" y="730" type="curve" smooth="yes"/>
      <point x="43" y="798" type="line"/>
      <point x="12" y="792" type="line"/>
      <point x="28" y="714" type="line" smooth="yes"/>
      <point x="33" y="689"/>
      <point x="47" y="676"/>
      <point x="70" y="676" type="curve" smooth="yes"/>
      <point x="100" y="676"/>
      <point x="117" y="697"/>
      <point x="118" y="730" type="curve"/>
      <point x="131" y="708"/>
      <point x="145" y="697"/>
      <point x="162" y="697" type="curve" smooth="yes"/>
      <point x="193" y="697"/>
      <point x="208" y="713"/>
      <point x="208" y="733" type="curve" smooth="yes"/>
      <point x="208" y="738"/>
      <point x="208" y="745"/>
    </contour>
    <contour>
      <point x="124" y="957" type="curve" smooth="yes"/>
      <point x="137" y="957"/>
      <point x="150" y="944"/>
      <point x="150" y="931" type="curve" smooth="yes"/>
      <point x="150" y="916"/>
      <point x="140" y="903"/>
      <point x="120" y="891" type="curve"/>
      <point x="106" y="900"/>
      <point x="99" y="913"/>
      <point x="99" y="931" type="curve" smooth="yes"/>
      <point x="99" y="948"/>
      <point x="107" y="957"/>
    </contour>
  </outline>
</glyph>
<glyph name="shaddakasratanarabic" format="1">
  <advance width="0"/>
  <unicode hex="FC5F"/>
  <outline>
    <contour>
      <point x="204" y="880" type="curve" smooth="yes"/>
      <point x="188" y="958" type="line"/>
      <point x="156" y="951" type="line"/>
      <point x="171" y="883" type="line"/>
      <point x="171" y="874" type="line" smooth="yes"/>
      <point x="171" y="864"/>
      <point x="167" y="859"/>
      <point x="158" y="859" type="curve" smooth="yes"/>
      <point x="142" y="859"/>
      <point x="130" y="870"/>
      <point x="126" y="890" type="curve" smooth="yes"/>
      <point x="115" y="942" type="line"/>
      <point x="82" y="935" type="line"/>
      <point x="94" y="882" type="line" smooth="yes"/>
      <point x="95" y="879"/>
      <point x="95" y="875"/>
      <point x="95" y="870" type="curve" smooth="yes"/>
      <point x="95" y="851"/>
      <point x="80" y="841"/>
      <point x="71" y="841" type="curve" smooth="yes"/>
      <point x="64" y="841"/>
      <point x="59" y="847"/>
      <point x="56" y="858" type="curve" smooth="yes"/>
      <point x="41" y="927" type="line"/>
      <point x="10" y="920" type="line"/>
      <point x="26" y="843" type="line" smooth="yes"/>
      <point x="31" y="818"/>
      <point x="45" y="805"/>
      <point x="68" y="805" type="curve" smooth="yes"/>
      <point x="98" y="805"/>
      <point x="115" y="826"/>
      <point x="116" y="858" type="curve"/>
      <point x="129" y="836"/>
      <point x="144" y="825"/>
      <point x="160" y="825" type="curve" smooth="yes"/>
      <point x="191" y="825"/>
      <point x="207" y="842"/>
      <point x="207" y="861" type="curve" smooth="yes"/>
      <point x="207" y="866"/>
      <point x="206" y="873"/>
    </contour>
    <contour>
      <point x="231" y="809" type="curve"/>
      <point x="77" y="773" type="line" smooth="yes"/>
      <point x="57" y="766"/>
      <point x="44" y="753"/>
      <point x="38" y="735" type="curve"/>
      <point x="129" y="754"/>
      <point x="177" y="764"/>
      <point x="183" y="765" type="curve" smooth="yes"/>
      <point x="213" y="772"/>
      <point x="229" y="787"/>
    </contour>
    <contour>
      <point x="219" y="746" type="curve"/>
      <point x="65" y="710" type="line" smooth="yes"/>
      <point x="45" y="703"/>
      <point x="32" y="691"/>
      <point x="26" y="672" type="curve"/>
      <point x="117" y="691"/>
      <point x="165" y="702"/>
      <point x="172" y="703" type="curve" smooth="yes"/>
      <point x="201" y="710"/>
      <point x="217" y="725"/>
    </contour>
  </outline>
</glyph>
<glyph name="shaddafathaarabic" format="1">
  <advance width="0"/>
  <unicode hex="FC60"/>
  <outline>
    <contour>
      <point x="223" y="885" type="curve"/>
      <point x="69" y="848" type="line" smooth="yes"/>
      <point x="50" y="841"/>
      <point x="37" y="829"/>
      <point x="30" y="811" type="curve"/>
      <point x="121" y="830"/>
      <point x="169" y="840"/>
      <point x="176" y="841" type="curve" smooth="yes"/>
      <point x="205" y="848"/>
      <point x="220" y="863"/>
    </contour>
    <contour>
      <point x="235" y="741" type="curve" smooth="yes"/>
      <point x="219" y="817" type="line"/>
      <point x="187" y="811" type="line"/>
      <point x="202" y="743" type="line" smooth="yes"/>
      <point x="203" y="740"/>
      <point x="203" y="737"/>
      <point x="203" y="734" type="curve" smooth="yes"/>
      <point x="203" y="725"/>
      <point x="198" y="720"/>
      <point x="189" y="720" type="curve" smooth="yes"/>
      <point x="172" y="720"/>
      <point x="162" y="730"/>
      <point x="158" y="750" type="curve" smooth="yes"/>
      <point x="147" y="803" type="line"/>
      <point x="113" y="795" type="line"/>
      <point x="124" y="743" type="line" smooth="yes"/>
      <point x="125" y="738"/>
      <point x="126" y="734"/>
      <point x="126" y="731" type="curve" smooth="yes"/>
      <point x="126" y="711"/>
      <point x="113" y="701"/>
      <point x="102" y="701" type="curve" smooth="yes"/>
      <point x="95" y="701"/>
      <point x="90" y="707"/>
      <point x="88" y="719" type="curve" smooth="yes"/>
      <point x="73" y="787" type="line"/>
      <point x="41" y="780" type="line"/>
      <point x="57" y="703" type="line" smooth="yes"/>
      <point x="62" y="678"/>
      <point x="77" y="665"/>
      <point x="100" y="665" type="curve" smooth="yes"/>
      <point x="129" y="665"/>
      <point x="147" y="686"/>
      <point x="148" y="719" type="curve"/>
      <point x="161" y="696"/>
      <point x="175" y="685"/>
      <point x="192" y="685" type="curve" smooth="yes"/>
      <point x="223" y="685"/>
      <point x="238" y="703"/>
      <point x="238" y="722" type="curve" smooth="yes"/>
      <point x="238" y="727"/>
      <point x="237" y="733"/>
    </contour>
  </outline>
</glyph>
<glyph name="shaddadammaarabicX" format="1">
  <advance width="0"/>
  <unicode hex="FC61"/>
  <outline>
    <contour>
      <point x="185" y="916" type="curve" smooth="yes"/>
      <point x="185" y="941"/>
      <point x="168" y="972"/>
      <point x="133" y="972" type="curve" smooth="yes"/>
      <point x="102" y="972"/>
      <point x="86" y="947"/>
      <point x="86" y="922" type="curve" smooth="yes"/>
      <point x="86" y="902"/>
      <point x="95" y="884"/>
      <point x="113" y="869" type="curve"/>
      <point x="98" y="854"/>
      <point x="47" y="839"/>
      <point x="16" y="839" type="curve"/>
      <point x="30" y="816" type="line"/>
      <point x="135" y="816"/>
      <point x="185" y="879"/>
    </contour>
    <contour>
      <point x="226" y="747" type="curve" smooth="yes"/>
      <point x="210" y="823" type="line"/>
      <point x="178" y="816" type="line"/>
      <point x="193" y="749" type="line" smooth="yes"/>
      <point x="194" y="745"/>
      <point x="194" y="742"/>
      <point x="194" y="740" type="curve" smooth="yes"/>
      <point x="194" y="730"/>
      <point x="189" y="725"/>
      <point x="180" y="725" type="curve" smooth="yes"/>
      <point x="164" y="725"/>
      <point x="152" y="735"/>
      <point x="148" y="755" type="curve" smooth="yes"/>
      <point x="137" y="808" type="line"/>
      <point x="105" y="800" type="line"/>
      <point x="116" y="749" type="line" smooth="yes"/>
      <point x="117" y="744"/>
      <point x="117" y="740"/>
      <point x="117" y="737" type="curve" smooth="yes"/>
      <point x="117" y="716"/>
      <point x="102" y="707"/>
      <point x="93" y="707" type="curve" smooth="yes"/>
      <point x="86" y="707"/>
      <point x="81" y="713"/>
      <point x="78" y="724" type="curve" smooth="yes"/>
      <point x="64" y="792" type="line"/>
      <point x="32" y="786" type="line"/>
      <point x="48" y="709" type="line" smooth="yes"/>
      <point x="53" y="684"/>
      <point x="67" y="671"/>
      <point x="90" y="671" type="curve" smooth="yes"/>
      <point x="121" y="671"/>
      <point x="137" y="691"/>
      <point x="138" y="725" type="curve"/>
      <point x="151" y="702"/>
      <point x="166" y="691"/>
      <point x="183" y="691" type="curve" smooth="yes"/>
      <point x="214" y="691"/>
      <point x="229" y="707"/>
      <point x="229" y="727" type="curve" smooth="yes"/>
      <point x="229" y="732"/>
      <point x="228" y="739"/>
    </contour>
    <contour>
      <point x="135" y="948" type="curve" smooth="yes"/>
      <point x="150" y="948"/>
      <point x="161" y="935"/>
      <point x="161" y="922" type="curve" smooth="yes"/>
      <point x="161" y="907"/>
      <point x="151" y="894"/>
      <point x="131" y="882" type="curve"/>
      <point x="117" y="891"/>
      <point x="110" y="904"/>
      <point x="110" y="922" type="curve" smooth="yes"/>
      <point x="110" y="939"/>
      <point x="118" y="948"/>
    </contour>
  </outline>
</glyph>
<glyph name="shaddakasraarabic" format="1">
  <advance width="0"/>
  <unicode hex="FC62"/>
  <outline>
    <contour>
      <point x="230" y="806" type="curve" smooth="yes"/>
      <point x="214" y="883" type="line"/>
      <point x="182" y="876" type="line"/>
      <point x="196" y="808" type="line" smooth="yes"/>
      <point x="197" y="805"/>
      <point x="197" y="802"/>
      <point x="197" y="800" type="curve" smooth="yes"/>
      <point x="197" y="790"/>
      <point x="193" y="785"/>
      <point x="184" y="785" type="curve" smooth="yes"/>
      <point x="168" y="785"/>
      <point x="156" y="795"/>
      <point x="152" y="815" type="curve" smooth="yes"/>
      <point x="141" y="868" type="line"/>
      <point x="109" y="861" type="line"/>
      <point x="120" y="808" type="line" smooth="yes"/>
      <point x="121" y="804"/>
      <point x="121" y="800"/>
      <point x="121" y="796" type="curve" smooth="yes"/>
      <point x="121" y="776"/>
      <point x="106" y="767"/>
      <point x="97" y="767" type="curve" smooth="yes"/>
      <point x="90" y="767"/>
      <point x="85" y="773"/>
      <point x="82" y="784" type="curve" smooth="yes"/>
      <point x="67" y="852" type="line"/>
      <point x="36" y="845" type="line"/>
      <point x="52" y="768" type="line" smooth="yes"/>
      <point x="57" y="743"/>
      <point x="71" y="731"/>
      <point x="94" y="731" type="curve" smooth="yes"/>
      <point x="125" y="731"/>
      <point x="141" y="751"/>
      <point x="142" y="784" type="curve"/>
      <point x="155" y="762"/>
      <point x="169" y="751"/>
      <point x="186" y="751" type="curve" smooth="yes"/>
      <point x="217" y="751"/>
      <point x="232" y="767"/>
      <point x="232" y="787" type="curve" smooth="yes"/>
      <point x="232" y="792"/>
      <point x="231" y="798"/>
    </contour>
    <contour>
      <point x="258" y="742" type="curve"/>
      <point x="104" y="705" type="line" smooth="yes"/>
      <point x="84" y="698"/>
      <point x="71" y="686"/>
      <point x="65" y="667" type="curve"/>
      <point x="156" y="686"/>
      <point x="204" y="697"/>
      <point x="211" y="698" type="curve" smooth="yes"/>
      <point x="240" y="705"/>
      <point x="255" y="720"/>
    </contour>
  </outline>
</glyph>
<glyph name="alefwithfathatanfinal" format="1">
  <advance width="346"/>
  <unicode hex="FD3C"/>
  <outline>
    <contour>
      <point x="248" y="817" type="curve"/>
      <point x="93" y="781" type="line" smooth="yes"/>
      <point x="73" y="774"/>
      <point x="60" y="761"/>
      <point x="54" y="743" type="curve"/>
      <point x="64" y="745" type="line" smooth="yes"/>
      <point x="148" y="763"/>
      <point x="193" y="772"/>
      <point x="200" y="774" type="curve" smooth="yes"/>
      <point x="229" y="781"/>
      <point x="245" y="796"/>
    </contour>
    <contour>
      <point x="236" y="755" type="curve"/>
      <point x="81" y="719" type="line" smooth="yes"/>
      <point x="61" y="712"/>
      <point x="48" y="699"/>
      <point x="42" y="681" type="curve"/>
      <point x="133" y="700"/>
      <point x="181" y="710"/>
      <point x="188" y="711" type="curve" smooth="yes"/>
      <point x="217" y="718"/>
      <point x="233" y="733"/>
    </contour>
    <contour>
      <point x="366" y="0" type="line"/>
      <point x="366" y="114" type="line"/>
      <point x="300" y="114" type="line" smooth="yes"/>
      <point x="258" y="114"/>
      <point x="229" y="120"/>
      <point x="214" y="131" type="curve" smooth="yes"/>
      <point x="193" y="146"/>
      <point x="182" y="178"/>
      <point x="182" y="227" type="curve" smooth="yes"/>
      <point x="182" y="645" type="line"/>
      <point x="71" y="645" type="line"/>
      <point x="71" y="182" type="line" smooth="yes"/>
      <point x="71" y="127"/>
      <point x="84" y="84"/>
      <point x="111" y="52" type="curve" smooth="yes"/>
      <point x="140" y="17"/>
      <point x="181" y="0"/>
      <point x="235" y="0" type="curve" smooth="yes"/>
    </contour>
  </outline>
</glyph>
<glyph name="alefwithfathatanisolated" format="1">
  <advance width="214"/>
  <unicode hex="FD3D"/>
  <outline>
    <contour>
      <point x="182" y="0" type="line"/>
      <point x="182" y="646" type="line"/>
      <point x="71" y="646" type="line"/>
      <point x="71" y="0" type="line"/>
    </contour>
    <contour>
      <point x="238" y="817" type="curve"/>
      <point x="83" y="781" type="line" smooth="yes"/>
      <point x="63" y="774"/>
      <point x="50" y="761"/>
      <point x="44" y="743" type="curve"/>
      <point x="135" y="762"/>
      <point x="183" y="772"/>
      <point x="190" y="774" type="curve" smooth="yes"/>
      <point x="219" y="781"/>
      <point x="235" y="796"/>
    </contour>
    <contour>
      <point x="226" y="755" type="curve"/>
      <point x="71" y="719" type="line" smooth="yes"/>
      <point x="51" y="712"/>
      <point x="38" y="699"/>
      <point x="32" y="681" type="curve"/>
      <point x="123" y="700"/>
      <point x="171" y="710"/>
      <point x="178" y="711" type="curve" smooth="yes"/>
      <point x="207" y="718"/>
      <point x="223" y="733"/>
    </contour>
  </outline>
</glyph>
<glyph name="ornateleftparenthesis" format="1">
  <advance width="310"/>
  <unicode hex="FD3E"/>
  <outline>
    <contour>
      <point x="310" y="-97" type="line"/>
      <point x="259" y="-56"/>
      <point x="220" y="0"/>
      <point x="191" y="71" type="curve" smooth="yes"/>
      <point x="162" y="142"/>
      <point x="148" y="219"/>
      <point x="148" y="301" type="curve" smooth="yes"/>
      <point x="148" y="424"/>
      <point x="178" y="527"/>
      <point x="238" y="610" type="curve" smooth="yes"/>
      <point x="253" y="631"/>
      <point x="276" y="658"/>
      <point x="308" y="691" type="curve"/>
      <point x="266" y="738" type="line"/>
      <point x="209" y="695"/>
      <point x="168" y="652"/>
      <point x="133" y="604" type="curve" smooth="yes"/>
      <point x="68" y="513"/>
      <point x="35" y="408"/>
      <point x="35" y="291" type="curve" smooth="yes"/>
      <point x="35" y="123"/>
      <point x="106" y="-19"/>
      <point x="247" y="-135" type="curve" smooth="yes"/>
      <point x="251" y="-138"/>
      <point x="258" y="-143"/>
      <point x="269" y="-151" type="curve"/>
    </contour>
  </outline>
</glyph>
<glyph name="ornaterightparenthesis" format="1">
  <advance width="368"/>
  <unicode hex="FD3F"/>
  <outline>
    <contour>
      <point x="336" y="295" type="curve" smooth="yes"/>
      <point x="336" y="416"/>
      <point x="300" y="522"/>
      <point x="229" y="615" type="curve" smooth="yes"/>
      <point x="200" y="652"/>
      <point x="165" y="688"/>
      <point x="124" y="721" type="curve" smooth="yes"/>
      <point x="115" y="728"/>
      <point x="108" y="733"/>
      <point x="103" y="738" type="curve"/>
      <point x="62" y="683" type="line"/>
      <point x="113" y="642"/>
      <point x="152" y="586"/>
      <point x="180" y="515" type="curve" smooth="yes"/>
      <point x="209" y="444"/>
      <point x="223" y="368"/>
      <point x="223" y="286" type="curve" smooth="yes"/>
      <point x="223" y="163"/>
      <point x="193" y="60"/>
      <point x="132" y="-24" type="curve" smooth="yes"/>
      <point x="117" y="-45"/>
      <point x="94" y="-71"/>
      <point x="62" y="-104" type="curve"/>
      <point x="105" y="-151" type="line"/>
      <point x="161" y="-108"/>
      <point x="205" y="-64"/>
      <point x="237" y="-18" type="curve" smooth="yes"/>
      <point x="303" y="75"/>
      <point x="336" y="180"/>
    </contour>
  </outline>
</glyph>
<glyph name="allahisolated" format="1">
  <advance width="1223"/>
  <unicode hex="FDF2"/>
  <outline>
    <contour>
      <point x="872" y="808" type="line"/>
      <point x="839" y="808" type="line"/>
      <point x="839" y="739" type="line" smooth="yes"/>
      <point x="839" y="725"/>
      <point x="834" y="718"/>
      <point x="825" y="718" type="curve" smooth="yes"/>
      <point x="807" y="718"/>
      <point x="797" y="733"/>
      <point x="797" y="755" type="curve" smooth="yes"/>
      <point x="797" y="808" type="line"/>
      <point x="764" y="808" type="line"/>
      <point x="764" y="755" type="line" smooth="yes"/>
      <point x="764" y="734"/>
      <point x="755" y="718"/>
      <point x="736" y="718" type="curve" smooth="yes"/>
      <point x="727" y="718"/>
      <point x="723" y="725"/>
      <point x="722" y="739" type="curve" smooth="yes"/>
      <point x="722" y="808" type="line"/>
      <point x="689" y="808" type="line"/>
      <point x="689" y="730" type="line" smooth="yes"/>
      <point x="689" y="699"/>
      <point x="704" y="683"/>
      <point x="735" y="683" type="curve" smooth="yes"/>
      <point x="758" y="683"/>
      <point x="774" y="697"/>
      <point x="782" y="726" type="curve"/>
      <point x="790" y="699"/>
      <point x="805" y="683"/>
      <point x="828" y="683" type="curve" smooth="yes"/>
      <point x="857" y="683"/>
      <point x="872" y="697"/>
      <point x="872" y="730" type="curve" smooth="yes"/>
    </contour>
    <contour>
      <point x="1190" y="181" type="curve" smooth="yes"/>
      <point x="1190" y="645" type="line"/>
      <point x="1079" y="645" type="line"/>
      <point x="1079" y="219" type="line" smooth="yes"/>
      <point x="1079" y="133"/>
      <point x="1062" y="114"/>
      <point x="1004" y="114" type="curve" smooth="yes"/>
      <point x="824" y="114" type="line"/>
      <point x="841" y="133"/>
      <point x="849" y="171"/>
      <point x="849" y="230" type="curve" smooth="yes"/>
      <point x="849" y="635" type="line"/>
      <point x="738" y="635" type="line"/>
      <point x="738" y="224" type="line" smooth="yes"/>
      <point x="738" y="139"/>
      <point x="715" y="114"/>
      <point x="659" y="114" type="curve" smooth="yes"/>
      <point x="598" y="114" type="line" smooth="yes"/>
      <point x="523" y="114"/>
      <point x="486" y="156"/>
      <point x="486" y="234" type="curve" smooth="yes"/>
      <point x="486" y="551" type="line"/>
      <point x="239" y="551" type="line" smooth="yes"/>
      <point x="111" y="551"/>
      <point x="32" y="458"/>
      <point x="32" y="308" type="curve" smooth="yes"/>
      <point x="32" y="169"/>
      <point x="111" y="73"/>
      <point x="239" y="73" type="curve" smooth="yes"/>
      <point x="289" y="73"/>
      <point x="332" y="98"/>
      <point x="367" y="148" type="curve"/>
      <point x="390" y="59"/>
      <point x="461" y="0"/>
      <point x="548" y="0" type="curve" smooth="yes"/>
      <point x="1022" y="0" type="line" smooth="yes"/>
      <point x="1134" y="0"/>
      <point x="1190" y="60"/>
    </contour>
    <contour>
      <point x="370" y="319" type="line" smooth="yes"/>
      <point x="370" y="234"/>
      <point x="326" y="166"/>
      <point x="253" y="166" type="curve" smooth="yes"/>
      <point x="186" y="166"/>
      <point x="143" y="232"/>
      <point x="143" y="309" type="curve" smooth="yes"/>
      <point x="143" y="402"/>
      <point x="191" y="464"/>
      <point x="269" y="464" type="curve" smooth="yes"/>
      <point x="370" y="464" type="line"/>
    </contour>
  </outline>
</glyph>
<glyph name="alefmaddaabovefinalarabic" format="1">
  <advance width="346"/>
  <unicode hex="FE82"/>
  <outline>
    <contour>
      <point x="226" y="731" type="curve"/>
      <point x="217" y="766" type="line"/>
      <point x="202" y="747"/>
      <point x="186" y="738"/>
      <point x="171" y="738" type="curve" smooth="yes"/>
      <point x="160" y="738"/>
      <point x="143" y="746"/>
      <point x="118" y="763" type="curve" smooth="yes"/>
      <point x="93" y="780"/>
      <point x="75" y="788"/>
      <point x="64" y="788" type="curve" smooth="yes"/>
      <point x="46" y="788"/>
      <point x="29" y="774"/>
      <point x="13" y="746" type="curve"/>
      <point x="22" y="712" type="line"/>
      <point x="35" y="730"/>
      <point x="49" y="739"/>
      <point x="64" y="739" type="curve" smooth="yes"/>
      <point x="79" y="739"/>
      <point x="99" y="731"/>
      <point x="122" y="714" type="curve" smooth="yes"/>
      <point x="145" y="697"/>
      <point x="162" y="689"/>
      <point x="172" y="689" type="curve" smooth="yes"/>
      <point x="190" y="689"/>
      <point x="208" y="703"/>
    </contour>
    <contour>
      <point x="366" y="0" type="line"/>
      <point x="366" y="114" type="line"/>
      <point x="300" y="114" type="line" smooth="yes"/>
      <point x="258" y="114"/>
      <point x="229" y="120"/>
      <point x="214" y="131" type="curve" smooth="yes"/>
      <point x="193" y="146"/>
      <point x="182" y="178"/>
      <point x="182" y="227" type="curve" smooth="yes"/>
      <point x="182" y="645" type="line"/>
      <point x="71" y="645" type="line"/>
      <point x="71" y="182" type="line" smooth="yes"/>
      <point x="71" y="127"/>
      <point x="84" y="84"/>
      <point x="111" y="52" type="curve" smooth="yes"/>
      <point x="140" y="17"/>
      <point x="181" y="0"/>
      <point x="235" y="0" type="curve" smooth="yes"/>
    </contour>
  </outline>
</glyph>
<glyph name="alefhamzaabovefinalarabic" format="1">
  <advance width="346"/>
  <unicode hex="FE84"/>
  <outline>
    <contour>
      <point x="210" y="697" type="line"/>
      <point x="210" y="743" type="line"/>
      <point x="129" y="743" type="line"/>
      <point x="117" y="750"/>
      <point x="111" y="763"/>
      <point x="111" y="780" type="curve" smooth="yes"/>
      <point x="111" y="799"/>
      <point x="124" y="818"/>
      <point x="145" y="818" type="curve" smooth="yes"/>
      <point x="160" y="818"/>
      <point x="170" y="811"/>
      <point x="173" y="796" type="curve"/>
      <point x="209" y="815" type="line"/>
      <point x="195" y="844"/>
      <point x="174" y="859"/>
      <point x="146" y="859" type="curve" smooth="yes"/>
      <point x="103" y="859"/>
      <point x="68" y="825"/>
      <point x="68" y="778" type="curve" smooth="yes"/>
      <point x="68" y="773"/>
      <point x="71" y="762"/>
      <point x="77" y="743" type="curve"/>
      <point x="37" y="743" type="line"/>
      <point x="37" y="697" type="line"/>
    </contour>
    <contour>
      <point x="366" y="0" type="line"/>
      <point x="366" y="114" type="line"/>
      <point x="300" y="114" type="line" smooth="yes"/>
      <point x="258" y="114"/>
      <point x="229" y="120"/>
      <point x="214" y="131" type="curve" smooth="yes"/>
      <point x="193" y="146"/>
      <point x="182" y="178"/>
      <point x="182" y="227" type="curve" smooth="yes"/>
      <point x="182" y="645" type="line"/>
      <point x="71" y="645" type="line"/>
      <point x="71" y="182" type="line" smooth="yes"/>
      <point x="71" y="127"/>
      <point x="84" y="84"/>
      <point x="111" y="52" type="curve" smooth="yes"/>
      <point x="140" y="17"/>
      <point x="181" y="0"/>
      <point x="235" y="0" type="curve" smooth="yes"/>
    </contour>
  </outline>
</glyph>
<glyph name="wawhamzaabovefinalarabic" format="1">
  <advance width="621"/>
  <unicode hex="FE86"/>
  <outline>
    <contour>
      <point x="376" y="511" type="line"/>
      <point x="376" y="574" type="line"/>
      <point x="280" y="574" type="line"/>
      <point x="268" y="579"/>
      <point x="262" y="591"/>
      <point x="262" y="609" type="curve" smooth="yes"/>
      <point x="262" y="634"/>
      <point x="272" y="647"/>
      <point x="291" y="647" type="curve" smooth="yes"/>
      <point x="304" y="647"/>
      <point x="313" y="638"/>
      <point x="319" y="621" type="curve"/>
      <point x="375" y="647" type="line"/>
      <point x="358" y="686"/>
      <point x="330" y="706"/>
      <point x="291" y="706" type="curve" smooth="yes"/>
      <point x="238" y="706"/>
      <point x="197" y="663"/>
      <point x="197" y="607" type="curve" smooth="yes"/>
      <point x="197" y="597"/>
      <point x="199" y="586"/>
      <point x="202" y="574" type="curve"/>
      <point x="154" y="574" type="line"/>
      <point x="154" y="511" type="line"/>
    </contour>
    <contour>
      <point x="631" y="0" type="line"/>
      <point x="631" y="114" type="line"/>
      <point x="494" y="114" type="line"/>
      <point x="494" y="230" type="line" smooth="yes"/>
      <point x="494" y="361"/>
      <point x="408" y="455"/>
      <point x="286" y="455" type="curve" smooth="yes"/>
      <point x="159" y="455"/>
      <point x="62" y="365"/>
      <point x="62" y="233" type="curve" smooth="yes"/>
      <point x="62" y="101"/>
      <point x="160" y="0"/>
      <point x="281" y="0" type="curve" smooth="yes"/>
      <point x="388" y="0" type="line"/>
      <point x="372" y="-53"/>
      <point x="335" y="-77"/>
      <point x="277" y="-77" type="curve"/>
      <point x="277" y="-165" type="line"/>
      <point x="407" y="-165"/>
      <point x="480" y="-110"/>
      <point x="495" y="0" type="curve"/>
    </contour>
    <contour>
      <point x="382" y="114" type="line"/>
      <point x="283" y="114" type="line" smooth="yes"/>
      <point x="223" y="114"/>
      <point x="176" y="170"/>
      <point x="176" y="239" type="curve" smooth="yes"/>
      <point x="176" y="306"/>
      <point x="218" y="352"/>
      <point x="284" y="352" type="curve" smooth="yes"/>
      <point x="342" y="352"/>
      <point x="376" y="310"/>
      <point x="382" y="251" type="curve"/>
    </contour>
  </outline>
</glyph>
<glyph name="alefhamzabelowfinalarabic" format="1">
  <advance width="346"/>
  <unicode hex="FE88"/>
  <outline>
    <contour>
      <point x="250" y="-205" type="line"/>
      <point x="250" y="-159" type="line"/>
      <point x="169" y="-159" type="line"/>
      <point x="157" y="-152"/>
      <point x="151" y="-139"/>
      <point x="151" y="-121" type="curve" smooth="yes"/>
      <point x="151" y="-101"/>
      <point x="165" y="-82"/>
      <point x="185" y="-82" type="curve" smooth="yes"/>
      <point x="200" y="-82"/>
      <point x="210" y="-89"/>
      <point x="213" y="-104" type="curve"/>
      <point x="249" y="-87" type="line"/>
      <point x="235" y="-56"/>
      <point x="214" y="-41"/>
      <point x="186" y="-41" type="curve" smooth="yes"/>
      <point x="143" y="-41"/>
      <point x="108" y="-77"/>
      <point x="108" y="-124" type="curve" smooth="yes"/>
      <point x="108" y="-128"/>
      <point x="111" y="-140"/>
      <point x="117" y="-159" type="curve"/>
      <point x="77" y="-159" type="line"/>
      <point x="77" y="-205" type="line"/>
    </contour>
    <contour>
      <point x="366" y="0" type="line"/>
      <point x="366" y="114" type="line"/>
      <point x="300" y="114" type="line" smooth="yes"/>
      <point x="258" y="114"/>
      <point x="229" y="120"/>
      <point x="214" y="131" type="curve" smooth="yes"/>
      <point x="193" y="146"/>
      <point x="182" y="178"/>
      <point x="182" y="227" type="curve" smooth="yes"/>
      <point x="182" y="645" type="line"/>
      <point x="71" y="645" type="line"/>
      <point x="71" y="182" type="line" smooth="yes"/>
      <point x="71" y="127"/>
      <point x="84" y="84"/>
      <point x="111" y="52" type="curve" smooth="yes"/>
      <point x="140" y="17"/>
      <point x="181" y="0"/>
      <point x="235" y="0" type="curve" smooth="yes"/>
    </contour>
  </outline>
</glyph>
<glyph name="yehhamzaabovefinalarabic" format="1">
  <advance width="896"/>
  <unicode hex="FE8A"/>
  <outline>
    <contour>
      <point x="281" y="357" type="line"/>
      <point x="281" y="424" type="line"/>
      <point x="155" y="424" type="line"/>
      <point x="146" y="435"/>
      <point x="141" y="449"/>
      <point x="141" y="468" type="curve" smooth="yes"/>
      <point x="141" y="507"/>
      <point x="156" y="526"/>
      <point x="186" y="526" type="curve" smooth="yes"/>
      <point x="207" y="526"/>
      <point x="221" y="515"/>
      <point x="228" y="494" type="curve"/>
      <point x="275" y="526" type="line"/>
      <point x="258" y="565"/>
      <point x="227" y="585"/>
      <point x="183" y="585" type="curve" smooth="yes"/>
      <point x="120" y="585"/>
      <point x="77" y="536"/>
      <point x="77" y="473" type="curve" smooth="yes"/>
      <point x="77" y="456"/>
      <point x="80" y="439"/>
      <point x="86" y="424" type="curve"/>
      <point x="33" y="424" type="line"/>
      <point x="33" y="357" type="line"/>
    </contour>
    <contour>
      <point x="909" y="114" type="line"/>
      <point x="867" y="114" type="line" smooth="yes"/>
      <point x="810" y="114"/>
      <point x="771" y="143"/>
      <point x="730" y="218" type="curve" smooth="yes"/>
      <point x="686" y="297"/>
      <point x="620" y="337"/>
      <point x="532" y="337" type="curve" smooth="yes"/>
      <point x="488" y="337" type="line"/>
      <point x="488" y="235" type="line"/>
      <point x="494" y="236"/>
      <point x="500" y="236"/>
      <point x="506" y="236" type="curve" smooth="yes"/>
      <point x="570" y="236"/>
      <point x="607" y="192"/>
      <point x="607" y="130" type="curve" smooth="yes"/>
      <point x="607" y="28"/>
      <point x="509" y="-58"/>
      <point x="379" y="-58" type="curve" smooth="yes"/>
      <point x="234" y="-58"/>
      <point x="144" y="39"/>
      <point x="144" y="194" type="curve" smooth="yes"/>
      <point x="144" y="293" type="line"/>
      <point x="32" y="293" type="line"/>
      <point x="32" y="181" type="line" smooth="yes"/>
      <point x="32" y="-16"/>
      <point x="184" y="-166"/>
      <point x="376" y="-166" type="curve" smooth="yes"/>
      <point x="539" y="-166"/>
      <point x="673" y="-68"/>
      <point x="705" y="88" type="curve"/>
      <point x="751" y="19"/>
      <point x="786" y="0"/>
      <point x="909" y="0" type="curve"/>
    </contour>
  </outline>
</glyph>
<glyph name="yehhamzaaboveinitialarabic" format="1">
  <advance width="302"/>
  <unicode hex="FE8B"/>
  <outline>
    <contour>
      <point x="268" y="455" type="line"/>
      <point x="268" y="522" type="line"/>
      <point x="142" y="522" type="line"/>
      <point x="133" y="533"/>
      <point x="128" y="547"/>
      <point x="128" y="566" type="curve" smooth="yes"/>
      <point x="128" y="604"/>
      <point x="143" y="623"/>
      <point x="173" y="623" type="curve" smooth="yes"/>
      <point x="194" y="623"/>
      <point x="208" y="613"/>
      <point x="215" y="592" type="curve"/>
      <point x="262" y="623" type="line"/>
      <point x="245" y="664"/>
      <point x="214" y="684"/>
      <point x="171" y="684" type="curve" smooth="yes"/>
      <point x="108" y="684"/>
      <point x="63" y="635"/>
      <point x="63" y="572" type="curve" smooth="yes"/>
      <point x="63" y="554"/>
      <point x="66" y="537"/>
      <point x="73" y="522" type="curve"/>
      <point x="19" y="522" type="line"/>
      <point x="19" y="455" type="line"/>
    </contour>
    <contour>
      <point x="268" y="181" type="curve" smooth="yes"/>
      <point x="268" y="397" type="line"/>
      <point x="156" y="397" type="line"/>
      <point x="156" y="219" type="line" smooth="yes"/>
      <point x="156" y="183"/>
      <point x="153" y="159"/>
      <point x="148" y="147" type="curve" smooth="yes"/>
      <point x="137" y="125"/>
      <point x="114" y="114"/>
      <point x="77" y="114" type="curve" smooth="yes"/>
      <point x="-8" y="114" type="line"/>
      <point x="-8" y="0" type="line"/>
      <point x="100" y="0" type="line" smooth="yes"/>
      <point x="212" y="0"/>
      <point x="268" y="60"/>
    </contour>
  </outline>
</glyph>
<glyph name="aleffinalarabic" format="1">
  <advance width="346"/>
  <unicode hex="FE8E"/>
  <outline>
    <contour>
      <point x="366" y="0" type="line"/>
      <point x="366" y="114" type="line"/>
      <point x="300" y="114" type="line" smooth="yes"/>
      <point x="258" y="114"/>
      <point x="229" y="120"/>
      <point x="214" y="131" type="curve" smooth="yes"/>
      <point x="193" y="146"/>
      <point x="182" y="178"/>
      <point x="182" y="227" type="curve" smooth="yes"/>
      <point x="182" y="645" type="line"/>
      <point x="71" y="645" type="line"/>
      <point x="71" y="182" type="line" smooth="yes"/>
      <point x="71" y="127"/>
      <point x="84" y="84"/>
      <point x="111" y="52" type="curve" smooth="yes"/>
      <point x="140" y="17"/>
      <point x="181" y="0"/>
      <point x="235" y="0" type="curve" smooth="yes"/>
    </contour>
  </outline>
</glyph>
<glyph name="behinitialarabic" format="1">
  <advance width="301"/>
  <unicode hex="FE91"/>
  <outline>
    <contour>
      <point x="267" y="181" type="curve" smooth="yes"/>
      <point x="267" y="454" type="line"/>
      <point x="156" y="454" type="line"/>
      <point x="156" y="219" type="line" smooth="yes"/>
      <point x="156" y="183"/>
      <point x="153" y="159"/>
      <point x="148" y="147" type="curve" smooth="yes"/>
      <point x="137" y="125"/>
      <point x="114" y="114"/>
      <point x="77" y="114" type="curve" smooth="yes"/>
      <point x="-8" y="114" type="line"/>
      <point x="-8" y="0" type="line"/>
      <point x="100" y="0" type="line" smooth="yes"/>
      <point x="211" y="0"/>
      <point x="267" y="60"/>
    </contour>
    <contour>
      <point x="266" y="-219" type="line"/>
      <point x="266" y="-107" type="line"/>
      <point x="157" y="-107" type="line"/>
      <point x="157" y="-219" type="line"/>
    </contour>
  </outline>
</glyph>
<glyph name="behmedialarabic" format="1">
  <advance width="431"/>
  <unicode hex="FE92"/>
  <outline>
    <contour>
      <point x="277" y="-220" type="line"/>
      <point x="277" y="-108" type="line"/>
      <point x="167" y="-108" type="line"/>
      <point x="167" y="-220" type="line"/>
    </contour>
    <contour>
      <point x="446" y="0" type="line"/>
      <point x="446" y="114" type="line"/>
      <point x="254" y="114" type="line"/>
      <point x="270" y="133"/>
      <point x="278" y="171"/>
      <point x="278" y="230" type="curve" smooth="yes"/>
      <point x="278" y="454" type="line"/>
      <point x="167" y="454" type="line"/>
      <point x="167" y="224" type="line" smooth="yes"/>
      <point x="167" y="189"/>
      <point x="163" y="163"/>
      <point x="155" y="148" type="curve" smooth="yes"/>
      <point x="143" y="125"/>
      <point x="121" y="114"/>
      <point x="88" y="114" type="curve" smooth="yes"/>
      <point x="-16" y="114" type="line"/>
      <point x="-16" y="0" type="line"/>
    </contour>
  </outline>
</glyph>
<glyph name="tehmarbutafinalarabic" format="1">
  <advance width="656"/>
  <unicode hex="FE94"/>
  <outline>
    <contour>
      <point x="669" y="0" type="line"/>
      <point x="669" y="114" type="line"/>
      <point x="598" y="114" type="line" smooth="yes"/>
      <point x="523" y="114"/>
      <point x="486" y="156"/>
      <point x="486" y="234" type="curve" smooth="yes"/>
      <point x="486" y="551" type="line"/>
      <point x="239" y="551" type="line" smooth="yes"/>
      <point x="111" y="551"/>
      <point x="32" y="458"/>
      <point x="32" y="308" type="curve" smooth="yes"/>
      <point x="32" y="169"/>
      <point x="111" y="73"/>
      <point x="239" y="73" type="curve" smooth="yes"/>
      <point x="289" y="73"/>
      <point x="332" y="98"/>
      <point x="367" y="148" type="curve"/>
      <point x="390" y="59"/>
      <point x="461" y="0"/>
      <point x="548" y="0" type="curve" smooth="yes"/>
    </contour>
    <contour>
      <point x="370" y="319" type="line" smooth="yes"/>
      <point x="370" y="234"/>
      <point x="326" y="166"/>
      <point x="253" y="166" type="curve" smooth="yes"/>
      <point x="186" y="166"/>
      <point x="143" y="232"/>
      <point x="143" y="309" type="curve" smooth="yes"/>
      <point x="143" y="402"/>
      <point x="191" y="464"/>
      <point x="269" y="464" type="curve" smooth="yes"/>
      <point x="370" y="464" type="line"/>
    </contour>
    <contour>
      <point x="288" y="632" type="line"/>
      <point x="288" y="744" type="line"/>
      <point x="178" y="744" type="line"/>
      <point x="178" y="632" type="line"/>
    </contour>
    <contour>
      <point x="477" y="632" type="line"/>
      <point x="477" y="744" type="line"/>
      <point x="367" y="744" type="line"/>
      <point x="367" y="632" type="line"/>
    </contour>
  </outline>
</glyph>
<glyph name="tehinitialarabic" format="1">
  <advance width="308"/>
  <unicode hex="FE97"/>
  <outline>
    <contour>
      <point x="276" y="181" type="curve" smooth="yes"/>
      <point x="276" y="454" type="line"/>
      <point x="164" y="454" type="line"/>
      <point x="164" y="219" type="line" smooth="yes"/>
      <point x="164" y="183"/>
      <point x="161" y="159"/>
      <point x="156" y="147" type="curve" smooth="yes"/>
      <point x="145" y="125"/>
      <point x="122" y="114"/>
      <point x="85" y="114" type="curve" smooth="yes"/>
      <point x="-9" y="114" type="line"/>
      <point x="-9" y="0" type="line"/>
      <point x="109" y="0" type="line" smooth="yes"/>
      <point x="220" y="0"/>
      <point x="276" y="60"/>
    </contour>
    <contour>
      <point x="84" y="546" type="line"/>
      <point x="84" y="657" type="line"/>
      <point x="-26" y="657" type="line"/>
      <point x="-26" y="546" type="line"/>
    </contour>
    <contour>
      <point x="273" y="546" type="line"/>
      <point x="273" y="657" type="line"/>
      <point x="163" y="657" type="line"/>
      <point x="163" y="546" type="line"/>
    </contour>
  </outline>
</glyph>
<glyph name="tehmedialarabic" format="1">
  <advance width="431"/>
  <unicode hex="FE98"/>
  <outline>
    <contour>
      <point x="88" y="547" type="line"/>
      <point x="88" y="658" type="line"/>
      <point x="-22" y="658" type="line"/>
      <point x="-22" y="547" type="line"/>
    </contour>
    <contour>
      <point x="278" y="547" type="line"/>
      <point x="278" y="658" type="line"/>
      <point x="168" y="658" type="line"/>
      <point x="168" y="547" type="line"/>
    </contour>
    <contour>
      <point x="446" y="0" type="line"/>
      <point x="446" y="114" type="line"/>
      <point x="254" y="114" type="line"/>
      <point x="270" y="133"/>
      <point x="278" y="171"/>
      <point x="278" y="230" type="curve" smooth="yes"/>
      <point x="278" y="454" type="line"/>
      <point x="167" y="454" type="line"/>
      <point x="167" y="224" type="line" smooth="yes"/>
      <point x="167" y="189"/>
      <point x="163" y="163"/>
      <point x="155" y="148" type="curve" smooth="yes"/>
      <point x="143" y="125"/>
      <point x="121" y="114"/>
      <point x="88" y="114" type="curve" smooth="yes"/>
      <point x="-16" y="114" type="line"/>
      <point x="-16" y="0" type="line"/>
    </contour>
  </outline>
</glyph>
<glyph name="thehfinalarabic" format="1">
  <advance width="1020"/>
  <unicode hex="FE9A"/>
  <outline>
    <contour>
      <point x="1034" y="0" type="line"/>
      <point x="1034" y="114" type="line"/>
      <point x="843" y="114" type="line"/>
      <point x="860" y="133"/>
      <point x="868" y="171"/>
      <point x="868" y="230" type="curve" smooth="yes"/>
      <point x="868" y="454" type="line"/>
      <point x="756" y="454" type="line"/>
      <point x="756" y="224" type="line" smooth="yes"/>
      <point x="756" y="189"/>
      <point x="752" y="163"/>
      <point x="744" y="148" type="curve" smooth="yes"/>
      <point x="733" y="125"/>
      <point x="710" y="114"/>
      <point x="677" y="114" type="curve" smooth="yes"/>
      <point x="337" y="114" type="line" smooth="yes"/>
      <point x="276" y="114"/>
      <point x="230" y="125"/>
      <point x="200" y="146" type="curve" smooth="yes"/>
      <point x="162" y="172"/>
      <point x="143" y="218"/>
      <point x="143" y="283" type="curve" smooth="yes"/>
      <point x="143" y="454" type="line"/>
      <point x="32" y="454" type="line"/>
      <point x="32" y="283" type="line" smooth="yes"/>
      <point x="32" y="94"/>
      <point x="138" y="0"/>
      <point x="350" y="0" type="curve" smooth="yes"/>
    </contour>
    <contour>
      <point x="505" y="612" type="line"/>
      <point x="505" y="724" type="line"/>
      <point x="396" y="724" type="line"/>
      <point x="396" y="612" type="line"/>
    </contour>
    <contour>
      <point x="598" y="455" type="line"/>
      <point x="598" y="566" type="line"/>
      <point x="489" y="566" type="line"/>
      <point x="489" y="455" type="line"/>
    </contour>
    <contour>
      <point x="408" y="455" type="line"/>
      <point x="408" y="566" type="line"/>
      <point x="299" y="566" type="line"/>
      <point x="299" y="455" type="line"/>
    </contour>
  </outline>
</glyph>
<glyph name="thehinitialarabic" format="1">
  <advance width="308"/>
  <unicode hex="FE9B"/>
  <outline>
    <contour>
      <point x="276" y="181" type="curve" smooth="yes"/>
      <point x="276" y="454" type="line"/>
      <point x="164" y="454" type="line"/>
      <point x="164" y="219" type="line" smooth="yes"/>
      <point x="164" y="182"/>
      <point x="161" y="158"/>
      <point x="156" y="147" type="curve" smooth="yes"/>
      <point x="145" y="125"/>
      <point x="122" y="114"/>
      <point x="85" y="114" type="curve" smooth="yes"/>
      <point x="-13" y="114" type="line"/>
      <point x="-13" y="0" type="line"/>
      <point x="109" y="0" type="line" smooth="yes"/>
      <point x="220" y="0"/>
      <point x="276" y="60"/>
    </contour>
    <contour>
      <point x="185" y="690" type="line"/>
      <point x="185" y="789" type="line"/>
      <point x="77" y="789" type="line"/>
      <point x="77" y="690" type="line"/>
    </contour>
    <contour>
      <point x="273" y="546" type="line"/>
      <point x="273" y="645" type="line"/>
      <point x="165" y="645" type="line"/>
      <point x="165" y="546" type="line"/>
    </contour>
    <contour>
      <point x="100" y="546" type="line"/>
      <point x="100" y="645" type="line"/>
      <point x="-8" y="645" type="line"/>
      <point x="-8" y="546" type="line"/>
    </contour>
  </outline>
</glyph>
<glyph name="khahfinalarabic" format="1">
  <advance width="689"/>
  <unicode hex="FEA6"/>
  <outline>
    <contour>
      <point x="706" y="0" type="line"/>
      <point x="706" y="114" type="line"/>
      <point x="680" y="114" type="line" smooth="yes"/>
      <point x="645" y="114"/>
      <point x="613" y="125"/>
      <point x="585" y="148" type="curve" smooth="yes"/>
      <point x="544" y="180"/>
      <point x="520" y="232"/>
      <point x="511" y="305" type="curve" smooth="yes"/>
      <point x="488" y="498"/>
      <point x="392" y="583"/>
      <point x="223" y="583" type="curve" smooth="yes"/>
      <point x="187" y="583"/>
      <point x="158" y="575"/>
      <point x="137" y="566" type="curve"/>
      <point x="137" y="470" type="line"/>
      <point x="151" y="478"/>
      <point x="177" y="486"/>
      <point x="215" y="486" type="curve" smooth="yes"/>
      <point x="313" y="486"/>
      <point x="371" y="440"/>
      <point x="390" y="329" type="curve"/>
      <point x="267" y="329" type="line" smooth="yes"/>
      <point x="198" y="329"/>
      <point x="142" y="310"/>
      <point x="101" y="271" type="curve" smooth="yes"/>
      <point x="55" y="228"/>
      <point x="32" y="165"/>
      <point x="32" y="82" type="curve" smooth="yes"/>
      <point x="32" y="-1"/>
      <point x="60" y="-64"/>
      <point x="115" y="-108" type="curve" smooth="yes"/>
      <point x="164" y="-146"/>
      <point x="230" y="-165"/>
      <point x="313" y="-165" type="curve" smooth="yes"/>
      <point x="393" y="-165" type="line"/>
      <point x="393" y="-48" type="line"/>
      <point x="272" y="-48" type="line" smooth="yes"/>
      <point x="237" y="-48"/>
      <point x="206" y="-36"/>
      <point x="181" y="-13" type="curve" smooth="yes"/>
      <point x="156" y="10"/>
      <point x="144" y="40"/>
      <point x="144" y="77" type="curve" smooth="yes"/>
      <point x="144" y="161"/>
      <point x="196" y="214"/>
      <point x="272" y="214" type="curve" smooth="yes"/>
      <point x="407" y="214" type="line"/>
      <point x="416" y="165"/>
      <point x="441" y="120"/>
      <point x="484" y="78" type="curve" smooth="yes"/>
      <point x="538" y="26"/>
      <point x="603" y="0"/>
      <point x="680" y="0" type="curve" smooth="yes"/>
    </contour>
    <contour>
      <point x="304" y="645" type="line"/>
      <point x="304" y="757" type="line"/>
      <point x="195" y="757" type="line"/>
      <point x="195" y="645" type="line"/>
    </contour>
  </outline>
</glyph>
<glyph name="khahinitialarabic" format="1">
  <advance width="715"/>
  <unicode hex="FEA7"/>
  <outline>
    <contour>
      <point x="683" y="70" type="line" smooth="yes"/>
      <point x="683" y="227"/>
      <point x="636" y="336"/>
      <point x="541" y="399" type="curve" smooth="yes"/>
      <point x="487" y="436"/>
      <point x="423" y="454"/>
      <point x="349" y="454" type="curve" smooth="yes"/>
      <point x="305" y="454"/>
      <point x="261" y="445"/>
      <point x="217" y="426" type="curve" smooth="yes"/>
      <point x="176" y="408"/>
      <point x="141" y="384"/>
      <point x="110" y="355" type="curve"/>
      <point x="135" y="317"/>
      <point x="153" y="288"/>
      <point x="164" y="267" type="curve"/>
      <point x="188" y="294"/>
      <point x="218" y="315"/>
      <point x="254" y="330" type="curve" smooth="yes"/>
      <point x="285" y="343"/>
      <point x="313" y="349"/>
      <point x="338" y="349" type="curve" smooth="yes"/>
      <point x="411" y="349"/>
      <point x="469" y="324"/>
      <point x="510" y="273" type="curve" smooth="yes"/>
      <point x="545" y="229"/>
      <point x="562" y="176"/>
      <point x="562" y="114" type="curve"/>
      <point x="-21" y="114" type="line"/>
      <point x="-21" y="0" type="line"/>
      <point x="683" y="0" type="line"/>
    </contour>
    <contour>
      <point x="402" y="548" type="line"/>
      <point x="402" y="659" type="line"/>
      <point x="292" y="659" type="line"/>
      <point x="292" y="548" type="line"/>
    </contour>
  </outline>
</glyph>
<glyph name="khahmedialarabic" format="1">
  <advance width="774"/>
  <unicode hex="FEA8"/>
  <outline>
    <contour>
      <point x="787" y="0" type="line"/>
      <point x="787" y="114" type="line"/>
      <point x="681" y="114" type="line"/>
      <point x="672" y="253"/>
      <point x="622" y="350"/>
      <point x="531" y="406" type="curve" smooth="yes"/>
      <point x="479" y="438"/>
      <point x="418" y="454"/>
      <point x="349" y="454" type="curve" smooth="yes"/>
      <point x="305" y="454"/>
      <point x="261" y="445"/>
      <point x="217" y="426" type="curve" smooth="yes"/>
      <point x="176" y="408"/>
      <point x="141" y="384"/>
      <point x="110" y="355" type="curve"/>
      <point x="135" y="317"/>
      <point x="153" y="288"/>
      <point x="164" y="267" type="curve"/>
      <point x="188" y="294"/>
      <point x="218" y="315"/>
      <point x="254" y="330" type="curve" smooth="yes"/>
      <point x="285" y="343"/>
      <point x="313" y="349"/>
      <point x="338" y="349" type="curve" smooth="yes"/>
      <point x="411" y="349"/>
      <point x="469" y="324"/>
      <point x="510" y="273" type="curve" smooth="yes"/>
      <point x="545" y="229"/>
      <point x="562" y="176"/>
      <point x="562" y="114" type="curve"/>
      <point x="-16" y="114" type="line"/>
      <point x="-16" y="0" type="line"/>
    </contour>
    <contour>
      <point x="402" y="548" type="line"/>
      <point x="402" y="659" type="line"/>
      <point x="292" y="659" type="line"/>
      <point x="292" y="548" type="line"/>
    </contour>
  </outline>
</glyph>
<glyph name="rehfinalarabic" format="1">
  <advance width="443"/>
  <unicode hex="FEAE"/>
  <outline>
    <contour>
      <point x="465" y="0" type="line"/>
      <point x="465" y="114" type="line"/>
      <point x="293" y="114" type="line"/>
      <point x="293" y="454" type="line"/>
      <point x="181" y="454" type="line"/>
      <point x="181" y="72" type="line" smooth="yes"/>
      <point x="181" y="-24"/>
      <point x="135" y="-70"/>
      <point x="42" y="-70" type="curve"/>
      <point x="42" y="-166" type="line"/>
      <point x="178" y="-166"/>
      <point x="269" y="-107"/>
      <point x="286" y="0" type="curve"/>
    </contour>
  </outline>
</glyph>
<glyph name="zainfinalarabic" format="1">
  <advance width="443"/>
  <unicode hex="FEB0"/>
  <outline>
    <contour>
      <point x="465" y="0" type="line"/>
      <point x="465" y="114" type="line"/>
      <point x="293" y="114" type="line"/>
      <point x="293" y="454" type="line"/>
      <point x="181" y="454" type="line"/>
      <point x="181" y="72" type="line" smooth="yes"/>
      <point x="181" y="-24"/>
      <point x="135" y="-70"/>
      <point x="42" y="-70" type="curve"/>
      <point x="42" y="-166" type="line"/>
      <point x="178" y="-166"/>
      <point x="269" y="-107"/>
      <point x="286" y="0" type="curve"/>
    </contour>
    <contour>
      <point x="292" y="546" type="line"/>
      <point x="292" y="657" type="line"/>
      <point x="182" y="657" type="line"/>
      <point x="182" y="546" type="line"/>
    </contour>
  </outline>
</glyph>
<glyph name="seeninitialarabic" format="1">
  <advance width="873"/>
  <unicode hex="FEB3"/>
  <outline>
    <contour>
      <point x="-13" y="114" type="line"/>
      <point x="-13" y="0" type="line"/>
      <point x="641" y="0" type="line" smooth="yes"/>
      <point x="755" y="0"/>
      <point x="835" y="94"/>
      <point x="835" y="238" type="curve" smooth="yes"/>
      <point x="835" y="454" type="line"/>
      <point x="722" y="454" type="line"/>
      <point x="722" y="224" type="line" smooth="yes"/>
      <point x="722" y="151"/>
      <point x="694" y="114"/>
      <point x="637" y="114" type="curve" smooth="yes"/>
      <point x="528" y="114" type="line"/>
      <point x="543" y="130"/>
      <point x="551" y="171"/>
      <point x="551" y="236" type="curve" smooth="yes"/>
      <point x="551" y="454" type="line"/>
      <point x="438" y="454" type="line"/>
      <point x="438" y="225" type="line" smooth="yes"/>
      <point x="438" y="151"/>
      <point x="410" y="114"/>
      <point x="353" y="114" type="curve" smooth="yes"/>
      <point x="249" y="114" type="line"/>
      <point x="249" y="120" type="line"/>
      <point x="261" y="139"/>
      <point x="267" y="177"/>
      <point x="267" y="236" type="curve" smooth="yes"/>
      <point x="267" y="454" type="line"/>
      <point x="154" y="454" type="line"/>
      <point x="154" y="232" type="line" smooth="yes"/>
      <point x="154" y="153"/>
      <point x="126" y="114"/>
      <point x="69" y="114" type="curve" smooth="yes"/>
    </contour>
  </outline>
</glyph>
<glyph name="seenmedialarabic" format="1">
  <advance width="976"/>
  <unicode hex="FEB4"/>
  <outline>
    <contour>
      <point x="-22" y="0" type="line"/>
      <point x="992" y="0" type="line"/>
      <point x="992" y="114" type="line"/>
      <point x="821" y="114" type="line"/>
      <point x="838" y="150"/>
      <point x="846" y="191"/>
      <point x="846" y="238" type="curve" smooth="yes"/>
      <point x="846" y="454" type="line"/>
      <point x="733" y="454" type="line"/>
      <point x="733" y="224" type="line" smooth="yes"/>
      <point x="733" y="151"/>
      <point x="705" y="114"/>
      <point x="648" y="114" type="curve" smooth="yes"/>
      <point x="539" y="114" type="line"/>
      <point x="554" y="130"/>
      <point x="562" y="171"/>
      <point x="562" y="236" type="curve" smooth="yes"/>
      <point x="562" y="454" type="line"/>
      <point x="449" y="454" type="line"/>
      <point x="449" y="225" type="line" smooth="yes"/>
      <point x="449" y="151"/>
      <point x="421" y="114"/>
      <point x="364" y="114" type="curve" smooth="yes"/>
      <point x="260" y="114" type="line"/>
      <point x="260" y="120" type="line"/>
      <point x="272" y="139"/>
      <point x="278" y="177"/>
      <point x="278" y="236" type="curve" smooth="yes"/>
      <point x="278" y="454" type="line"/>
      <point x="165" y="454" type="line"/>
      <point x="165" y="232" type="line" smooth="yes"/>
      <point x="165" y="153"/>
      <point x="137" y="114"/>
      <point x="80" y="114" type="curve" smooth="yes"/>
      <point x="-22" y="114" type="line"/>
    </contour>
  </outline>
</glyph>
<glyph name="sheenfinalarabic" format="1">
  <advance width="1371"/>
  <unicode hex="FEB6"/>
  <outline>
    <contour>
      <point x="1378" y="0" type="line"/>
      <point x="1378" y="114" type="line"/>
      <point x="1207" y="114" type="line"/>
      <point x="1224" y="150"/>
      <point x="1232" y="191"/>
      <point x="1232" y="238" type="curve" smooth="yes"/>
      <point x="1232" y="454" type="line"/>
      <point x="1119" y="454" type="line"/>
      <point x="1119" y="224" type="line" smooth="yes"/>
      <point x="1119" y="151"/>
      <point x="1091" y="114"/>
      <point x="1034" y="114" type="curve" smooth="yes"/>
      <point x="925" y="114" type="line"/>
      <point x="940" y="130"/>
      <point x="948" y="171"/>
      <point x="948" y="236" type="curve" smooth="yes"/>
      <point x="948" y="454" type="line"/>
      <point x="835" y="454" type="line"/>
      <point x="835" y="225" type="line" smooth="yes"/>
      <point x="835" y="151"/>
      <point x="807" y="114"/>
      <point x="750" y="114" type="curve" smooth="yes"/>
      <point x="659" y="114" type="line"/>
      <point x="662" y="134"/>
      <point x="664" y="155"/>
      <point x="664" y="176" type="curve" smooth="yes"/>
      <point x="664" y="454" type="line"/>
      <point x="551" y="454" type="line"/>
      <point x="551" y="189" type="line" smooth="yes"/>
      <point x="551" y="124"/>
      <point x="535" y="68"/>
      <point x="502" y="21" type="curve" smooth="yes"/>
      <point x="463" y="-32"/>
      <point x="412" y="-59"/>
      <point x="349" y="-59" type="curve" smooth="yes"/>
      <point x="285" y="-59"/>
      <point x="234" y="-32"/>
      <point x="195" y="21" type="curve" smooth="yes"/>
      <point x="162" y="68"/>
      <point x="145" y="124"/>
      <point x="145" y="189" type="curve" smooth="yes"/>
      <point x="145" y="454" type="line"/>
      <point x="32" y="454" type="line"/>
      <point x="32" y="176" type="line" smooth="yes"/>
      <point x="32" y="79"/>
      <point x="64" y="-2"/>
      <point x="127" y="-68" type="curve" smooth="yes"/>
      <point x="188" y="-133"/>
      <point x="262" y="-166"/>
      <point x="349" y="-166" type="curve" smooth="yes"/>
      <point x="437" y="-166"/>
      <point x="511" y="-132"/>
      <point x="572" y="-64" type="curve" smooth="yes"/>
      <point x="591" y="-44"/>
      <point x="606" y="-23"/>
      <point x="619" y="0" type="curve"/>
    </contour>
    <contour>
      <point x="946" y="703" type="line"/>
      <point x="946" y="815" type="line"/>
      <point x="836" y="815" type="line"/>
      <point x="836" y="703" type="line"/>
    </contour>
    <contour>
      <point x="1039" y="546" type="line"/>
      <point x="1039" y="657" type="line"/>
      <point x="930" y="657" type="line"/>
      <point x="930" y="546" type="line"/>
    </contour>
    <contour>
      <point x="850" y="546" type="line"/>
      <point x="850" y="657" type="line"/>
      <point x="741" y="657" type="line"/>
      <point x="741" y="546" type="line"/>
    </contour>
  </outline>
</glyph>
<glyph name="sheenmedialarabic" format="1">
  <advance width="976"/>
  <unicode hex="FEB8"/>
  <outline>
    <contour>
      <point x="-22" y="0" type="line"/>
      <point x="992" y="0" type="line"/>
      <point x="992" y="114" type="line"/>
      <point x="821" y="114" type="line"/>
      <point x="838" y="150"/>
      <point x="846" y="191"/>
      <point x="846" y="238" type="curve" smooth="yes"/>
      <point x="846" y="454" type="line"/>
      <point x="733" y="454" type="line"/>
      <point x="733" y="224" type="line" smooth="yes"/>
      <point x="733" y="151"/>
      <point x="705" y="114"/>
      <point x="648" y="114" type="curve" smooth="yes"/>
      <point x="539" y="114" type="line"/>
      <point x="554" y="130"/>
      <point x="562" y="171"/>
      <point x="562" y="236" type="curve" smooth="yes"/>
      <point x="562" y="454" type="line"/>
      <point x="449" y="454" type="line"/>
      <point x="449" y="225" type="line" smooth="yes"/>
      <point x="449" y="151"/>
      <point x="421" y="114"/>
      <point x="364" y="114" type="curve" smooth="yes"/>
      <point x="260" y="114" type="line"/>
      <point x="260" y="120" type="line"/>
      <point x="272" y="139"/>
      <point x="278" y="177"/>
      <point x="278" y="236" type="curve" smooth="yes"/>
      <point x="278" y="454" type="line"/>
      <point x="165" y="454" type="line"/>
      <point x="165" y="232" type="line" smooth="yes"/>
      <point x="165" y="153"/>
      <point x="137" y="114"/>
      <point x="80" y="114" type="curve" smooth="yes"/>
      <point x="-22" y="114" type="line"/>
    </contour>
    <contour>
      <point x="450" y="703" type="line"/>
      <point x="560" y="703" type="line"/>
      <point x="560" y="815" type="line"/>
      <point x="450" y="815" type="line"/>
    </contour>
    <contour>
      <point x="544" y="546" type="line"/>
      <point x="653" y="546" type="line"/>
      <point x="653" y="657" type="line"/>
      <point x="544" y="657" type="line"/>
    </contour>
    <contour>
      <point x="355" y="546" type="line"/>
      <point x="464" y="546" type="line"/>
      <point x="464" y="657" type="line"/>
      <point x="355" y="657" type="line"/>
    </contour>
  </outline>
</glyph>
<glyph name="sadmedialarabic" format="1">
  <advance width="939"/>
  <unicode hex="FEBC"/>
  <outline>
    <contour>
      <point x="949" y="0" type="line"/>
      <point x="949" y="114" type="line"/>
      <point x="831" y="114" type="line"/>
      <point x="828" y="341"/>
      <point x="742" y="456"/>
      <point x="573" y="456" type="curve" smooth="yes"/>
      <point x="465" y="456"/>
      <point x="355" y="388"/>
      <point x="266" y="267" type="curve"/>
      <point x="266" y="406" type="line"/>
      <point x="154" y="406" type="line"/>
      <point x="154" y="232" type="line" smooth="yes"/>
      <point x="154" y="153"/>
      <point x="126" y="114"/>
      <point x="69" y="114" type="curve" smooth="yes"/>
      <point x="-43" y="114" type="line"/>
      <point x="-43" y="0" type="line"/>
    </contour>
    <contour>
      <point x="715" y="114" type="line"/>
      <point x="269" y="114" type="line"/>
      <point x="331" y="252"/>
      <point x="450" y="356"/>
      <point x="562" y="356" type="curve" smooth="yes"/>
      <point x="657" y="356"/>
      <point x="717" y="275"/>
      <point x="717" y="146" type="curve"/>
    </contour>
  </outline>
</glyph>
<glyph name="dadfinalarabic" format="1">
  <advance width="1338"/>
  <unicode hex="FEBE"/>
  <outline>
    <contour>
      <point x="1345" y="0" type="line"/>
      <point x="1345" y="114" type="line"/>
      <point x="1227" y="114" type="line"/>
      <point x="1224" y="341"/>
      <point x="1138" y="456"/>
      <point x="969" y="456" type="curve" smooth="yes"/>
      <point x="862" y="456"/>
      <point x="751" y="389"/>
      <point x="664" y="269" type="curve"/>
      <point x="664" y="454" type="line"/>
      <point x="551" y="454" type="line"/>
      <point x="551" y="189" type="line" smooth="yes"/>
      <point x="551" y="48"/>
      <point x="467" y="-59"/>
      <point x="349" y="-59" type="curve" smooth="yes"/>
      <point x="230" y="-59"/>
      <point x="145" y="49"/>
      <point x="145" y="189" type="curve" smooth="yes"/>
      <point x="145" y="454" type="line"/>
      <point x="32" y="454" type="line"/>
      <point x="32" y="176" type="line" smooth="yes"/>
      <point x="32" y="-12"/>
      <point x="175" y="-166"/>
      <point x="349" y="-166" type="curve" smooth="yes"/>
      <point x="459" y="-166"/>
      <point x="558" y="-109"/>
      <point x="619" y="0" type="curve"/>
    </contour>
    <contour>
      <point x="1111" y="114" type="curve"/>
      <point x="665" y="114" type="line"/>
      <point x="727" y="252"/>
      <point x="846" y="356"/>
      <point x="958" y="356" type="curve" smooth="yes"/>
      <point x="1064" y="356"/>
      <point x="1111" y="248"/>
    </contour>
    <contour>
      <point x="1010" y="546" type="line"/>
      <point x="1010" y="657" type="line"/>
      <point x="900" y="657" type="line"/>
      <point x="900" y="546" type="line"/>
    </contour>
  </outline>
</glyph>
<glyph name="dadinitialarabic" format="1">
  <advance width="869"/>
  <unicode hex="FEBF"/>
  <outline>
    <contour>
      <point x="824" y="0" type="line"/>
      <point x="827" y="37"/>
      <point x="829" y="71"/>
      <point x="829" y="104" type="curve" smooth="yes"/>
      <point x="829" y="338"/>
      <point x="743" y="456"/>
      <point x="571" y="456" type="curve" smooth="yes"/>
      <point x="464" y="456"/>
      <point x="353" y="389"/>
      <point x="266" y="269" type="curve"/>
      <point x="266" y="406" type="line"/>
      <point x="154" y="406" type="line"/>
      <point x="154" y="232" type="line" smooth="yes"/>
      <point x="154" y="153"/>
      <point x="126" y="114"/>
      <point x="69" y="114" type="curve" smooth="yes"/>
      <point x="-13" y="114" type="line"/>
      <point x="-13" y="0" type="line"/>
    </contour>
    <contour>
      <point x="713" y="114" type="line"/>
      <point x="267" y="114" type="line"/>
      <point x="329" y="252"/>
      <point x="448" y="356"/>
      <point x="560" y="356" type="curve" smooth="yes"/>
      <point x="655" y="356"/>
      <point x="715" y="275"/>
      <point x="715" y="146" type="curve"/>
    </contour>
    <contour>
      <point x="612" y="546" type="line"/>
      <point x="612" y="657" type="line"/>
      <point x="502" y="657" type="line"/>
      <point x="502" y="546" type="line"/>
    </contour>
  </outline>
</glyph>
<glyph name="tahfinalarabic" format="1">
  <advance width="876"/>
  <unicode hex="FEC2"/>
  <outline>
    <contour>
      <point x="32" y="114" type="line"/>
      <point x="32" y="0" type="line"/>
      <point x="887" y="0" type="line"/>
      <point x="887" y="114" type="line"/>
      <point x="774" y="114" type="line"/>
      <point x="772" y="341"/>
      <point x="686" y="456"/>
      <point x="517" y="456" type="curve" smooth="yes"/>
      <point x="410" y="456"/>
      <point x="314" y="402"/>
      <point x="222" y="283" type="curve"/>
      <point x="235" y="645" type="line"/>
      <point x="124" y="645" type="line"/>
      <point x="124" y="114" type="line"/>
    </contour>
    <contour>
      <point x="213" y="114" type="line"/>
      <point x="275" y="252"/>
      <point x="394" y="356"/>
      <point x="506" y="356" type="curve" smooth="yes"/>
      <point x="602" y="356"/>
      <point x="661" y="273"/>
      <point x="661" y="146" type="curve"/>
      <point x="659" y="114" type="line"/>
    </contour>
  </outline>
</glyph>
<glyph name="tahmedialarabic" format="1">
  <advance width="935"/>
  <unicode hex="FEC4"/>
  <outline>
    <contour>
      <point x="946" y="0" type="line"/>
      <point x="946" y="114" type="line"/>
      <point x="833" y="114" type="line"/>
      <point x="830" y="341"/>
      <point x="743" y="456"/>
      <point x="574" y="456" type="curve" smooth="yes"/>
      <point x="468" y="456"/>
      <point x="372" y="402"/>
      <point x="279" y="283" type="curve"/>
      <point x="293" y="645" type="line"/>
      <point x="183" y="645" type="line"/>
      <point x="183" y="114" type="line"/>
      <point x="-11" y="114" type="line"/>
      <point x="-11" y="0" type="line"/>
    </contour>
    <contour>
      <point x="717" y="114" type="curve"/>
      <point x="270" y="114" type="line"/>
      <point x="335" y="254"/>
      <point x="452" y="356"/>
      <point x="564" y="356" type="curve" smooth="yes"/>
      <point x="660" y="356"/>
      <point x="718" y="274"/>
      <point x="718" y="146" type="curve" smooth="yes"/>
      <point x="718" y="135"/>
      <point x="718" y="125"/>
    </contour>
  </outline>
</glyph>
<glyph name="zahfinalarabic" format="1">
  <advance width="876"/>
  <unicode hex="FEC6"/>
  <outline>
    <contour>
      <point x="887" y="0" type="line"/>
      <point x="887" y="114" type="line"/>
      <point x="774" y="114" type="line"/>
      <point x="772" y="341"/>
      <point x="686" y="456"/>
      <point x="517" y="456" type="curve" smooth="yes"/>
      <point x="410" y="456"/>
      <point x="314" y="402"/>
      <point x="222" y="283" type="curve"/>
      <point x="235" y="645" type="line"/>
      <point x="124" y="645" type="line"/>
      <point x="124" y="114" type="line"/>
      <point x="32" y="114" type="line"/>
      <point x="32" y="0" type="line"/>
    </contour>
    <contour>
      <point x="659" y="114" type="line"/>
      <point x="213" y="114" type="line"/>
      <point x="275" y="252"/>
      <point x="394" y="356"/>
      <point x="506" y="356" type="curve" smooth="yes"/>
      <point x="602" y="356"/>
      <point x="661" y="273"/>
      <point x="661" y="146" type="curve" smooth="yes"/>
      <point x="661" y="137"/>
      <point x="660" y="128"/>
      <point x="659" y="117" type="curve" smooth="yes"/>
    </contour>
    <contour>
      <point x="549" y="546" type="line"/>
      <point x="549" y="657" type="line"/>
      <point x="439" y="657" type="line"/>
      <point x="439" y="546" type="line"/>
    </contour>
  </outline>
</glyph>
<glyph name="zahinitialarabic" format="1">
  <advance width="850"/>
  <unicode hex="FEC7"/>
  <outline>
    <contour>
      <point x="813" y="0" type="line"/>
      <point x="816" y="37"/>
      <point x="818" y="71"/>
      <point x="818" y="104" type="curve" smooth="yes"/>
      <point x="818" y="338"/>
      <point x="732" y="456"/>
      <point x="559" y="456" type="curve" smooth="yes"/>
      <point x="454" y="456"/>
      <point x="358" y="402"/>
      <point x="266" y="283" type="curve"/>
      <point x="278" y="645" type="line"/>
      <point x="168" y="645" type="line"/>
      <point x="168" y="114" type="line"/>
      <point x="-16" y="114" type="line"/>
      <point x="-16" y="0" type="line"/>
    </contour>
    <contour>
      <point x="703" y="114" type="line"/>
      <point x="255" y="114" type="line"/>
      <point x="323" y="256"/>
      <point x="436" y="356"/>
      <point x="549" y="356" type="curve" smooth="yes"/>
      <point x="646" y="356"/>
      <point x="703" y="273"/>
      <point x="703" y="146" type="curve" smooth="yes"/>
    </contour>
    <contour>
      <point x="591" y="546" type="line"/>
      <point x="591" y="657" type="line"/>
      <point x="481" y="657" type="line"/>
      <point x="481" y="546" type="line"/>
    </contour>
  </outline>
</glyph>
<glyph name="zahmedialarabic" format="1">
  <advance width="935"/>
  <unicode hex="FEC8"/>
  <outline>
    <contour>
      <point x="956" y="0" type="line"/>
      <point x="956" y="114" type="line"/>
      <point x="833" y="114" type="line"/>
      <point x="830" y="341"/>
      <point x="743" y="456"/>
      <point x="574" y="456" type="curve" smooth="yes"/>
      <point x="468" y="456"/>
      <point x="372" y="402"/>
      <point x="279" y="283" type="curve"/>
      <point x="293" y="645" type="line"/>
      <point x="183" y="645" type="line"/>
      <point x="183" y="114" type="line"/>
      <point x="-21" y="114" type="line"/>
      <point x="-21" y="0" type="line"/>
    </contour>
    <contour>
      <point x="717" y="114" type="curve"/>
      <point x="270" y="114" type="line"/>
      <point x="335" y="254"/>
      <point x="452" y="356"/>
      <point x="564" y="356" type="curve" smooth="yes"/>
      <point x="660" y="356"/>
      <point x="718" y="274"/>
      <point x="718" y="146" type="curve" smooth="yes"/>
      <point x="718" y="135"/>
      <point x="718" y="125"/>
    </contour>
    <contour>
      <point x="611" y="546" type="line"/>
      <point x="611" y="657" type="line"/>
      <point x="502" y="657" type="line"/>
      <point x="502" y="546" type="line"/>
    </contour>
  </outline>
</glyph>
